<?xml version="1.0" standalone="no"?>
<!DOCTYPE svg PUBLIC "-//W3C//DTD SVG 1.1//EN" "http://www.w3.org/Graphics/SVG/1.1/DTD/svg11.dtd" >
<svg xmlns="http://www.w3.org/2000/svg">
<metadata></metadata>
<defs>
<font id="youreinvitedheavy" horiz-adv-x="681" >
<font-face units-per-em="2048" ascent="1638" descent="-410" />
<missing-glyph horiz-adv-x="512" />
<glyph horiz-adv-x="0" />
<glyph horiz-adv-x="0" />
<glyph horiz-adv-x="682" />
<glyph unicode="&#xd;" horiz-adv-x="512" />
<glyph unicode=" "  horiz-adv-x="512" />
<glyph unicode="&#x09;" horiz-adv-x="512" />
<glyph unicode="&#xa0;" horiz-adv-x="512" />
<glyph unicode="!" d="M29 78q0 34 21 56t56 22q29 0 51.5 -24t22.5 -54q0 -29 -23.5 -51.5t-52.5 -22.5q-32 0 -53.5 21t-21.5 53zM165 277q0 7 5 16q74 120 694 1139q18 28 60 29t68 -25.5t5 -63.5q-13 -23 -371 -527.5t-393 -559.5q-12 -26 -43 -26q-25 -1 -25 18z" />
<glyph unicode="&#x22;" d="M440.5 1350q1.5 29 7 55.5t20.5 39.5t38 13t37.5 -13t20 -40t7 -55.5t-3 -72.5t-9 -78t-12 -85.5t-11.5 -81.5q-3 -28 -16 -39.5t-26 0t-16 39.5q-4 30 -11.5 81t-12.5 85.5t-9.5 78.5t-3 73zM704.5 1350q1.5 29 7 55.5t20.5 39.5t38 13t37.5 -13t20 -40t7 -55.5 t-3 -72.5t-9 -78t-12 -85.5t-11.5 -81.5q-3 -28 -16 -39.5t-26 0t-16 39.5q-4 30 -11.5 81t-12.5 85.5t-9.5 78.5t-3 73z" />
<glyph unicode="#" horiz-adv-x="1024" d="M270 362l23 58h184l96 256h-178l23 57h178l133 352h150l-134 -352h144l133 352h149l-133 -352h150l-25 -57h-145l-98 -256h143l-25 -58h-139l-137 -362h-150l138 362h-144l-137 -362h-150l138 362h-187zM627 420h143l98 256h-145z" />
<glyph unicode="$" horiz-adv-x="1320" d="M105 343q0 65 22.5 118.5t64.5 92t97 48.5q72 13 98 -11q10 -10 0 -13q-60 -7 -104.5 -45.5t-60.5 -95.5t-10 -119t47.5 -123t111.5 -101l6 -4l311 582q-75 88 -116 166.5t-37 165.5q3 74 35 133.5t81.5 94.5t113 57.5t130 23.5t131.5 -8l88 161l74 -34l-82 -152 q42 -19 76 -53q36 -38 56 -83t21.5 -86.5t-8 -82.5t-32.5 -71t-52.5 -52.5t-66.5 -27t-76 6.5q-16 5 -20 23q0 8 4 8q57 -10 108 37q69 70 53 169.5t-94 154.5l-278 -523q43 -44 72 -76.5t66.5 -80.5t58.5 -87t33 -84.5t5 -84.5q-15 -82 -61 -146.5t-110 -102.5t-141 -58.5 t-156 -19.5t-152 20l-62 -111l-71 37l53 100q-78 35 -131 91.5t-74.5 118.5t-21.5 127zM453 57q70 -24 125 -24q128 5 223 74.5t110 179.5q6 42 -4 82t-39 84.5t-51.5 72.5t-68.5 80zM629 974.5q3 -40.5 22 -85t54 -86.5q3 -4 14 -17.5t18 -21.5l264 496q-39 13 -80 13.5 t-78 -10t-72 -29.5t-61.5 -47t-47 -60.5t-28.5 -72t-5 -80z" />
<glyph unicode="%" horiz-adv-x="1447" d="M139 590q-43 100 8 235q49 132 156 210q90 66 193 67q63 1 106.5 -19t66 -48.5t40 -58t43 -52.5t61.5 -27q42 3 80.5 21.5t66 44.5t44 45.5t28.5 38.5q48 74 106 72q30 0 37 -18q2 -6 -1 -11q-26 -43 -277 -385q-94 -125 -247 -335t-243.5 -332t-93.5 -122q-11 0 -22.5 9 t-11.5 20q-1 3 69.5 104t252 358.5t351.5 501.5q-52 -30 -109.5 -35t-115.5 9q-4 -4 -4 -11q0 -162 -106.5 -282t-264.5 -119q-161 2 -213 119zM211 737q-8 -97 36 -163.5t120 -73.5q92 7 163.5 85.5t94.5 194.5q23 112 -21 192.5t-129 88.5q-76 -6 -136 -57t-91 -121 t-37 -146zM759 121q-43 99 7 235q50 132 157 211q89 65 191 66q111 2 170 -56.5t59 -173.5q2 -163 -106 -282.5t-266 -118.5q-161 2 -212 119zM838 266q-8 -96 35 -163t118 -74q92 7 163.5 85.5t94.5 196.5q22 111 -20.5 192.5t-126.5 88.5q-76 -6 -136 -57.5t-91 -122 t-37 -146.5z" />
<glyph unicode="&#x26;" horiz-adv-x="1294" d="M-20 446q0 97 33.5 187.5t81 153.5t95 114t81 89t34.5 59q0 22 -19.5 85.5t-19.5 102.5q0 99 77.5 160t180.5 61q55 1 100.5 -21.5t67 -55.5t17 -73t-42.5 -71q-28 -23 -65 -15q-14 4 -13 9q4 10 5 37.5t-4.5 62.5t-32 62.5t-71.5 29.5q-39 1 -66.5 -36t-27.5 -78 q0 -37 19 -105.5t18 -85.5q0 -56 -59 -125q-16 -20 -51.5 -60t-57.5 -66.5t-52 -72t-47.5 -87t-30.5 -99.5t-13 -121q0 -215 127.5 -334.5t343.5 -117.5q94 1 167.5 33t117 81.5t72 116t38.5 129t10 127.5q0 55 -14.5 111t-42 105t-73 80t-101.5 32q-94 1 -162 -74.5 t-68 -177.5q0 -127 95 -166q13 -5 27.5 -9t23.5 -5t16.5 -2.5t10 -3.5t0.5 -6q-9 -17 -43.5 -29t-78.5 -10t-85 17t-67.5 58.5t-22.5 108.5q3 58 26.5 113t57.5 99t89 90.5t107 80.5t127 76t133 70.5t141 70.5t136 70q101 54 191 117t175.5 142t136 170.5t50.5 180.5 q0 104 -60.5 173t-148.5 71q-33 1 -65.5 -9.5t-47.5 -19.5t-22 -16q-17 -14 -53 -5q-16 4 -15 10l2 3q98 88 250 88q119 2 191 -71t65 -191q-30 -419 -610 -740q-102 -57 -292 -132t-237 -97q-24 -12 -33 -21q9 1 21 4t22.5 4t26.5 1q172 0 270.5 -91.5t98.5 -269.5 q0 -100 -34.5 -188t-94.5 -152.5t-139 -112t-170 -71t-185 -23.5q-114 0 -210 28t-170 84t-116 147.5t-42 211.5z" />
<glyph unicode="'" horiz-adv-x="454" d="M434 1349q1 30 6.5 56t20 39.5t37.5 13.5t37.5 -13.5t20 -39.5t6.5 -56t-3.5 -73t-9.5 -78.5t-12.5 -84.5t-10.5 -81q-3 -28 -16 -39t-25.5 0t-15.5 39q-3 32 -10.5 81t-12 84.5t-9 78.5t-3.5 73z" />
<glyph unicode="(" horiz-adv-x="716" d="M0 -248q3 473 139.5 855.5t422 681.5t714.5 487v-78q-339 -174 -611.5 -481t-429.5 -692.5t-157 -772.5h-78z" />
<glyph unicode=")" horiz-adv-x="796" d="M-16 -182q253 131 474.5 342.5t381 466t251 550.5t91.5 586h78q-3 -472 -139 -854.5t-422 -681.5t-715 -487v78z" />
<glyph unicode="*" d="M470.5 1265q-4.5 34 24.5 44t76 -11q40 -20 99 -67q-13 83 -11 119q1 39 18.5 60.5t37 21.5t37 -21.5t18.5 -60.5q1 -28 -8 -119q60 49 94 67q30 16 54.5 16.5t35 -11t12.5 -28t-10.5 -36.5t-36.5 -35q-38 -27 -104 -53q72 -29 104 -51q39 -25 46 -60.5t-19.5 -47.5 t-81.5 12q-34 18 -94 67q9 -91 8 -119q-1 -39 -18.5 -60.5t-37 -21.5t-37 21.5t-18.5 60.5q-2 36 11 119q-59 -47 -99 -67q-49 -22 -77 -11t-22.5 46t46.5 61q30 21 105 51q-68 27 -105 53q-43 27 -47.5 61z" />
<glyph unicode="+" d="M141 305l37 94h191l69 176h107l-70 -176h182l-39 -94h-178l-71 -180h-107l72 180h-193z" />
<glyph unicode="," horiz-adv-x="512" d="M124 29q-18 40 7 86q30 55 94 53q48 -1 77.5 -33t29.5 -78q0 -71 -42.5 -132.5t-113.5 -104.5q-24 -16 -45.5 -9.5t-5.5 35.5q25 23 57.5 73.5t24.5 82.5q-61 -19 -83 27z" />
<glyph unicode="-" d="M141 324l37 57h479l-39 -57h-477z" />
<glyph unicode="." horiz-adv-x="512" d="M145 86q0 40 28.5 68t68.5 28t68 -28t28 -68q0 -39 -28.5 -67.5t-67.5 -28.5q-40 0 -68.5 29t-28.5 67z" />
<glyph unicode="/" horiz-adv-x="569" d="M156 -33l678 1491h108l-678 -1491h-108z" />
<glyph unicode="0" horiz-adv-x="1390" d="M94.5 436.5q-9.5 166.5 67.5 378.5q39 105 88.5 197.5t117 176t145 142t174.5 91.5t202 30q126 -4 218 -51t140.5 -122.5t67 -174t5 -205.5t-53.5 -217q-26 -72 -58.5 -141t-73.5 -139t-89.5 -130.5t-103.5 -113.5t-119.5 -90t-133.5 -58.5t-148.5 -20.5t-162.5 25 q-123 37 -198 146.5t-84.5 276zM209.5 379.5q0.5 -71.5 19 -140t54.5 -118t103 -78.5t159 -25q69 3 140.5 38.5t144 104t144.5 179.5t134 256q23 54 43 122t33 148.5t15 159t-13.5 152t-48.5 129.5t-95.5 90t-148.5 35q-85 1 -166 -35.5t-146.5 -98t-124 -145.5t-101.5 -174 t-76 -188q-19 -57 -34.5 -119.5t-25.5 -141.5t-9.5 -150.5z" />
<glyph unicode="1" horiz-adv-x="675" d="M84 6q18 45 94.5 229.5t210.5 494t219 484.5q-84 -53 -213 -57q-90 -3 -146.5 36.5t-70.5 90.5q-6 20 9.5 42t34.5 25t34 -22q22 -48 68.5 -87.5t111.5 -39.5q130 0 242 150q9 16 35 55q28 35 72 32q27 -2 26 -15q0 -2 -2 -5q-41 -61 -116.5 -226t-155 -359 t-151.5 -377.5t-121 -311t-50 -129.5q-13 -21 -87 -20q-46 2 -44 10z" />
<glyph unicode="2" horiz-adv-x="1316" d="M60.5 48.5q-4.5 24.5 24 48t87.5 30.5q107 14 244 -29q83 44 165.5 104t170 144.5t170 200t147.5 248.5q49 100 74.5 187.5t28.5 151t-9 115.5t-35.5 85.5t-54.5 56.5t-62.5 33t-62.5 10q-78 2 -154 -62t-104 -176q-10 -40 -3 -67.5t20.5 -46t29 -29t22.5 -16t1 -7.5 q-89 -31 -152 13t-45 143q13 72 53.5 128t98.5 88.5t124 48.5t136 15q95 -1 162 -27.5t101.5 -69.5t48.5 -102t8.5 -122.5t-25 -135t-45.5 -134t-58 -125.5q-67 -129 -154.5 -240.5t-180 -193t-177.5 -139.5t-172 -101q166 -52 285 -56q66 -1 129 34t90.5 92.5t-8.5 129.5 q-9 18 20 21q43 6 93 -25q39 -24 31 -85q-12 -76 -90 -135q-98 -72 -257 -72q-108 0 -183.5 13.5t-180.5 49.5q-125 -49 -228 -53q-52 -2 -85.5 16t-38 42.5zM154 62q-13 -27 10 -40q15 -8 39 -4q68 14 143 48q-11 4 -32 11t-33.5 11t-30 7.5t-31.5 2.5q-50 -4 -65 -36z" />
<glyph unicode="3" horiz-adv-x="1236" d="M76 332q2 70 28.5 123t69.5 82t94.5 42t108.5 11q30 -2 44 -17q11 -14 -15 -18h-3q-66 -6 -110 -43q-48 -41 -72 -95.5t-23.5 -109.5t23 -109.5t61.5 -96t97 -66.5t125 -25q81 1 157 45.5t132 114t95.5 158t54 176t0 170.5t-59.5 139q-38 -17 -110 -18t-131.5 21 t-55.5 63q3 34 54 44.5t102 5.5t83 -14q38 -11 74 -30q62 39 103.5 95t56 114t6.5 116t-37.5 103.5t-83.5 74.5t-125 31q-107 2 -181 -56t-71 -151q2 -39 34.5 -79.5t68.5 -18.5q12 11 17 1q2 -5 -5 -9q-24 -17 -66 -24t-85 -2.5t-74.5 32t-32.5 74.5q-1 72 37 126t100 82.5 t126.5 41.5t127.5 12q104 -1 180.5 -28.5t116.5 -71.5t58 -99t7 -114.5t-39 -114.5t-77 -101t-109 -73q79 -70 111.5 -164.5t20 -188.5t-62 -187t-125.5 -164.5t-180 -116t-216 -45.5q-81 0 -156.5 22t-137 64t-97.5 111t-33 155zM674 879q-5 -16 15.5 -32.5t55.5 -17.5 q33 -2 97 25q-62 46 -125 49q-19 0 -30 -7.5t-13 -16.5z" />
<glyph unicode="4" horiz-adv-x="1302" d="M46 526q16 30 83 49q37 11 83.5 11.5t71 -2.5t70.5 -11q66 51 142 130t137.5 152t137.5 173.5t118 159.5t103 147.5t71 102.5q17 24 99 22q73 -2 80 -20q1 -5 -3 -10q-44 -48 -147 -176.5t-196 -243.5t-222.5 -246t-241.5 -207q49 -12 159 -45.5t169 -48.5 q270 618 327 688q23 27 66 21q24 -3 22 -12q0 -2 -1 -3q-86 -130 -306 -721q140 -28 252 -10q60 10 82 -18q7 -10 2 -11q-175 -43 -358 -20q-35 -94 -69 -188.5t-49 -137t-17 -45.5q-8 -16 -47 -20t-73 0.5t-32 9.5q1 3 20.5 47.5t65.5 150.5t88 203q-79 20 -206 72t-142 57 q-108 -67 -231 -71q-58 -2 -91 19.5t-17 51.5zM142 517q-11 -28 14 -37q6 -3 14 -3q22 -1 50.5 10.5t45.5 22.5t56 37q-73 21 -127 10q-41 -9 -53 -40z" />
<glyph unicode="5" horiz-adv-x="1423" d="M78 258q0 110 74.5 170.5t183.5 54.5q33 -2 33 -8q0 -5 -23 -10q-69 -17 -106 -72t-32 -123.5t34.5 -133.5t97.5 -110t154 -46q80 -1 152 16.5t140.5 60t120 107t86.5 165.5t45 228q5 73 -13 133.5t-53.5 102t-85 71t-105.5 44t-117 16.5q-50 2 -129 -21 q-57 -132 -97 -182q-11 -14 -22.5 -25.5t-23.5 -19t-20 -12t-21 -7.5t-17 -4t-18 -3l-15 -1q-59 -5 -72.5 31t35.5 106q67 91 189 136q81 224 125 311q31 61 61 100q79 103 299 103q128 0 229 -27q21 -6 48.5 -1.5t50 14.5t45 18t33 9t14.5 -13q3 -20 -46.5 -45t-132 -43 t-161.5 -17q-46 1 -104 14t-95 13q-88 0 -145 -121q-16 -31 -121 -291q29 5 133 10q72 2 140.5 -11t130 -44.5t108 -77t73.5 -114.5t27 -152q0 -140 -54 -255.5t-146.5 -190.5t-213 -115.5t-255.5 -40.5q-60 0 -116.5 9t-112.5 31.5t-97 56t-66.5 86.5t-25.5 120zM319 691 q2 0 5 -1q18 -4 33 6t26 31.5t18.5 42t16.5 49.5t14 41q-38 -22 -85 -80q-62 -75 -28 -89z" />
<glyph unicode="6" horiz-adv-x="1335" d="M92 391q0 116 27.5 238.5t77.5 239.5t126 221.5t167.5 183.5t207.5 126.5t240 49.5q55 1 102 -6t95 -25.5t76 -59t28 -99.5q0 -57 -34 -119.5t-70 -77.5q-30 -12 -76 -7q-20 2 -18 8l3 3q18 13 41 72t23 100q0 89 -40 141.5t-136 49.5q-137 -4 -272.5 -111.5 t-232.5 -268.5t-157.5 -355t-60.5 -367q0 -190 112 -267q95 -65 227 -23q140 44 243 185q143 196 143 482q0 36 -11.5 74.5t-33 74t-59.5 59.5t-85 25q-28 1 -61.5 -5.5t-77.5 -28t-85.5 -55.5t-83 -94t-70.5 -137q-3 -7 -20 -9.5t-33 0.5t-15 9q8 71 53 136.5t109.5 110.5 t140.5 71.5t146 26.5q145 -1 229 -87.5t84 -228.5q0 -231 -159 -416q-127 -147 -304 -208q-180 -61 -316 0q-154 69 -184 274q-6 44 -6 94z" />
<glyph unicode="7" horiz-adv-x="1005" d="M127 1174q63 198 66 210q16 48 123.5 43t234 -35.5t211.5 -66.5q101 -44 137 -53q71 99 133 129q29 15 76 18.5t81 -15t21 -58.5q-28 -91 -241 -123q-41 -77 -62 -125q-81 -187 -189 -455.5t-178 -450.5l-71 -182q-12 -25 -86 -22q-48 3 -45 12q0 1 15.5 41.5t42 109 t60.5 156.5t76.5 191.5t86 205.5t91.5 207.5t91 188.5q38 72 65 121q-49 1 -111 21.5t-112 43.5t-118 42t-130 18q-42 0 -78.5 -21.5t-59.5 -53t-36.5 -58.5t-19.5 -48q-3 -12 -23 -14t-37.5 5t-13.5 18zM989 1257q47 8 105 48q21 17 29 34.5t3 29t-20 13.5t-47 -26 q-33 -30 -70 -99z" />
<glyph unicode="8" horiz-adv-x="1236" d="M90 262q-24 134 56.5 265t254.5 206q35 15 134.5 57t142.5 62q140 66 201 202q53 119 21 227q-29 98 -115 125q-27 9 -58 9q-67 1 -122.5 -55.5t-80.5 -131.5t-16 -154t59 -120q21 -17 43 -27.5t35.5 -13.5t24.5 -4.5t14 -2.5t0 -5q-22 -23 -83 -12t-107 45 q-70 49 -82.5 137t22.5 170t117 144t184 63q68 0 124 -23.5t90 -64.5t52.5 -93t9.5 -111.5t-37 -117.5t-88.5 -114t-144.5 -97q-85 -39 -102 -45q-109 -41 -192 -100t-128.5 -117t-72 -119t-32 -106.5t0.5 -79.5q23 -120 93.5 -189.5t187.5 -68.5q200 4 314 157 q89 118 93 274q3 142 -65 222q-79 93 -213 45q-14 -14 -14 -2q-1 17 28 39q36 25 92 31q74 8 150.5 -50.5t112 -161.5t-12.5 -241q-63 -163 -186 -247t-297 -86q-355 0 -408 280z" />
<glyph unicode="9" horiz-adv-x="1224" d="M72 268q0 36 25.5 87t62.5 73q43 23 67.5 21t38 -11t10.5 -12q-26 -22 -46.5 -73.5t-20.5 -119.5q0 -99 64 -159.5t171 -57.5q83 3 159.5 44.5t137 109.5t113 156t89.5 184t63.5 194t39.5 186t13 159q0 50 -4.5 95t-19 98.5t-38.5 91.5t-67 63t-101 24 q-100 -1 -191.5 -71t-149.5 -169.5t-89 -205.5t-22 -182q9 -79 58 -145.5t128 -65.5q179 0 289 252q18 11 32.5 8t23.5 -11.5t7 -15.5q-38 -116 -139 -205t-221 -88q-125 0 -212 98.5t-87 221.5q0 104 48 213t126 195.5t185 142t216 55.5q88 -1 156.5 -35t110 -91.5 t63 -128.5t21.5 -151q0 -79 -17 -174.5t-51.5 -198.5t-82.5 -203t-113.5 -188t-139.5 -154t-166.5 -102t-189.5 -30q-60 3 -120.5 22.5t-112.5 53t-84.5 86t-32.5 114.5z" />
<glyph unicode=":" horiz-adv-x="512" d="M281 86q0 40 28 68t68 28t68 -28t28 -68q0 -39 -28.5 -67.5t-67.5 -28.5t-67.5 28.5t-28.5 67.5zM469 614q0 40 28 68.5t68 28.5t68.5 -28.5t28.5 -68.5t-28.5 -68t-68.5 -28t-68 28t-28 68z" />
<glyph unicode=";" horiz-adv-x="512" d="M261 29q-18 40 7 86q30 55 94 53q48 -1 77.5 -33t29.5 -78q0 -71 -42.5 -132.5t-113.5 -104.5q-24 -16 -45.5 -9.5t-5.5 35.5q25 23 57.5 73.5t24.5 82.5q-61 -19 -83 27zM469 614q0 40 28 68.5t68 28.5t68.5 -28.5t28.5 -68.5t-28.5 -68t-68.5 -28t-68 28t-28 68z" />
<glyph unicode="&#x3c;" horiz-adv-x="1232" d="M324 338q214 51 425.5 119.5t350.5 124.5l61 -37q-98 -52 -231 -109.5t-242 -95.5q245 -82 473 -205l-61 -37q-128 54 -340.5 120.5t-435.5 119.5z" />
<glyph unicode="=" horiz-adv-x="1228" d="M434 182v101h705v-101h-705zM434 422v100h705v-100h-705z" />
<glyph unicode="&#x3e;" horiz-adv-x="1228" d="M463 135q98 53 231 111t242 94q-228 76 -473 205l61 37q139 -56 350.5 -124.5t425.5 -119.5q-223 -53 -435.5 -119.5t-340.5 -120.5z" />
<glyph unicode="?" horiz-adv-x="909" d="M143 76q0 31 22.5 53.5t53.5 22.5t53.5 -22.5t22.5 -53.5t-22.5 -53.5t-53.5 -22.5t-53.5 22.5t-22.5 53.5zM264 1016q0 88 35.5 166t94.5 133t134.5 95.5t157.5 60t162 20.5q183 0 291 -92.5t108 -276.5q0 -142 -109.5 -292t-279.5 -228q-205 -95 -278 -137 q-178 -102 -226 -199q-12 -27 -57 -9q-21 10 -21 17q39 66 99.5 119.5t129.5 92t137.5 71t143 73.5t125.5 83q217 180 217 432q0 137 -81.5 224t-210.5 87q-76 -1 -159 -37t-150.5 -94t-111.5 -139t-44 -164q0 -96 57.5 -170t163.5 -74q27 0 27 -9q0 -10 -22 -14 q-5 -1 -11 -1q-67 0 -122.5 13.5t-101.5 43t-72 82t-26 123.5z" />
<glyph unicode="@" horiz-adv-x="1716" d="M229 455q0 226 103 404t283.5 276t406.5 98q144 0 274 -42.5t231 -121.5t160.5 -201.5t59.5 -271.5q0 -119 -39 -221.5t-99 -167.5t-128.5 -101t-130.5 -34q-88 2 -137.5 64.5t-36.5 197.5q-65 -119 -145 -171t-206 -42q-114 9 -155.5 123t4.5 268q50 166 172 266 q113 92 256 96q65 2 112 -9t82 -48q2 4 5 10.5t4 8.5q8 24 65 6q29 -10 27 -15q-6 -6 -47 -150.5t-62 -236.5q-30 -152 -1.5 -230.5t95.5 -78.5q47 2 96 36t90.5 92.5t68 147t26.5 187.5q0 173 -86.5 311.5t-232.5 214.5t-322 76q-107 0 -207.5 -32.5t-186 -97t-149.5 -154 t-100.5 -211t-36.5 -259.5q0 -114 53.5 -230.5t144.5 -210t223.5 -153.5t278.5 -61q36 0 69.5 3t69.5 11.5t59 14.5t61 22t51.5 21.5t54.5 24.5t47 22q29 13 56 -1q25 -13 -3 -32l-6 -4q-230 -124 -461 -127q-157 -1 -303 48.5t-259 139t-181 226.5t-68 299zM765 403 q0 -125 57 -180q62 -61 161 4q82 54 153 193t119 301q10 33 -35 65t-112 31q-170 -6 -267 -155q-75 -115 -76 -259z" />
<glyph unicode="A" horiz-adv-x="1775" d="M-10 375q1 86 26.5 154t63.5 107.5t87 65t90.5 34.5t80.5 9q162 0 192 -92q6 -19 -25.5 -38.5t-43.5 -2.5q0 1 -3 7.5t-5 9.5t-6.5 10.5t-9 11.5t-12 11t-15 11.5t-19 9.5t-24 8t-29 5t-35.5 2q-34 0 -71.5 -17.5t-73.5 -52.5q-38 -34 -60 -98q-19 -54 -19 -119 q0 -12 1 -24q3 -73 42.5 -151t118 -145t177.5 -89q51 -12 102 -12q52 0 102 12q102 24 179 96q99 92 210 230t268 353t232 312q159 206 300 319t249 146q14 4 14 -4t-12 -27q-30 -52 -147 -333q-23 -56 -117 -308.5t-187 -506t-98 -267.5q-5 -22 -70 -28q-16 -2 -28 -2 q-35 0 -42 13q-2 4 1 9q36 57 252 627q-77 -4 -268 -8q-16 -24 -113 -160q-63 -91 -116 -157.5t-126.5 -138t-146 -116t-166.5 -73.5t-196 -29q-110 0 -198.5 22.5t-159.5 70.5q-70 50 -108 134q-38 82 -38 193v6zM490 1086q4 72 24.5 131.5t57 109.5t75 84t78.5 55 q140 72 307 72q190 0 410 -78q249 -87 336 -90q9 -1 60 8q11 2 11 0q1 -3 -28 -21q-1 0 -2 -1q-46 -23 -144 -23q-154 4 -293 53q-83 29 -136 46t-138.5 35t-153.5 18h-9q-172 0 -277 -119q-58 -66 -82 -145q-16 -55 -16 -105q0 -23 4 -45q10 -71 40 -135t75.5 -108.5 t94.5 -61.5q67 -22 107 -22q21 0 35 6q16 7 17 -1q2 -10 -32 -21l-2 -1q-33 -11 -71 -11q-41 0 -85 13q-86 24 -154 81t-89 126q-21 66 -21 128q0 11 1 22zM1384 664h76q30 1 91 4t89 4q184 506 218 577q7 15 21.5 43t18.5 37q-149 -133 -514 -665z" />
<glyph unicode="B" horiz-adv-x="1808" d="M-20 238q0 141 71 191q30 21 49 13q6 -3 4 -8q-8 -15 -14.5 -44.5t-7.5 -70.5v-10q0 -36 6 -75q8 -44 32 -87t62 -77.5t103.5 -56t150.5 -21.5q74 0 136.5 16t106 34t84.5 61.5t62 68.5t49.5 88t37 85t32.5 93q17 47 25 70q225 605 360 924q-121 59 -274 59h-15 q-152 -2 -278 -39.5t-213 -101t-147 -148.5t-87.5 -180t-27.5 -197q0 -85 20 -154t51.5 -112t72 -73t79 -43t76.5 -15q18 0 21 -11q2 -5 -5 -7h-2q-24 -1 -46 -1q-206 0 -306 123q-70 86 -84 209q-4 37 -5 73q1 82 23 160q32 110 90 197q68 97 162 167t198 107t204 53 q89 15 180 15h22q56 -1 102.5 -3.5t112 -11t116.5 -22t105 -38.5t90 -58.5t59.5 -83.5t23.5 -112v-6q0 -68 -22 -128q-23 -62 -59.5 -103.5t-69 -67t-62.5 -39.5q22 -2 57 -15q256 -101 256 -395q0 -144 -68 -254.5t-183.5 -168.5t-258.5 -58q-47 0 -86 4.5t-78.5 18.5 t-67 37.5t-44.5 62.5t-17 92q0 46 38 92q33 39 70 40q6 0 11 -1q2 -1 0.5 -1.5t-4.5 -9t-6.5 -19t-6 -31t-2.5 -44.5q0 -67 54.5 -133.5t136.5 -66.5q131 1 218.5 58.5t126 154t38.5 229.5q0 146 -93.5 247.5t-230.5 106.5q-25 0 -94 -6q-38 -112 -62 -176.5t-68 -164.5 t-83 -159t-100.5 -129.5t-127.5 -109t-157 -65.5t-196 -27q-56 0 -109.5 7t-112.5 27t-103 51t-72.5 83.5t-28.5 120.5zM1225 854l20 -2q78 0 121 -4q64 30 110 112.5t46 180.5q0 131 -95 223q-65 -128 -202 -510z" />
<glyph unicode="C" horiz-adv-x="1386" d="M-32 576q-1 28 -1 54q1 67 9 125q12 81 37.5 159.5t52.5 133.5t57 101q27 40 64 81.5t97 88.5t128.5 83.5t161 61.5t190.5 27h22q96 0 185 -16q99 -18 186.5 -61t151.5 -106.5t100 -158.5q33 -88 34 -193q0 -9 -1 -18q-2 -95 -37.5 -181t-100 -155t-166.5 -110t-227 -41 q-85 0 -157 18.5t-131 56.5t-92.5 104.5t-34.5 155.5q0 112 57 203t149 105q15 2 28 2q24 0 38 -8q5 -3 2 -4q-1 -1 -2 -1q-64 -17 -105 -99q-38 -76 -38 -169v-14q2 -58 21 -112.5t54 -102.5q36 -48 98 -76q60 -28 137 -27h5q72 1 132.5 33t100.5 82t68.5 114.5t42 125.5 t16.5 118q1 11 1 22q-1 54 -13 110q-14 68 -50.5 136.5t-91.5 121.5t-142.5 86.5t-194.5 33.5q-146 -1 -267 -52t-201 -134.5t-135 -194t-79.5 -226.5t-24.5 -236q0 -129 50 -244.5t135.5 -198.5t206.5 -132t258 -50h10q81 0 153 16q77 16 120 34.5t100 49.5q13 7 35 -8 q17 -12 4 -20q-22 -14 -52 -27.5t-89 -35t-147.5 -34.5t-189.5 -14h-9q-109 0 -211 23q-106 24 -201 73t-167 133.5t-106 194.5q-29 95 -34 193z" />
<glyph unicode="D" horiz-adv-x="1660" d="M-74 14q100 76 342 77q12 0 25 -1q77 0 147 -6q29 21 55 55.5t53 93.5t43.5 100t49 131.5t47.5 129.5q133 353 207 500q96 199 244 241q16 5 43 3q19 -2 8 -11l-2 -2q-64 -51 -115 -139.5t-125 -284.5q-51 -132 -84 -215t-87 -208.5t-101.5 -207.5t-85.5 -118 q-34 -34 -84 -74q72 -7 242.5 -34t250.5 -28q118 0 209 58q95 61 167.5 192.5t104.5 265.5q28 119 27 216v24q-12 332 -190.5 513t-519.5 188q-40 0 -90 -6.5t-116.5 -25.5t-130.5 -49t-128 -81t-114 -115.5t-85 -159t-43 -205.5q-1 -17 -1 -35q0 -44 7 -90q10 -66 43 -125 t84 -73q39 -11 31 -18q-8 -6 -33 -6q-15 0 -36 2q-17 2 -29 6q-18 5 -31.5 10t-47 28t-56 52.5t-43 87t-23.5 129.5v26q1 128 45 236q50 119 135.5 199t201.5 135q117 55 241 79q120 23 243 23h10q47 -1 98 -5t137 -21.5t161.5 -46.5t157 -84.5t137.5 -129.5q58 -73 92 -187 q29 -97 29 -212q0 -20 -1 -41q-6 -151 -56.5 -298.5t-137.5 -264t-193 -172.5q-140 -72 -381 -72h-8q-136 1 -380 33q-252 34 -322 37q-11 1 -23 1q-95 0 -172 -46q-14 -8 -41 -4q-18 3 -18 11q0 7 16 19z" />
<glyph unicode="E" horiz-adv-x="1220" d="M-22 381q2 49 14 106q24 95 69.5 178.5t95.5 138.5t110.5 104t105 74.5t89.5 50t54 30.5q21 15 33.5 34.5t18.5 46.5t8 50t4.5 61t5.5 64q13 103 96 162t178 61q56 0 101 -16t72 -58q17 -26 17 -61q0 -20 -6 -43q-19 -74 -71 -104q-24 -14 -62 -8q-15 5 -14 10 q18 24 29 62q12 40 12 80t-26 70q-26 32 -74 35h-6q-36 0 -70 -37q-36 -40 -51 -98q-12 -48 -14 -115.5t-3 -72.5q-20 -88 -119 -150q-177 -111 -279.5 -229.5t-139.5 -267.5q-15 -53 -16 -106q0 -13 2 -26q4 -67 21.5 -129t54.5 -116t84.5 -93.5t111.5 -60.5 q56 -18 119 -18h18q160 6 288.5 118.5t180.5 315.5q8 37 10 80q0 9 1 17q0 35 -5 71q-6 45 -23.5 85.5t-43.5 71.5q-27 31 -67 47q-31 12 -66 12q-11 0 -23 -1q-91 -7 -165.5 -76t-111.5 -178q-11 -33 -11 -66q-1 -44 19 -87q34 -76 87 -91q11 -3 11 -7q0 -8 -55 -18h-2 q-5 -1 -6 -1q-6 -1 -13 -1q-52 0 -94 38q-47 42 -63 110q-7 31 -7 66q0 43 11 92q15 57 54 103t91 73.5t114 45.5t122 18h7q56 0 108 -7q96 -18 164.5 -84t93.5 -156q13 -47 13 -94q0 -43 -11 -86q-34 -134 -131 -238.5t-223 -156.5q-117 -49 -238 -49h-18q-96 5 -115 8 q-17 3 -39 8.5t-54.5 16t-64 24.5t-68.5 33.5t-68.5 43t-62.5 54t-51 66t-34 78.5q-13 39 -14 83v9z" />
<glyph unicode="F" horiz-adv-x="1552" d="M-20 948q0 173 79 298t211.5 186.5t304.5 62.5h8q111 -1 221 -29q114 -30 204.5 -72.5t170 -85.5t151.5 -74.5t122 -33.5q7 0 14 -1q76 0 127 40q22 16 53 16q8 0 16 -1q22 -4 20 -13l-1 -2q-29 -58 -59.5 -127t-52 -120.5t-50 -126.5t-39.5 -105.5t-36 -99.5t-25 -70h27 h4q48 1 80.5 19.5t46.5 39.5q6 8 22 9t29 -4.5t10 -14.5q-7 -18 -40.5 -61t-55.5 -43q-24 0 -72 1t-71 1q-13 -29 -39 -86q-33 -73 -50.5 -109.5t-51.5 -98.5t-61 -94.5t-70 -75.5t-87.5 -64.5t-105.5 -38.5t-131 -19h-24q-65 0 -119 14q-62 17 -99.5 47t-60.5 70 q-24 40 -30 82q-4 27 -4 53q0 15 2 31q4 42 16 76t30 57q38 51 99 51h7q21 -1 21 -6q-61 -67 -61 -197v-12q2 -60 27 -113.5t81 -91.5q55 -37 129 -37h4q47 1 91 21t78.5 48.5t68 73t56.5 84.5t47 93t37.5 87t29.5 79q9 23 28 78q-89 0 -122 2q-13 -3 -35 -26.5t-25 -25.5 q-13 -5 -51 0q-3 0 -3 4q0 13 48 78q6 8 11.5 13t9 7.5t9.5 3.5t8.5 1.5t10.5 0t12 -0.5q24 0 73 -1t73 -1q161 424 258 575q-47 -18 -105 -18q-18 0 -36 2q-96 8 -190 41t-170.5 73.5t-156.5 80.5t-181 66.5t-212 27.5q-92 0 -162.5 -33t-112 -83.5t-68 -119t-34.5 -130.5 q-8 -56 -8 -114v-14q1 -45 19 -103.5t53 -120t97.5 -107.5t140.5 -56q15 -2 39.5 -0.5t35.5 2.5t15 -2q0 -6 -16 -15.5t-47 -17.5t-64 -8h-3q-180 0 -284 119q-104 120 -104 309z" />
<glyph unicode="G" horiz-adv-x="1241" d="M-10 575q3 144 58.5 283t144.5 248.5t207.5 193.5t243.5 127q116 40 238 40h18q131 -3 241 -60q60 -31 97 -79t46 -96q8 -42 8 -76v-8q-1 -36 -10 -56q-14 -26 -29 -23.5t-27 12.5t-12 13q-2 25 -13.5 58t-40 77t-69.5 80t-111 61t-155 25q-204 -1 -353.5 -99 t-232.5 -275t-100 -421q-2 -24 -2 -49q0 -57 10 -117q14 -84 50 -165t91 -144.5t139.5 -102.5t186.5 -40q52 0 101 13t86 33.5t69.5 45t54.5 49.5t38.5 45.5t24.5 33.5l7 13q44 138 99 365q6 22 6 40t-1 26.5t-9 18t-9 10t-10 7.5q-22 20 20 21h6q58 0 133 -19l17 -6 q5 -12 -45 -156q-26 -70 -61 -191t-65.5 -217.5t-75 -205t-111.5 -199t-154 -153.5q-48 -35 -111 -38h-6q-13 0 -12 4q0 1 4 3q166 90 320 498q-122 -64 -314 -64q-319 0 -476 151q-150 144 -150 438v27z" />
<glyph unicode="H" horiz-adv-x="1779" d="M-31 256v10q1 23 7 55q8 39 22.5 76t38.5 60.5t49 17.5q8 -2 8 -11t-5.5 -25.5t-12.5 -35.5t-13 -45.5t-6 -50.5q0 -127 100.5 -222t227.5 -95q75 0 135.5 27t126.5 98.5t136 200.5t151 327q18 43 52.5 138.5t64 179t64.5 185t40 116.5q-34 -7 -131 -11h-6 q-84 -1 -232 25q-152 26 -188 29q-100 -4 -182.5 -29.5t-145.5 -73.5t-95 -124q-26 -63 -26 -140q0 -17 1 -35q11 -153 102.5 -262t222.5 -121q41 5 80 39q17 15 48 10q17 -2 16 -9q0 -2 -1 -3q-8 -19 -14 -28.5t-21 -27t-39 -27t-57 -11.5q-20 -1 -39 -1q-169 0 -282 94 q-125 106 -125 312q0 99 31 180.5t83.5 134t115.5 90.5t134 57.5t131 27.5q48 6 92 6h21q84 -3 235.5 -36t229.5 -36q26 -1 47.5 3.5t31.5 9.5t20.5 12t11.5 8q30 14 48 -1.5t11 -35.5q-1 -3 -14 -40.5t-33.5 -97t-46 -130t-56.5 -155.5t-59 -158q75 -7 275 -7q229 0 331 13 q49 115 144 338q82 194 181 327.5t196 192.5q36 21 104 37q68 15 138 18h13q62 0 110 -24q54 -28 54 -88q0 -34 -32 -57q-28 -21 -40 -3l-3 8q-12 50 -57 85.5t-103 41.5q-53 -5 -102 -31t-88.5 -62.5t-81 -98.5t-72 -118t-68.5 -142.5t-63.5 -151.5t-64.5 -165 q-34 -89 -52 -134q-268 -677 -297 -680q-12 0 -46 -2h-34q-43 0 -43 4q10 12 21.5 30.5t27.5 52t30 65t39.5 92.5t45 109t57 140t66.5 162q-109 -6 -434 -6h-172q-45 -117 -107 -237q-46 -89 -84.5 -150.5t-93.5 -125.5t-113.5 -102t-138 -62.5t-174.5 -24.5q-160 0 -263 76 t-112 229z" />
<glyph unicode="I" horiz-adv-x="915" d="M59 100q0 46 30.5 74t56.5 28t28 -1q-12 -32 -12 -63q0 -42 22 -81q40 -68 111 -71h7q77 0 161 123q25 37 52 89t57 123.5t46.5 112t47.5 121.5t32 84q180 454 344 793q-40 -10 -110 -10t-168 10q-18 2 -36 2q-51 0 -94 -14q-58 -18 -93 -50.5t-55 -75.5q-20 -44 -22 -89 v-8q0 -41 13 -79q15 -42 45 -71q51 -46 126 -46q18 0 38 3q7 1 7 -3q0 -7 -13 -16q-31 -21 -75 -21q-14 0 -28 2q-62 8 -96 38q-42 37 -60 91q-13 40 -13 80q0 15 2 30q6 56 36.5 111.5t78 97t119.5 64.5q57 18 121 19q17 0 34 -2q133 -11 206 -11q32 0 52 2q48 5 69 19 t45 13q8 0 16 -1q14 -3 14 -9l-1 -3q-129 -242 -350 -811q-85 -220 -112 -281q-155 -345 -348 -431q-69 -31 -145 -31h-9q-84 3 -130.5 40.5t-46.5 108.5z" />
<glyph unicode="J" horiz-adv-x="985" d="M-174 -289q-1 4 6 2q33 -10 94 -17q48 -5 81 -5h18q107 0 200 49q96 49 183.5 150t146 209t104.5 231q21 55 203 513t215 546q-129 -54 -332 -54q-35 0 -73 2q-40 4 -81 4q-27 0 -55 -2q-70 -4 -136 -13t-125 -36t-103 -66t-70 -104.5t-26 -150.5q0 -49 13 -101t39 -101 t72.5 -82.5t104.5 -37.5q29 -3 53 7.5t33 23.5q8 11 48 9q21 -2 20 -7q-7 -21 -47 -46.5t-103 -25.5q-110 0 -189 37t-121 116q-34 64 -34 149q0 20 2 42q9 95 47 171t97.5 126t132 84.5t158 51t166.5 21.5q42 3 85 3q40 0 80 -2q53 -3 99 -3q243 0 327 91q14 16 49 16 q27 -1 25 -16q-7 -21 -101.5 -269t-210.5 -546.5t-159 -398.5q-35 -80 -80.5 -159t-105.5 -159t-135.5 -146t-155.5 -102q-99 -47 -248 -47q-119 0 -195 29q-16 6 -16 14z" />
<glyph unicode="K" horiz-adv-x="1970" d="M141 248q0 17 2.5 33t5.5 28.5t8 26t9 22t10 19t9 15l8 12t6 8.5q13 16 25 12.5t20.5 -15t7.5 -16.5q-10 -51 -12 -105q0 -4 -1 -7q-1 -50 19 -99q20 -52 53 -93t90.5 -66.5t130.5 -26.5h8q77 0 133 18q59 19 119 74t117 144.5t133 238.5q20 39 74.5 167.5t131 312.5 t95.5 229q24 58 59.5 138t41.5 97q-54 -18 -116 -18q-10 1 -21 1q-74 4 -124 15.5t-121.5 25t-127.5 13.5q-66 0 -119.5 -8t-106 -31t-88 -60.5t-57.5 -100.5t-22 -146q0 -126 72 -204t167 -81h25q3 -6 -6.5 -11t-28 -8t-36 -4.5t-38.5 -2.5q-9 -1 -19 -1q-24 0 -49 6 q-35 8 -70.5 28t-63.5 52t-46 83.5t-18 115.5q0 92 34 167.5t90 124.5t131 83q75 32 154 46q74 13 151 13h11q79 -1 149.5 -14.5t122.5 -27.5t87 -15h16q103 0 125 37q13 21 60 23h8q35 0 36 -17q0 -3 -1 -6q-1 -2 -26 -64t-66 -161t-87 -211t-97 -232t-89 -204 q32 22 67.5 53.5t83 80t77 80t93 100.5t87.5 95q70 76 127 128t131 101.5t156.5 74t174.5 24.5q78 0 124 -33q41 -30 41 -71q0 -5 -1 -9q-4 -46 -62 -81q-40 -25 -51 -16q-2 3 -1 7q11 34 11 64q0 35 -15 63q-26 51 -76 51h-6q-62 -4 -134 -48t-145.5 -115.5t-142.5 -147 t-153 -161t-150 -138.5q-58 -48 -91 -68q13 -51 21.5 -84.5t30 -105t40.5 -121.5t49 -114t59.5 -104.5t68 -70t78.5 -32.5q22 -2 39.5 1.5t28.5 10.5t18 13t12 13.5t6 8.5q4 4 32 5q46 0 9 -38q-49 -53 -137 -53q-136 0 -217 62.5t-136 215.5q-70 197 -106 324 q-40 -25 -72 -39l-16 -33q-148 -294 -316 -434q-159 -132 -343 -131h-21q-63 3 -113.5 11.5t-101 29t-84 52.5t-53.5 84q-19 50 -19 115v7z" />
<glyph unicode="L" horiz-adv-x="1757" d="M-31 135q0 2 44.5 5.5t106.5 5.5h20q53 0 112 -7q37 21 75.5 71t69 109t68.5 149t63.5 160.5t64.5 177.5t62 167q26 68 46.5 115t52 107.5t61.5 101.5t73.5 84t90.5 67.5t109 39.5q54 13 115 13h16q111 -3 172.5 -53t62.5 -150q0 -50 -18.5 -92.5t-40.5 -66.5 q-5 -5 -37 -8q-38 -3 -34 17q0 1 1 3q11 30 12 82v9q0 48 -10 100q-11 58 -53 98q-39 37 -100 37h-9q-69 -2 -133 -54.5t-116 -140t-99.5 -193t-90.5 -224t-81.5 -224.5t-80 -202t-77.5 -148q-74 -107 -170 -158q137 -12 499 -82q357 -69 404 -69h1q85 2 152.5 24.5 t108.5 56t68 77t37 84t10 79.5q-1 69 -37 123q-36 53 -98 53h-2q-30 -1 -50 -22.5t-26.5 -56.5t-8 -50.5t-1.5 -30.5q1 -5 -9 -9q-27 -11 -55 3q-25 13 -26 43v7q0 67 58 101q62 36 149 38q89 0 154.5 -40.5t68.5 -125.5v-6q0 -108 -108 -224q-110 -120 -242 -147 q-58 -12 -201 -16q-231 0 -518 67q-310 73 -649 78q-10 1 -18.5 19.5t-8.5 27.5z" />
<glyph unicode="M" horiz-adv-x="2369" d="M4 383q24 99 89 109q25 3 34 -5l-5 -4q-4 -4 -6 -6.5t-7 -9t-7.5 -13t-6.5 -16.5t-5.5 -22t-2.5 -27t0.5 -34t4.5 -40q18 -124 140 -215q120 -90 273 -90h3q63 0 122.5 14t107.5 34.5t95.5 55.5t82 67t72 80.5t61 83t53.5 88.5t44.5 83.5t39.5 79.5q72 150 181.5 413 t143.5 357q-66 -25 -174 -25h-9q-92 0 -282 38q-198 40 -290 40q-104 -1 -181.5 -29t-124.5 -73.5t-76 -114t-39.5 -139.5t-10.5 -160q0 -113 68.5 -196t160.5 -107q29 -7 60 -7q3 1 5 1q34 0 48 4q17 4 16 -4q-3 -15 -63 -26q-52 -9 -127 -9q-65 0 -118 33.5t-84.5 86.5 t-48 112t-16.5 116q0 143 49.5 255t137.5 182t204 106q110 34 241 33h15q70 -1 312 -55q214 -47 267 -47q7 0 11 1q17 3 31.5 7.5t23 8.5t16 9t10 7.5l7.5 7.5l4 5q8 8 43 0q39 -8 25 -28q-26 -33 -46 -131q-16 -79 -16 -185q0 -26 1 -55q3 -67 11.5 -203.5t13.5 -231.5 t9 -221q2 -50 2 -88q0 -57 -4 -85q138 275 318 571q149 249 246 376q258 340 463 340q8 0 16 -1q25 -2 42 -9.5t23.5 -18t9 -21t1 -18t-4.5 -9.5q-11 -11 -30 -2q-54 27 -90 27q-98 0 -181 -76t-134.5 -188.5t-88 -245t-51.5 -242.5q-14 -103 -14 -174v-10q1 -90 15 -188.5 t47 -202t80 -186.5t120 -137.5t160 -59.5q34 1 62 10t41.5 18.5t25 20t12.5 10.5q10 8 30 -4q8 -6 8 -11q0 -2 -1 -4q-55 -75 -191 -75h-5q-72 0 -146 27q-76 28 -151.5 97.5t-121.5 170.5q-50 110 -69 254q-12 91 -12 181q0 52 4 103q11 140 37 265.5t63 224.5 q-101 -153 -246 -416q-110 -198 -204.5 -358t-114.5 -187q-33 -47 -84 -64q-32 -11 -31 5l2 6q27 50 30 194q1 27 1 57q0 128 -11 304q-3 71 -3 165t1 149.5t5 158t4 109.5q-142 -369 -193 -480q-41 -87 -76.5 -154.5t-84 -143.5t-96.5 -132t-111 -110t-130.5 -88 t-152.5 -55.5t-180 -22.5h-6q-96 0 -184 33q-91 34 -155 91.5t-94 139.5q-17 48 -17 98q0 35 9 72z" />
<glyph unicode="N" horiz-adv-x="1763" d="M-13 209v11q0 84 42 111q25 15 61 3q7 -8 2 -15.5t-13.5 -37t-6.5 -60.5q2 -33 15 -68t38 -68t69 -54t99 -21q72 1 133.5 26t111 72.5t85.5 97t75 118.5q63 109 156 331q125 296 260 664q-65 -37 -163.5 -49.5t-230.5 -15.5t-204 -13q-158 -22 -246 -120 q-76 -84 -75 -209q0 -21 2 -44q5 -51 30.5 -105t64.5 -97q40 -44 94 -68q38 -17 77 -17q16 0 33 3q32 5 33 -6q0 -7 -19 -13q-50 -16 -127 -16h-5q-66 1 -120 29q-56 30 -91 78t-53 104.5t-18 113.5q0 54 17.5 111t59.5 117t101.5 108t153 81t205.5 38q346 18 367 20 q77 8 112 34q11 8 31 26q23 21 51.5 7.5t22.5 -46.5q-5 -47 -6 -129v-14q0 -79 10 -195q11 -126 32 -225q21 -101 90.5 -353t83.5 -313q40 109 177.5 433t216.5 481q154 309 331 469q90 78 195 121t203 43q153 0 239 -86q3 -5 3 -8q0 -9 -19 -11q-28 -3 -47 8q-25 15 -75 28 t-103 13q-84 -2 -189.5 -49t-208.5 -156q-80 -85 -174 -252t-177 -354.5t-157 -366t-136 -324t-91 -191.5q-6 -10 -19 -10q-10 -1 -23 5q-31 14 -36 35q-11 50 -141 512q-32 116 -60.5 277t-41.5 315q-11 -33 -37 -111.5t-44.5 -134t-51 -142t-60 -150.5t-68 -144.5 t-79.5 -138t-89.5 -116.5t-102 -96t-114.5 -60t-129 -23q-208 0 -284 100q-44 59 -48 152z" />
<glyph unicode="O" horiz-adv-x="1327" d="M-20 666q16 228 130.5 409.5t292.5 280t383 98.5q268 0 426 -162q154 -158 154 -423v-13q-2 -130 -41.5 -260t-112.5 -243.5t-169.5 -201.5t-222 -139t-261.5 -51q-157 0 -275 56t-186 153q-68 98 -98 224q-22 94 -23 199q0 36 3 73zM121 641q-1 -15 -1 -31 q0 -65 10 -133q12 -84 45.5 -172t84 -156.5t133 -112.5t185.5 -44q104 1 203 49.5t176 131.5t136.5 188.5t91.5 225.5t34 236v20q0 277 -107 419q-111 147 -330 147q-129 -1 -245.5 -54.5t-207 -150t-146.5 -242.5t-62 -321z" />
<glyph unicode="P" horiz-adv-x="1214" d="M-35 240q-1 11 -1 21q0 30 8 58q12 37 30.5 58.5t33.5 34t23 14.5q23 5 35 4.5t14 -10.5t-1 -22t-9 -30q-6 -17 -9 -27t-6 -25.5t-3 -28.5q1 -28 10.5 -62.5t32.5 -75t56.5 -73t88.5 -54.5t121 -22q88 0 159 35.5t132.5 114t113 187t107.5 269.5q24 66 154.5 408 t161.5 420q-112 49 -271 53h-19q-122 0 -231 -35q-117 -38 -200 -106t-143 -157.5t-89 -189.5q-28 -97 -28 -195v-7q1 -99 25.5 -174t61 -113.5t72 -57t68.5 -20.5h7q20 0 62 4q4 0 4.5 -0.5t-1.5 -3.5q-8 -12 -29.5 -20.5t-46.5 -8.5q-343 8 -353 418v19q0 110 31 204 q34 102 97 177t147.5 132.5t185.5 92.5t206.5 52.5t215.5 17.5q109 0 200 -23t152 -61t103.5 -87t61.5 -100t20 -102q0 -139 -103 -225q-84 -72 -220 -72q-38 0 -81 6l-166 -430q-27 -70 -76 -144.5t-119 -148t-165.5 -121.5t-196.5 -49h-28q-55 0 -95 3q-52 4 -110.5 20.5 t-97 45.5t-67.5 83t-36 129zM1149 920q50 -20 91 -20q38 0 70 18q64 38 83 149q5 39 5 74q0 136 -79 219z" />
<glyph unicode="Q" horiz-adv-x="1400" d="M-14 700q57 358 253 559t525 201q222 0 371.5 -101t206.5 -273q35 -106 35 -229q0 -76 -13 -159q-31 -194 -140.5 -364.5t-265.5 -272.5q35 -10 74.5 -23.5t69 -24t76.5 -30t69 -29t76.5 -33t71.5 -30.5q161 -69 329.5 -115.5t268.5 -47.5q107 0 207 59q4 4 39 2 q22 -1 22 -7q0 -5 -10 -11q-101 -51 -168.5 -65.5t-188.5 -14.5q-88 0 -182.5 17t-212 56.5t-185 65t-204.5 80.5q-153 64 -244 100q-77 -36 -150 -48q-64 -11 -143 -11h-26q-188 5 -328.5 106t-202.5 271q-41 112 -41 237q0 66 11 135zM115 643q-2 -28 -2 -55 q0 -112 27 -206q33 -116 88.5 -186.5t128 -119.5t135.5 -69t120 -23q8 -1 16 -1q37 0 83 12q56 14 100 36q-47 16 -81 25.5t-83 17.5q-30 6 -57 6q-18 0 -35 -2q-43 -6 -78 -25q-15 -8 -48 -5t-5 22q53 37 148 44q36 2 69 2q55 0 103 -7q76 -11 149 -29q85 63 153.5 161.5 t107.5 203t59 202.5t20 178q0 90 -16.5 173.5t-53 160t-90 133.5t-132.5 92t-175 37h-15q-29 0 -60 -3q-39 -4 -102.5 -22t-120 -48t-119.5 -89t-109.5 -138.5t-81 -203t-43.5 -274.5z" />
<glyph unicode="R" horiz-adv-x="1818" d="M-20 283q1 21 3.5 40t5 33t6 27.5t6.5 21.5t7.5 17.5t6.5 13.5t6.5 11t5.5 8q10 16 46 20q27 3 26 -8q0 -2 -1 -4q-24 -46 -24 -129q0 -57 22.5 -113.5t64 -104.5t110 -78t151.5 -30q66 0 124.5 17t104 41t88.5 66t73.5 81t63.5 97t54.5 102.5t50.5 109.5 q99 221 207 493.5t129 360.5q-121 80 -325 80h-15q-103 -1 -200.5 -20.5t-192.5 -65t-166.5 -112.5t-118 -171.5t-51.5 -234.5v-11q0 -43 13 -93q15 -58 44 -113t80 -96t113 -50q20 -3 39 -3q26 0 51 6q12 5 13 -1q1 -3 -3 -6q-44 -22 -92 -22q-184 0 -282.5 104t-98.5 289 q0 34 6.5 75.5t29 104.5t58.5 121.5t103.5 120t155 107t221.5 74.5t296 30h16q69 0 137 -8q76 -9 157.5 -35t141.5 -66q59 -40 97 -110q35 -64 35 -147v-13q-3 -105 -65 -189t-173 -118q57 -116 74 -414q6 -97 23.5 -173t39 -119.5t49 -72t50 -38.5t43.5 -11q10 0 20.5 1.5 t18 4t17 7.5t14.5 8t13 8t9 6q14 7 60 8q25 1 25 -5q0 -1 -1 -3q-11 -15 -60.5 -37t-99.5 -22h-9q-60 1 -107 13q-51 14 -85 32t-59.5 56.5t-39 68.5t-24 87t-14 92t-8.5 104q-1 17 -2 26q-16 201 -49 356h-16q-67 -179 -185 -403q-56 -108 -120 -188.5t-146 -142.5 q-82 -60 -184 -88q-77 -21 -165 -21q-29 0 -58 2q-95 7 -167.5 35.5t-113 65.5t-65.5 83t-33 83q-7 33 -6 63v8zM1247 856q85 8 143 60q58 50 77 118q11 39 11 81q0 30 -6 62q-14 75 -63 128q-89 -235 -119 -328q-10 -32 -43 -121z" />
<glyph unicode="S" horiz-adv-x="1263" d="M-20 451q0 101 29.5 184.5t74.5 136t101.5 88.5t107.5 51t96 15q26 0 52 -3.5t55 -11.5t50.5 -26t28.5 -43q6 -19 -28.5 -37t-42.5 -6q-47 75 -134 75h-5q-37 0 -71.5 -11.5t-68.5 -39.5t-58.5 -70t-40 -107.5t-15.5 -147.5q0 -228 133 -371t358 -143q94 1 170 37.5 t123.5 92t80.5 129.5t47.5 142t18.5 137q4 60 11 181t10.5 172.5t11 138.5t15 133.5t19 99.5t26.5 90q37 90 109 122t181 32q49 0 81 -20q31 -21 40 -61q2 -10 2 -20q0 -35 -22 -81q-4 -8 -27 -13t-44.5 -3.5t-20.5 10.5v11q0 48 -23 91q-24 45 -70 45h-6q-18 -1 -33 -8.5 t-27 -22.5t-21.5 -31t-16.5 -42t-12.5 -46.5t-9.5 -54t-6 -55.5t-4 -59.5t-3 -57.5t-2 -57q-4 -122 -7 -192.5t-8 -155.5t-11 -132t-17 -105t-24 -93t-33.5 -76.5t-45 -75t-57.5 -71.5q-20 -22 -52 -46t-82.5 -53t-122 -48.5t-148.5 -20.5h-13q-94 0 -176 14q-88 15 -167 52 t-135 94t-88.5 144.5t-32.5 199.5z" />
<glyph unicode="T" horiz-adv-x="1298" d="M33 1102v6q-1 108 107 224q110 120 243 147q66 14 201 14h19q216 0 499 -66q279 -66 649 -77q10 -1 18.5 -19.5t8.5 -27.5q0 -2 -48.5 -5.5t-115.5 -4.5h-15q-60 0 -122 7q-60 -139 -101 -243q-3 -7 -24 -62t-38 -97t-45.5 -111.5t-55.5 -129t-58.5 -124.5t-64 -122.5 t-62.5 -99.5q-120 -166 -261.5 -252.5t-330.5 -93.5h-15q-157 1 -261 83q-108 86 -119 208q-1 12 -1 24q0 35 8 73q12 52 44 87q22 24 50 24q13 0 26 -5q-20 -30 -20 -94q0 -20 2 -43t9 -54.5t29.5 -79t56 -85t93.5 -65.5q58 -27 132 -26h5q354 4 592 609q226 560 272 659 q11 22 11 33q-140 11 -462 77q-317 66 -361 66h-1q-85 -2 -152.5 -24.5t-108.5 -56t-68 -77t-37 -84t-10 -79.5q0 -70 36 -124q36 -53 99 -53h2q30 1 50 22.5t26.5 56.5t8 50.5t1.5 30.5q-1 5 9 9q27 11 55 -3q25 -13 26 -43v-7q0 -68 -59 -102q-62 -36 -148 -36 q-89 0 -154.5 40.5t-68.5 125.5z" />
<glyph unicode="U" horiz-adv-x="1923" d="M24 1090q41 150 168 237q119 81 281 81q16 0 33 -1q35 -2 72 -2q78 -1 164 7q126 10 194 38q12 6 63 4q46 -1 42 -15q-1 -2 -3 -5q-133 -151 -259 -462.5t-126 -529.5q0 -178 63.5 -275t205.5 -106q60 4 115.5 28.5t98.5 58t92.5 93t85.5 111t89 133.5q222 346 504 967 q2 3 27 5q10 1 19 1q13 0 23 -2q12 2 22 2h9.5h10.5q10 0 16 -4q4 -2 5 -5q0 -1 -1 -3q-36 -81 -98 -231.5t-143 -356.5t-139 -392q-60 -192 -59 -268q1 -68 39 -114q40 -47 101 -55q10 -1 21 -1q34 0 65 15q10 5 39 4q16 -3 12 -10q-26 -31 -87 -45q-40 -9 -78 -8 q-19 0 -38 2q-26 4 -44.5 7.5t-51.5 18t-53.5 35t-37 60.5t-16.5 92q0 136 113 456q-34 -61 -54 -97t-58.5 -99t-66.5 -103.5t-72 -96t-81.5 -91.5t-87.5 -75.5t-98 -62.5t-106 -38t-117 -15q-103 0 -179 65.5t-111.5 168t-35.5 225.5q0 121 38.5 268t95.5 274.5 t115.5 230.5t106.5 161q6 6 9 12q-137 -48 -396 -53q-74 -2 -137 -21t-116 -56.5t-83 -102.5t-30 -150q0 -114 64.5 -199t148.5 -93q16 -1 44 4t34 10q6 6 33 2q19 -2 14 -10q-17 -31 -87 -47q-41 -9 -74 -9q-24 0 -44 5q-146 35 -209 164q-35 72 -35 152q0 54 16 112z" />
<glyph unicode="V" horiz-adv-x="1509" d="M-18 903q0 128 48 227.5t130.5 160.5t186.5 92t224 32q59 0 166.5 -18t155.5 -21q13 0 25 8q18 14 55 8q24 -4 22 -14l-2 -4q-11 -18 -27 -69t-33.5 -165t-17.5 -241q0 -148 18 -320t36 -300t18 -170v-7q144 139 311 388.5t285.5 510.5t118.5 406q0 81 -26 131t-68 59 q-17 3 -12 13q4 8 22 8q109 0 156 -59t47 -179q0 -46 -13 -103t-32 -109.5t-50 -117.5t-56.5 -112.5t-64 -111.5t-59.5 -96.5t-55.5 -85.5t-40.5 -62q-85 -135 -150 -217q-140 -176 -360 -375q-13 -13 -44 -13q-3 1 -7 1q-37 2 -37 22v16q0 102 -30 394q-34 318 -34 460 q0 141 16 252.5t29 149.5t21 51q4 4 4 8q-46 -10 -141 -10q-38 0 -112 4t-101 4q-420 -4 -420 -381q0 -113 62.5 -215.5t158.5 -146.5q22 -9 53 -16.5t66.5 -9.5t52.5 13q17 13 28 1q2 -4 1 -7q-21 -43 -150 -43q-167 1 -270.5 106.5t-103.5 272.5z" />
<glyph unicode="W" horiz-adv-x="1941" d="M-33 924v12q0 115 36 205q38 94 109.5 152.5t167.5 87.5q93 28 208 28h8q50 -1 140 -11t122 -12q3 0 8.5 0.5t8.5 1t8 2t11.5 6t14.5 11.5q9 6 45.5 2.5t28.5 -20.5q-10 -23 -23.5 -144t-13.5 -219q0 -77 40.5 -455.5t41.5 -410.5q166 302 344 628q-8 109 -8 215v7 q0 104 14 230q14 130 47 190q4 7 31.5 8.5t52.5 -2t23 -9.5q-39 -136 -39 -311q0 -65 19 -265t47 -459t30 -275q60 91 88.5 135.5t89 143.5t93.5 163t78.5 163t69.5 177.5t42 172.5t18 179q0 224 -115 224q-9 0 -9 6t7 6q31 -3 58 2q11 2 21 2q56 0 106 -55q59 -65 59 -183 q0 -184 -69 -377.5t-144 -308.5q-39 -60 -216.5 -308.5t-201.5 -287.5q-8 -13 -28 -21q-19 -8 -35 -8h-1q-16 0 -20 9q-9 142 -26 277t-42 282.5t-26 155.5q-68 -145 -162.5 -305.5t-148.5 -242t-78 -112.5q-8 -11 -27.5 -13t-35 1.5t-15.5 5.5q-2 80 -52 481.5t-50 534.5 q0 70 11.5 177t19.5 134q-24 -4 -46 -4q-16 0 -30 2h-9q-39 0 -121 14q-86 15 -129 15h-5q-44 -1 -88.5 -12.5t-91.5 -40t-82 -71t-55 -112.5q-16 -56 -16 -125q0 -17 1 -35q7 -126 93 -218.5t175 -100.5q34 -3 45 8q12 15 48 9q25 -4 23 -15l-1 -4q-19 -25 -83 -33 q-42 -5 -79 -5q-20 0 -39 1q-122 8 -205 95t-86 229z" />
<glyph unicode="X" horiz-adv-x="1783" d="M-16 100q-1 9 -1 17q0 44 23 71q8 8 27.5 12t34.5 2.5t14 -5.5q-12 -30 -12 -58q2 -43 43 -83q37 -37 85 -36h9q39 3 84 25t85.5 53.5t89 82.5t85.5 95.5t85.5 110.5t78.5 109.5t75.5 109t65.5 94.5q-16 48 -40.5 129.5t-41.5 136t-41 125t-45.5 117.5t-48 91.5t-56 68.5 t-61.5 29q-26 4 -45 -22.5t-28 -55.5q-3 -9 -19.5 -10.5t-32 3.5t-14.5 11q2 13 9.5 28.5t23.5 37.5t48 37t75 16h12q47 0 89 -14q47 -16 80.5 -43.5t63.5 -70.5t49.5 -85.5t39 -98.5t31 -99.5t27 -100t25.5 -88.5q24 34 65 94t72 106t77 106.5t87 106t95.5 92.5t108 77.5 t119.5 49.5t134 19q41 0 71 -17.5t43.5 -44.5t19.5 -52q5 -21 5 -41v-7q-1 -12 -17.5 -23.5t-31.5 -13.5t-20 6q-38 117 -130 117h-9q-179 -11 -518 -457q-48 -62 -144 -196q12 -36 34 -107.5t37.5 -123t41.5 -122.5t49.5 -122.5t57 -107t68 -90.5t79.5 -58.5t94 -24.5h10 q34 0 60 11q30 13 46.5 32t27.5 44.5t14 42.5t4 32q1 12 1 22q0 71 -40 105q-10 7 12 13q30 7 47 3q11 -3 22.5 -10t26.5 -30t19 -56q2 -18 2 -34q0 -52 -22 -93q-28 -54 -80 -82q-53 -26 -113 -38q-42 -8 -84 -9q-18 0 -37 2q-143 12 -252 161.5t-227 498.5 q-44 -60 -109.5 -155.5t-117.5 -167t-103 -132.5q-173 -209 -356 -209h-5q-196 0 -206 141z" />
<glyph unicode="Y" horiz-adv-x="1484" d="M-14 -201q0 53 18.5 101.5t43 80t57 59t53.5 40t39 20.5q25 11 48 11q11 0 22 -3q23 -7 -4 -20q-6 -3 -13 -6q-23 -8 -43.5 -23t-43.5 -42.5t-36.5 -74.5t-13.5 -108q0 -59 21 -110.5t56.5 -88.5t81 -63.5t95.5 -39.5t100 -13q70 1 137.5 32.5t122.5 85.5t100.5 120.5 t79.5 142.5q61 137 79 316q8 80 8 160q0 99 -12 198q-23 179 -70 347.5t-113 305.5q-73 151 -164 232t-176 81q-71 0 -114.5 -67t-43.5 -158q0 -39 8.5 -71.5t20.5 -50.5t24 -31t19 -18.5t6 -6.5q-8 -8 -33 -12t-47 1q-50 14 -81.5 50t-31.5 120q0 62 24 113.5t61 83.5 t83 54t87.5 31t76.5 9q105 0 193 -45t149 -122.5t108.5 -180t73.5 -220t41 -239.5t15 -241t-8.5 -222.5t-26.5 -185.5q19 40 59.5 128.5t77.5 169t91 191t103.5 206.5t111.5 203t119 192.5t122.5 163.5t125.5 127t123 72q41 16 80 16q21 0 42 -5q66 -15 72 -58q1 -5 1 -9 q0 -14 -8 -18q-4 -3 -6 3q-8 12 -30 21t-56 4q-78 -12 -176 -110t-189 -237t-192.5 -320t-181 -340t-162 -318t-127.5 -233q-82 -137 -109 -175q-232 -337 -522 -337q-84 0 -159 17t-141.5 53.5t-106 103.5t-39.5 157z" />
<glyph unicode="Z" horiz-adv-x="1386" d="M-16 4q-1 2 -1 4q1 4 3 6q4 4 8 4q126 17 309 275q83 116 207.5 305t210 318.5t192 263.5t193.5 204q41 35 24 48q-559 -50 -679 -109q-104 -51 -148 -129q-10 -17 -50 -11q-24 4 -22 13q1 1 6 11.5t9.5 18.5t12 22.5t15 26t17 26.5t18.5 27t19 23t20.5 19.5t20.5 13.5 q32 15 118.5 28t221.5 23.5t224.5 16.5t236.5 13.5t149 7.5h3q18 0 17 -10q-3 -10 -20 -21q-95 -60 -270 -281t-310 -436q-24 -38 -70.5 -113t-74 -118t-70 -108t-74.5 -106.5t-70 -87t-73 -76t-69 -48.5q-12 -6 -16 -14.5t1 -12.5q94 27 328 27q51 0 127.5 -8t129.5 -14 q22 -2 46 -2q36 0 76 5q68 8 127 35q30 14 55.5 29t42 28t30.5 28.5t21 25.5t13 24t7.5 20t3.5 17l3 12q7 20 40 -3t35 -46q0 -5 -1 -8q-57 -168 -314 -199q-121 -14 -573 -14q-95 0 -197.5 0.5t-165.5 1.5h-63q-8 0 -10 4z" />
<glyph unicode="[" horiz-adv-x="933" d="M-141 -213l1233 1935h417l-24 -77h-291l-1147 -1780h283l-19 -78h-452z" />
<glyph unicode="\" horiz-adv-x="950" d="M217 1458h109l678 -1491h-109z" />
<glyph unicode="]" horiz-adv-x="796" d="M-254 -213l25 78h290l1147 1780h-282l18 77h453l-1233 -1935h-418z" />
<glyph unicode="_" horiz-adv-x="1024" d="M0 -123h1024v-82h-1024v82z" />
<glyph unicode="`" horiz-adv-x="454" d="M169.5 1067q4.5 31 22.5 46t44 15q24 1 40.5 -11.5t24 -35t10 -42.5t2.5 -44q0 -34 10 -56.5t22.5 -29.5t21.5 -14t8 -14q-3 -11 -22.5 -12.5t-39.5 5.5q-27 8 -63.5 37t-59.5 76q-25 49 -20.5 80z" />
<glyph unicode="a" horiz-adv-x="761" d="M-22 227q4 66 35 143.5t85 149.5q48 64 139 115.5t189 67.5q28 4 54 4q67 0 126 -29q6 15 36.5 20.5t57.5 2t25 -10.5q-5 -14 -31.5 -85.5t-61.5 -175.5t-48 -155q-25 -84 -25 -154v-15q3 -76 47 -80q12 -1 24.5 3.5t23.5 13t18.5 16t14.5 16.5l7 8q6 6 42 2 q27 -3 27 -12q0 -4 -5 -9l-10 -11q-10 -10 -23.5 -21t-34 -23t-50 -20t-62.5 -8q-75 0 -107 25.5t-33 98.5q0 23 2 35q-64 -90 -137 -127q-61 -31 -145 -31q-16 0 -33 1q-51 4 -87 37t-50 87q-11 42 -12 90q1 15 2 31zM102 186q7 -66 34.5 -104t66.5 -41h6q49 -1 106 61 q61 66 111.5 164t84.5 176t52 131q2 6 2 11q-1 24 -31 48q-38 30 -96 30h-6q-74 0 -140 -46q-68 -48 -111 -121.5t-65 -156.5q-16 -61 -17 -114q1 -20 3 -38z" />
<glyph unicode="b" horiz-adv-x="811" d="M395 1006q69 170 148.5 297t147.5 196.5t141.5 111.5t124 54t100.5 12q33 0 66.5 -5t75 -18.5t69 -45t30.5 -76.5v-1q0 -19 -29 -40q-32 -23 -43 -5q-2 3 -3 7q-4 17 -16.5 41.5t-34.5 51.5q-22 26 -58 44q-30 15 -64 15h-12q-56 -3 -113.5 -39t-107 -90.5t-99 -128.5 t-87.5 -145.5t-74.5 -150t-58.5 -133t-41 -103t-21 -52.5q-39 -88 -118 -300.5t-91 -291.5q-2 -14 -2 -27q-1 -62 43 -114q52 -62 109 -64h8q129 0 207 152q67 131 68 265q0 27 -3 54q-16 163 -116 174h-7q-65 0 -131 -106q-8 -13 -32 -6q-17 6 -13 16q36 83 106 119 q54 28 121 28q20 0 42 -2q95 -12 135 -120q21 -60 22 -128q0 -64 -19 -135q-43 -165 -158 -257q-98 -76 -224 -78q-156 0 -223 75q-19 -49 -21 -53q-7 -13 -40 -18q-33 -6 -62 -2q-27 3 -27 9q0 74 385 1013z" />
<glyph unicode="c" horiz-adv-x="626" d="M-20 250q0 53 16.5 114t51.5 122.5t83.5 110t120.5 77.5q65 26 139 26h15q23 -1 47.5 -4.5t58 -16.5t58.5 -33t42 -56q15 -33 15 -74v-10q-2 -22 -37.5 -24t-40.5 20q-12 58 -68 109q-53 48 -119 48h-8q-73 -2 -129 -58.5t-84 -141t-28 -178.5q0 -115 69.5 -182.5 t165.5 -69.5h6q67 0 135 61q15 14 51 -6q18 -10 13 -14q-97 -82 -274 -86h-8q-55 0 -103 13q-52 14 -95 44t-68 83.5t-25 125.5z" />
<glyph unicode="d" horiz-adv-x="665" d="M-16 190q15 117 62 215.5t111.5 162t138.5 98.5t146 36q23 0 47.5 -3t57.5 -18t47 -40q3 -6 3 -14q0 -20 -18 -51q-21 -37 -34 -26q-2 3 -4 7q-8 22 -14 35t-19.5 33.5t-34 30t-47.5 8.5q-66 -4 -133.5 -72t-113.5 -166t-60 -195q-4 -30 -4 -55q0 -54 18 -92 q27 -56 80 -57h4q82 0 176 123q212 275 262 712q9 77 9 145q0 51 -5 97q-12 108 -45.5 184t-85.5 116q-50 40 -109 40h-3q-62 0 -114.5 -43t-77.5 -101q-22 -50 -22 -102q0 -8 1 -16q4 -62 43 -95q9 -7 24 -16q14 -10 9 -12q-27 -9 -69 -9q-16 0 -34 1q-42 3 -68 28.5 t-31 65.5q-2 14 -2 28q1 27 7 57q10 44 39 90t72 79q99 76 245 76q130 0 214.5 -64t115 -168.5t30.5 -235.5t-35.5 -271t-86.5 -268t-119.5 -233t-138.5 -161q-107 -86 -256 -90q-181 0 -181 163q0 20 3 43z" />
<glyph unicode="e" horiz-adv-x="620" d="M-14 215q3 82 40 169.5t96 157.5t141 114q80 44 163 44h4q55 0 93 -28q34 -25 35 -75q0 -5 -1 -11q-4 -50 -42 -103t-86.5 -92.5t-114.5 -80t-108.5 -61.5t-86.5 -40q14 -80 73 -135.5t119 -55.5h5q59 0 106 24q49 26 102 71q20 16 58 16h5q25 0 25 -10q0 -3 -2 -6 q-8 -9 -29 -26t-59.5 -43t-96.5 -44t-118 -18q-55 0 -97.5 4.5t-87.5 19t-73.5 39.5t-46.5 68q-16 39 -16 90v12zM115 256q52 27 98 57t94 69.5t77.5 86t33.5 92.5q1 8 1 15q0 27 -9 46q-11 24 -33 27q-4 1 -9 1q-48 0 -106 -72q-64 -78 -105 -171.5t-42 -144.5v-6z" />
<glyph unicode="f" horiz-adv-x="442" d="M-326 -526q56 29 122.5 132.5t134 260t120.5 293t115 307t84 225.5q73 186 120.5 298.5t109.5 242t113.5 201.5t115.5 138t134 93t152 27q67 0 129 -22.5t88 -61.5q29 -43 34 -90q2 -17 2 -31q0 -25 -6 -43q-8 -28 -19 -39q-12 -13 -24.5 -15.5t-19.5 2.5t-8 13 q-3 49 -20.5 90t-41.5 67t-52 43.5t-52.5 24.5t-43.5 6q-51 -3 -100 -33.5t-84.5 -70.5t-74.5 -107t-62 -114.5t-56 -122.5q-16 -38 -195 -500q3 -4 29.5 -2.5t30.5 0.5q8 1 15.5 3.5t13.5 6.5l10.5 7t9 8t7 7.5t6 7t3.5 5.5q7 7 38 7q24 0 21 -11q0 -3 -2 -6 q-7 -10 -20 -36t-24 -45t-17 -22q-12 -4 -150 -4q-274 -707 -397 -909t-235 -250q-5 -4 -14 -4q-12 0 -31 9q-12 6 -12 10q0 2 3 4z" />
<glyph unicode="g" horiz-adv-x="714" d="M-1143 -504q-2 25 -2 48q0 101 45 182q57 98 131 122q26 9 49 9q17 0 32 -5q24 -7 -1 -18l-10 -4q-21 -7 -45 -26.5t-48 -51.5t-38 -83q-11 -40 -11 -84q0 -12 1 -25q4 -53 23 -106.5t57.5 -107t92.5 -95t134 -67.5q77 -24 167 -24h7q99 1 191.5 25.5t168 62.5 t147.5 98.5t126.5 119t109.5 139t91.5 143.5t77 147.5t63 136.5t51.5 124q-64 -89 -123 -129q-57 -39 -170 -43h-8q-173 0 -178 174v11q0 119 64 239q66 126 183 209t246 83q104 0 164 -47q2 3 16 18t19 21q6 7 34 8q4 1 8 1q24 0 44 -9q16 -7 16 -19q0 -4 -2 -9 q-2 -6 -41 -120t-72.5 -206t-96.5 -239.5t-128 -272.5q-66 -126 -141.5 -230t-170.5 -193t-201.5 -150t-234.5 -95.5t-269 -34.5q-79 0 -151.5 10.5t-146 37t-129 67.5t-94.5 107t-47 151zM104 217q6 -86 38 -138t83 -52q31 1 59.5 16.5t55.5 48t45 60t45 73.5 q106 191 148 303q4 11 4 23q0 30 -27 64q-36 44 -89 44h-7q-56 -2 -121.5 -43t-118.5 -102t-87 -142q-29 -70 -29 -136q0 -9 1 -19z" />
<glyph unicode="h" horiz-adv-x="823" d="M124 366q95 259 150 394q67 165 134.5 301t126.5 229.5t119 164.5t109 113t98.5 67.5t87 34.5t75.5 9q37 0 74 -6t80.5 -22t76.5 -51.5t45 -86.5q2 -6 2 -12t-2 -11q-3 -10 -10.5 -15t-17 -8t-20.5 -3t-20 2t-15.5 6t-8.5 9q-23 71 -73 119q-46 45 -112 45h-11 q-52 -2 -105 -34.5t-98.5 -80t-94.5 -123t-85.5 -144t-80 -164t-71 -161.5t-63.5 -158q-15 -37 -50.5 -127.5t-50.5 -126.5q-16 -38 -32 -82q48 64 83 102.5t84 77.5t107 57t129 19h3q74 0 97 -55q13 -29 12 -64q0 -32 -10 -69q-1 -5 -48 -119t-78 -217q-20 -65 -20 -99 q0 -19 7 -28q23 -33 60 -33q21 -2 47 15q16 16 53 7q15 -6 14 -11q-45 -45 -123 -45q-33 0 -55 1.5t-49.5 8.5t-44 19.5t-28 36.5t-11.5 58q0 48 25.5 123t61.5 156t42 98q20 58 20 100q1 11 -1 23q-8 48 -44 49q-77 0 -204 -155q-32 -39 -65 -87t-68.5 -110.5t-56 -99 t-59.5 -111.5t-46 -88q-7 -14 -41 -19q-32 -5 -62 -1q-28 4 -28 9z" />
<glyph unicode="i" horiz-adv-x="354" d="M31 84q0 -39 26.5 -64t64.5 -33q29 -6 59 -6q9 1 19 1q40 2 68 14q39 16 56 45q2 3 -5 5q-27 11 -57 2q-9 -3 -14 -7l-8.5 -8.5l-10 -10t-9 -7.5t-11.5 -6.5t-10 -0.5q-35 3 -35 70q0 15 8 46t23.5 75.5t30 83t35 94t30.5 82.5q5 15 19 51.5t20 58.5t6 41 q-1 44 -34.5 69.5t-78.5 27.5h-14q-130 0 -160 -91q-4 -15 19 -20q31 -6 46 9q4 6 5 11q2 18 18.5 39.5t36.5 18.5q28 -3 30 -53v-5q0 -48 -26 -108q-147 -337 -147 -424zM301 912q3 37 42 64q26 18 54 19q7 0 15 -2q43 -7 43 -44q0 -39 -39 -67q-26 -17 -54 -17q-8 0 -16 1 q-47 7 -45 46z" />
<glyph unicode="j" horiz-adv-x="282" d="M-497 -659q15 -10 35 -10q14 0 30 4q8 2 16 6q58 25 108 56.5t89.5 63.5t78 78t67 86.5t64 104t61 114.5t65.5 133q24 49 70 164.5t85.5 222.5t75.5 205.5t37 100.5q9 24 -30 31q-20 4 -39 4q-23 0 -46 -6l-4 -1q-77 -28 -205 -55q-22 -5 -11 -36q12 -33 39 -44 q16 -6 30 2q18 9 110 68q0 -19 -12 -53q-147 -414 -244 -641q-101 -235 -210 -377.5t-255 -200.5q-12 -5 -12 -10t7 -10zM333 934q5 30 37 46q16 8 32 8l10 -1q30 -4 30 -30v-6q-4 -31 -35 -48q-14 -7 -30 -7q-6 0 -12 1q-33 5 -33 29q0 4 1 8z" />
<glyph unicode="k" horiz-adv-x="903" d="M-33 -6q3 5 78.5 203.5t160 419t97.5 255.5q154 402 324.5 619t345.5 217q55 0 92 -7t73 -27q36 -19 58 -61q29 -56 29 -107q0 -11 -17 -18q-18 -7 -37.5 -4t-21.5 15q-5 20 -12.5 39.5t-23 44.5t-34.5 43t-49 30q-28 11 -60 11h-5q-58 -3 -116 -41.5t-106.5 -98 t-98.5 -146t-88 -170.5t-79 -188t-68.5 -181.5t-58.5 -167.5t-47 -131q99 120 227 159q23 6 44 6q36 0 68 -18q44 -25 43 -81q0 -9 -1 -19q-1 -15 -11.5 -39.5t-36 -61.5t-81 -71t-131.5 -51q-2 0 16 -42.5t49.5 -107.5t59.5 -115q29 -54 81 -72q18 -6 36 -6q33 0 65 23 q39 31 55 85q8 29 8 53q0 20 -6 36q-6 17 18 19q6 1 12 1q29 0 54 -21q18 -14 21 -34q2 -13 2 -26q1 -70 -61 -120q-72 -58 -181 -58q-45 0 -80 5t-60.5 12t-47 23.5t-35 30t-29.5 42.5t-25.5 50t-26.5 62q-12 29 -19 45q-25 56 -39 79t-31 27q-35 -61 -84 -181t-78 -173 q-11 -22 -71 -22h-15q-48 3 -45 12zM283 389q21 -3 40 -3q100 0 167 77q52 59 54 124v5q0 46 -33 50h-5q-42 0 -113 -77q-10 -11 -20 -24t-22 -33.5t-20 -33.5t-24.5 -42.5t-23.5 -42.5z" />
<glyph unicode="l" horiz-adv-x="354" d="M124 403q152 400 177 469q43 115 90.5 216.5t118 211.5t146.5 188.5t175 129.5t205 51q254 0 299 -201v-5q0 -18 -27 -42q-35 -30 -53 -10q-6 8 -8 21q-5 31 -20 61.5t-41.5 60t-70.5 50t-99 24.5q-151 -11 -273 -162q-34 -42 -70 -98t-68 -118t-59.5 -117.5t-55 -120 t-42.5 -101.5t-34 -84.5t-19 -48.5q-57 -146 -130.5 -338t-118.5 -312t-48 -126q-10 -21 -63 -21q-11 0 -23 1q-45 3 -45 11z" />
<glyph unicode="m" horiz-adv-x="1212" d="M-24 8q6 14 18 43.5t24 59.5q84 207 123 325q29 87 29 154v11q-2 71 -37 73q-25 2 -40 -16.5t-19 -41.5t-2 -45q2 -15 -19.5 -21t-44.5 0t-26 21q-2 8 -2 16q0 51 70 88q58 31 119 31q22 0 45 -4q83 -16 83 -96v-2q0 -61 -41 -186q182 266 338 284q10 2 21 2t23 -2 q25 -5 47 -13.5t34 -33t6 -59.5q-14 -84 -51 -176q91 128 115 157q106 127 203 127h11q8 0 17 -2q45 -8 70 -33q24 -25 32 -55q4 -16 5 -37q1 -18 -3 -40q-6 -47 -17 -85t-30 -94q-3 -10 -15 -40.5t-21 -56.5t-20 -61.5t-14.5 -64t-2 -55t15.5 -42.5t39 -20q8 -1 16 1t15 7 t11.5 9t10.5 11t8 9q13 13 58 9q23 -3 22 -9q-46 -74 -157 -74q-16 0 -33 1q-67 7 -103.5 30.5t-40.5 77.5v9q0 39 20 105q24 74 53.5 145.5t54.5 140t25 113.5t-36 50h-5q-36 0 -106 -78q-74 -84 -159.5 -216.5t-135 -212.5t-85.5 -144q-9 -17 -64 -20h-14q-43 0 -44 17 q0 2 1 5t43 105.5t83.5 207t53.5 142.5q24 78 26 127t-22 53q-14 1 -29 -6.5t-38 -30.5t-33.5 -35t-42.5 -49q-43 -48 -103.5 -145t-102.5 -173.5t-106 -195.5q-12 -23 -64 -23q-10 0 -21 1q-44 3 -44 11q-1 1 5 15z" />
<glyph unicode="n" horiz-adv-x="774" d="M-27 8q5 14 16.5 44t22.5 59q98 253 123 327q40 118 40 179q0 33 -12 50q-17 22 -43 -2q-31 -29 -31 -76v-3q1 -4 1 -8q1 -14 -20 -19.5t-43.5 0t-24.5 19.5q-1 8 -1 16q0 56 69 93q53 28 107 28q27 0 54 -7q78 -20 78 -96v-8q-2 -48 -84 -248q164 252 303 322 q40 19 92 25q11 1 22 1q40 0 74 -18q42 -22 42 -71v-5q-1 -22 -9 -54.5t-17.5 -59t-26.5 -72.5t-25 -70q-58 -172 -70 -251q-4 -23 -3 -40q0 -41 20 -47q14 -6 39.5 5t35.5 24q9 11 40 5q12 -4 12 -9q-26 -41 -91 -57q-28 -7 -55 -8q-36 0 -68 12q-58 22 -61 80v6 q0 34 20 102q22 74 48.5 150t48.5 150q18 62 18 106q0 8 -1 16q-4 48 -42 49h-2q-26 -1 -58 -21q-33 -22 -71 -66t-69.5 -86.5t-73 -109t-63.5 -104.5t-58 -100q-18 -31 -45.5 -89t-32.5 -67q-11 -22 -71 -22h-15q-45 3 -45 11z" />
<glyph unicode="o" d="M-20 221q1 86 29.5 170.5t78.5 153.5t127 112t166 43q72 0 126 -13t97.5 -42.5t65.5 -82.5q24 -55 24 -131q0 -200 -135 -325q-134 -124 -332 -124h-6q-241 0 -241 239zM98 293q0 -113 54.5 -194t138.5 -81q101 0 172.5 88t89.5 222q4 30 4 58q0 94 -43 170 q-55 98 -150 97h-2q-65 0 -117 -32.5t-83 -85.5t-47.5 -115.5t-16.5 -126.5z" />
<glyph unicode="p" horiz-adv-x="743" d="M-406 -807q84 54 156 229q14 34 104 248.5t151 366.5t121.5 332.5t66.5 259.5q2 21 -5 39t-18 18q-14 0 -33.5 -18t-23.5 -39q-2 -7 -19 -7t-32.5 5.5t-14.5 13.5q6 35 38 58t69 30q22 4 43 4q14 0 28 -2q93 -16 93 -110q0 -39 -17 -93q-10 -30 -18 -55q33 48 50.5 72 t50 59.5t60 52.5t68.5 30t88 13q37 0 64 -15t41 -35.5t22 -53t10 -57.5t2 -58q0 -62 -18.5 -131.5t-55.5 -135.5t-86 -118.5t-115 -83.5q-62 -30 -129 -30h-9q-86 2 -116 13q-46 16 -79 64q-12 -32 -35 -96t-42.5 -119.5t-49 -130.5t-57 -137.5t-63 -130t-70.5 -118.5 t-76.5 -93.5t-83.5 -64.5q-8 -4 -37 -4h-12q-28 1 -28 10q0 7 17 18zM182 141q0 -4 2 -14q4 -13 14 -32t25 -36.5t40 -29.5q23 -11 51 -11h5q67 2 125 49.5t93 115t55 136t20 119.5q0 100 -27.5 148.5t-62.5 48.5q-77 0 -223 -250q-32 -54 -61 -113.5t-42 -90.5 q-14 -37 -14 -40z" />
<glyph unicode="q" horiz-adv-x="755" d="M-20 172q0 53 20.5 121t63.5 140t100.5 132t139.5 98.5t173 38.5h25h26q83 0 134 -40l18 30q4 4 28.5 7t36.5 -3q20 6 41 4q15 -2 15 -11q0 -3 -2 -7q-44 -79 -127.5 -284.5t-162.5 -413t-93 -240.5q-207 -479 -207 -613v-10q7 -59 -4 -61q-7 0 -17.5 13.5t-15.5 37.5 q-5 26 -5 53q0 21 3 43q1 9 6 31t6 27q-24 -89 -24 -134v-10q7 -59 -4 -61q-7 0 -17.5 13.5t-15.5 37.5q-5 26 -5 53q0 21 3 43q21 119 106.5 354.5t247.5 645.5q-173 -225 -323 -225h-13q-8 0 -12 2q-14 -2 -39 -2q-106 8 -106 190zM63 326q35 95 100.5 180.5t153.5 136.5 l-6 -2q-78 -40 -149.5 -124t-98.5 -191zM100 215q0 -71 27.5 -118t67.5 -58q53 12 112 65t102.5 113.5t87.5 138t62 114.5t31 67q10 20 10 38q0 42 -57 70q-44 21 -86 27q-42 -5 -95 -31q-45 -24 -89 -63t-84 -92t-64.5 -124.5t-24.5 -146.5zM258 41q113 36 240 233 q25 64 25 78q0 3 -1 4l-4 -4q-126 -214 -260 -311z" />
<glyph unicode="r" horiz-adv-x="618" d="M48 171q58 150 91 243q31 91 35 163v18q0 56 -20 71q-37 -15 -38 -56q0 -4 1 -8q1 -13 -18 -17.5t-39.5 1t-22.5 16.5q-1 4 -1 7q0 31 47 65q52 38 103 37q31 0 53.5 -8t34 -23.5t17.5 -34t4 -43.5t-5.5 -48t-12.5 -51.5t-16 -50t-16.5 -47.5t-13.5 -40q174 335 326 335 q95 0 122 -51q8 -16 8 -35q0 -41 -40 -94q-6 -9 -39 -3t-33 22q0 30 -12 55.5t-43 21.5q-20 -2 -42 -17t-45.5 -44t-43 -57t-45.5 -74.5t-43 -77.5t-45 -85t-41 -79q-47 -90 -90 -176q-8 -16 -46 -21q-21 -3 -41 -3q-16 0 -30 2q-31 4 -31 9z" />
<glyph unicode="s" horiz-adv-x="645" d="M-12 187q4 48 28 92q18 32 62 38q35 5 39 -13q1 -8 -6 -19q-13 -19 -14 -52q0 -3 -1 -6q0 -30 10 -62q10 -35 29 -67t49.5 -53t65.5 -22h2q62 1 100 57q38 58 39 121q0 21 -18.5 126.5t-18.5 143.5q0 69 23 118t59 71t67 31t60 9q9 0 23.5 -3t38 -11.5t45 -30t32.5 -51.5 q2 -6 2 -11q0 -15 -16 -27q-22 -16 -44.5 -17t-25.5 4q1 7 1 14q1 42 -31 70q-22 20 -46 20q-15 -1 -30 -9q-39 -20 -39 -93q0 -47 23 -163t24 -134q1 -12 1 -23q1 -45 -15 -84q-20 -49 -55.5 -82t-82 -55t-97.5 -30q-31 -4 -61 -4q-20 0 -40 2q-68 8 -112 40q-46 31 -60 74 q-11 33 -11 69q0 11 1 22z" />
<glyph unicode="t" horiz-adv-x="413" d="M-18 111q0 55 48 193q48 140 94 249.5t52 118.5q-11 -1 -39 -0.5t-39 -1.5q-21 -3 -23.5 8.5t17.5 23.5q18 12 49 35.5t55.5 43.5t52.5 43t32 26q37 33 69 33q7 0 14 -2q19 -4 15 -15q-2 -5 -15.5 -39t-32.5 -82t-32 -81q8 0 22 -0.5t26 -0.5t22 1q18 2 67 51q5 5 38 9 q31 5 31 -7q0 -3 -1 -6l-2 -4q-4 -6 -16.5 -23t-28 -36.5t-19.5 -24.5q-19 -19 -51 -19h-115q-79 -186 -139 -373q-23 -71 -23 -118q0 -93 87 -99q14 0 39 7t38 14q11 8 32 -3q16 -9 5 -18q-40 -32 -125 -32q-40 0 -69 3.5t-63 15t-52 39.5q-20 28 -20 71z" />
<glyph unicode="u" horiz-adv-x="727" d="M-22 86q4 40 14 88q13 50 57 159.5t55 141.5q18 51 27.5 80t16.5 57.5t5 41.5t-12 14q-26 4 -45.5 -23.5t-17.5 -52.5q1 -14 -16.5 -19.5t-36.5 -1t-21 16.5q-2 9 -2 17q0 49 64 77q52 23 98 24q18 0 35 -4q39 -9 57 -26q17 -16 16 -57q0 -20 -10 -58q-10 -34 -28 -82.5 t-34 -90t-41 -104t-38 -96.5q-9 -23 -14.5 -50.5t-5.5 -55t12.5 -47t36.5 -21.5q19 -1 38 6t38.5 24.5t35 33.5t36 44.5t31.5 45t30.5 48t25.5 40.5q30 47 87.5 151.5t96 177t47.5 91.5q8 16 46 22q23 3 45 3q14 1 26 -1q33 -4 31 -10q-11 -18 -195 -534q-12 -36 -12 -65 t12 -53q16 -28 40 -28q12 0 27 7q16 9 32 24q7 7 42 6q13 -2 13 -6q-45 -63 -133 -74q-13 -2 -24 -2q-71 0 -109 57q-19 29 -19 78q0 65 33 168q-24 -40 -39.5 -64t-42 -60t-47.5 -57.5t-51.5 -46t-60.5 -36.5q-28 -12 -66 -18q-21 -4 -44 -4q-17 0 -34 2q-60 7 -86 35 q-23 25 -23 58q1 4 1 9z" />
<glyph unicode="v" horiz-adv-x="657" d="M-23 530q-1 5 -1 11q0 27 32 59q53 49 121 49h8q98 0 139 -92q38 -85 46 -227q3 -53 4 -101q0 -77 -9 -137q285 258 285 451q0 14 -2 31.5t-7.5 43t-20.5 42.5t-37 18q-15 0 -20 10q-3 7 8 9q2 1 3 1q25 5 48 5q48 0 85 -23q54 -34 54 -117q0 -184 -273 -434 q-160 -148 -186 -154t-38.5 -6.5t-12.5 6.5q0 1 1.5 28.5t2.5 65.5q1 37 1 83q0 8 1 16q-1 38 -3 80q-2 50 -7 86q-2 12 -5 35q-5 38 -8 57t-9 50.5t-12.5 48.5t-15.5 36t-21.5 28.5t-27.5 12.5q-18 3 -31 -20t-10 -45q2 -13 -18 -19.5t-41 -3t-23 15.5z" />
<glyph unicode="w" horiz-adv-x="954" d="M-18 616q-1 7 -1 14q-1 27 19 43q24 21 67 26q38 5 72 5h7q36 0 67 -6q21 -5 51 -1t39 3q11 0 0 -22q-10 -18 -29 -35q-51 -43 -99 -179t-48 -241q0 -87 31 -146.5t84 -60.5h3q33 0 61 25q28 26 36 53q-23 50 -23 96q0 188 45 318t97 178q15 13 77 16q52 2 49 -13 q-1 -4 -7 -9q-50 -43 -97 -181.5t-47 -262.5q0 -86 32 -152q31 -66 85 -66h2q42 2 90.5 42.5t89 103t67.5 149t27 172.5q0 56 -14 113.5t-37 67.5q-14 6 -18.5 14t-1.5 13.5t8 6.5q28 8 82 8q26 0 56 -2q96 -6 104 -24q1 -2 1 -4q1 -5 -5 -9q-8 -6 -18.5 -6.5t-14.5 3.5 q-2 2 -19.5 6t-33.5 5t-17 -7q0 -3 9.5 -24t18.5 -55t9 -67q0 -90 -28.5 -185t-77 -175t-122.5 -131t-157 -51q-26 0 -40 1t-54.5 14t-79.5 40q-71 -55 -149 -55h-5q-130 4 -177.5 59t-47.5 195q0 105 45.5 218t95.5 177q7 9 18 22q17 22 13 25q-3 3 -20 4q-42 0 -60 -8 q-31 -14 -26 -53q1 -5 -19 -11.5t-41.5 -6t-23.5 12.5z" />
<glyph unicode="x" horiz-adv-x="864" d="M-31 54q0 11 38 26q40 16 46 4q2 -4 7 -17.5t9.5 -21.5t14 -14.5t22.5 -5.5q20 2 42 13.5t48.5 36.5t46.5 45t53.5 62.5t49.5 63.5t53 71l-14 66.5t-15.5 71.5t-15 64.5t-18 62.5t-19 46t-22.5 35t-25 11q-20 1 -29.5 -17.5t-9 -42t1.5 -43.5q1 -15 -21 -21t-45 -0.5 t-26 19.5q-2 13 -2 24q1 25 11 45q16 28 46 42t62 19q23 4 47 4q10 0 19 -1q93 -5 141 -122q18 -40 37 -125q100 129 149 176q39 39 99 61q35 13 65 13q22 0 41 -7q13 -4 13 -16q0 -7 -5 -18q-10 -20 -19 -15q-2 0 -3 2q-8 8 -24 9.5t-34 -5.5q-77 -34 -264 -280 q31 -169 43 -207q51 -160 115 -160q38 0 54 48q9 27 9 46q0 16 -6 27q-8 16 22 23q36 8 55 -8q2 -1 3 -3q17 -21 17 -44q0 -29 -25 -59q-45 -56 -123 -56q-73 0 -118.5 12.5t-75 45.5t-45 76.5t-29.5 119.5l-6 -7q-11 -15 -40.5 -55t-41 -54t-37.5 -43.5t-44.5 -41 t-47.5 -27t-61.5 -21t-71.5 -5.5q-46 0 -70 20q-27 23 -27 52z" />
<glyph unicode="y" horiz-adv-x="612" d="M-1260 -481v12q0 123 61 217q64 98 140 123q25 8 50 8q15 0 30 -3q27 -5 2 -18l-14 -5q-21 -7 -46 -26.5t-52 -52t-44.5 -83.5t-17.5 -109q0 -53 15 -106.5t50 -106.5t86 -93.5t128 -65.5q75 -25 165 -25h7q120 1 241 39t224.5 102t195 149.5t156.5 180t105 196t44 195.5 q1 27 1 54q0 100 -17 203q-22 130 -67 216q-43 82 -93 82h-6q-25 -2 -25 -35q0 -19 9 -49q4 -13 -17 -18q-33 -8 -57 6q-9 5 -10 12q-3 18 -3 34q0 54 37 82q41 31 101 31q12 0 24 -1q63 -5 113 -66.5t78 -153t39 -198.5q6 -58 6 -114q0 -46 -4 -91q99 153 119 344 q3 32 3 61q0 86 -28 146q-38 81 -109 84q-15 0 -21 11q-3 7 7 9q33 8 62 8q74 0 122 -49q66 -68 66 -192q0 -63 -21.5 -151t-62 -193t-104.5 -217t-143 -220.5t-183.5 -205.5t-220 -170.5t-259 -116.5t-294.5 -43h-25h-26q-235 0 -373.5 102t-143.5 271z" />
<glyph unicode="z" horiz-adv-x="927" d="M-19 -1q3 6 17 13q43 23 83 75t123 179q19 29 29 45q68 102 146 204.5t98 119.5q36 31 19 31q-19 0 -54 1.5t-64 1.5t-54 -3q-46 -4 -89.5 -35.5t-60.5 -59.5q-8 -12 -46 -18q-33 -5 -31 10q1 1 1 2q13 35 52 111q6 13 15.5 19.5t17 5.5t10.5 -5q4 -6 15 -8.5t20 -2.5 t25.5 0.5t20.5 0.5q10 0 94.5 1.5t139.5 4t67 6.5q21 8 43 8q13 0 26 -3q26 -7 7 -25q-149 -183 -284 -375q-165 -237 -174 -250q-13 -22 -13 -24q150 14 260 14q27 0 103 -7.5t102 -8.5q154 0 193 43q16 17 53 13q18 -2 18 -8q-1 -1 -2 -3q-29 -33 -111 -62 q-75 -26 -202 -26h-27q-45 1 -150.5 6.5t-162.5 5.5q-15 -1 -74.5 -1t-111 -1.5t-68.5 -5.5q-10 -1 -16 2q-4 2 -4 5q0 2 1 4z" />
<glyph unicode="|" horiz-adv-x="411" d="M289 -492v1987h100v-1987h-100z" />
<glyph unicode="~" horiz-adv-x="1228" d="M555 283q17 60 42 89.5t59.5 31.5t65 -6t77.5 -23.5t78 -20.5q29 -4 49.5 -0.5t34 16.5t18 20.5t14.5 25.5q2 4 8 -3q4 -5 3 -10q-18 -50 -41.5 -78t-46 -36t-53 -4.5t-56 13.5t-62 22t-63.5 16q-14 2 -26.5 2.5t-22.5 -2.5t-17 -4.5t-14.5 -9.5t-11 -10t-9.5 -13 t-6.5 -12l-6.5 -13l-3 -6q-1 -1 -4 0.5t-5 5.5t-1 9z" />
<glyph unicode="&#xa1;" d="M37 92q-21 -37 5 -63t68 -25t60 29q26 40 345 565t349 573q15 27 -10.5 33.5t-45.5 -14.5q-4 -4 -7 -10q-35 -54 -393 -559.5t-371 -528.5zM854 1386q0 29 23.5 51.5t52.5 22.5q32 0 54 -21t22 -53q0 -34 -21.5 -55.5t-56.5 -21.5q-29 0 -51.5 23.5t-22.5 53.5z" />
<glyph unicode="&#xa2;" horiz-adv-x="1024" d="M233 -258q41 72 154 276q-66 27 -97.5 85.5t-15.5 150.5q11 64 50.5 136.5t99.5 140t148 111t184 42.5l141 254l68 -4l-140 -250q19 -2 39.5 -8.5t45 -20t38.5 -34.5t18.5 -51.5t-14.5 -71.5q-14 -30 -50 -29.5t-38 27.5q-4 79 -73 122l-302 -540q61 -37 111 -37 q83 3 145 59q18 16 49 2q22 -10 13 -20l-2 -2q-121 -86 -283 -86q-23 0 -73 8q-59 -108 -148 -264zM412 285q-17 -104 32 -166l289 522q-60 9 -118 -25.5t-98.5 -92.5t-68 -121t-36.5 -117z" />
<glyph unicode="&#xa3;" horiz-adv-x="1540" d="M145 82q-3 17 76 14q41 23 82 77t81 140t71.5 165.5t72.5 195.5h-182l21 35h176q43 129 90 249q52 139 106.5 234t115.5 152.5t127 83.5t148 28q59 3 103 -3t85.5 -25t64 -61t22.5 -107q0 -51 -18.5 -95.5t-40.5 -68.5q-14 -16 -47 -12q-27 2 -26 19q0 2 1 5q11 29 13 79 t-7.5 105t-48 94.5t-101.5 38.5q-45 -1 -88.5 -23.5t-79 -58.5t-71.5 -91.5t-64 -112.5t-59 -131t-54.5 -137t-51.5 -142q-5 -13 -7 -20h531l-21 -35h-522q-108 -305 -178 -410q-72 -111 -170 -168q131 -4 415 -51t418 -49q82 -1 132.5 39t47.5 102.5t-67 120.5 q-23 20 11 27q42 7 83 -11q7 -4 13 -8q40 -30 49.5 -78t-9 -94t-63.5 -84t-104 -49q-40 -8 -168 -12q-167 0 -430 47q-217 40 -328 43q-82 0 -123 -2q-10 0 -18.5 18t-8.5 27z" />
<glyph unicode="&#xa8;" horiz-adv-x="454" d="M287 977q0 33 20.5 53.5t54.5 20.5q21 0 34.5 -22.5t13.5 -45.5q0 -28 -21 -49t-51 -21q-23 0 -37 19.5t-14 44.5zM494 977q0 33 21 53.5t54 20.5q21 0 34 -22t13 -46q0 -28 -20.5 -49t-50.5 -21q-23 0 -37 19.5t-14 44.5z" />
<glyph unicode="&#xaa;" horiz-adv-x="544" d="M306 793.5q12 57.5 39 114.5t58 93q45 52 115.5 84t138.5 29q5 0 25.5 -1t33.5 -2.5t23 -6.5q22 19 67 13q24 -4 22 -12q0 -2 -1 -3q-1 -3 -24 -52t-51.5 -112t-40.5 -94q-45 -124 -9 -146q27 12 48 33q15 15 45 -4q16 -10 10 -14q-65 -65 -135 -62q-87 3 -82 84 q-64 -64 -168 -71q-71 -5 -98.5 33.5t-15.5 96zM401 793q0 -36 12 -58.5t33 -25.5q36 -5 95.5 68t98.5 142.5t60 114.5q5 10 -8.5 23.5t-40.5 19.5q-37 9 -104 -28q-57 -35 -101.5 -103t-44.5 -153z" />
<glyph unicode="&#xab;" horiz-adv-x="909" d="M119 338q74 40 167.5 110.5t153.5 126.5l60 -16q-46 -55 -115.5 -122.5t-118.5 -100.5q51 -80 125 -236l-67 -4q-72 115 -205 242zM356 338q75 40 169 110.5t153 126.5l59 -16q-46 -56 -115 -123t-118 -100q51 -80 125 -236l-66 -4q-31 49 -89 117t-118 125z" />
<glyph unicode="&#xad;" d="M141 324l37 57h479l-39 -57h-477z" />
<glyph unicode="&#xaf;" horiz-adv-x="454" d="M178 965q0 18 23 29.5t67 11.5h373q30 0 39.5 -2.5t9.5 -12.5q0 -39 -76 -39h-409q-27 0 -27 13z" />
<glyph unicode="&#xb0;" horiz-adv-x="819" d="M481 811q0 95 65.5 160t160.5 65q97 0 162 -65t65 -160q0 -96 -65.5 -161.5t-161.5 -65.5q-95 0 -160.5 66t-65.5 161zM586 811q0 -55 35.5 -94t87.5 -39q50 0 85 39t35 94t-35 94t-85 39q-52 0 -87.5 -39t-35.5 -94z" />
<glyph unicode="&#xb4;" horiz-adv-x="454" d="M418 881q-1 10 8.5 17.5t21 13.5t21.5 27.5t10 55.5q0 54 15 88q16 38 63 45t68 -27q24 -40 -13 -114q-31 -60 -104 -101q-62 -35 -84 -18q-5 6 -6 13z" />
<glyph unicode="&#xb7;" horiz-adv-x="512" d="M309 352q0 44 33.5 77.5t77.5 33.5t77 -33.5t33 -77.5t-33 -77t-77 -33t-77.5 33t-33.5 77z" />
<glyph unicode="&#xb8;" horiz-adv-x="454" d="M58 -230q-2 8 5 7h3q44 -10 104.5 2.5t60.5 52.5q2 22 -30.5 38t-98.5 17l74 125h78l-55 -94q71 -3 105 -24.5t32 -51.5q-1 -34 -32 -56.5t-74 -29.5t-85.5 -7t-72.5 7q-10 2 -14 14z" />
<glyph unicode="&#xba;" horiz-adv-x="544" d="M311 809q0 119 79 208t200 85q87 -2 139.5 -42.5t52.5 -121.5q1 -115 -84.5 -196t-203.5 -78q-87 0 -135 32t-48 113zM416 852q0 -64 29 -112t75 -48q55 0 95 52.5t49 129.5q9 74 -20.5 131.5t-82.5 57.5q-47 -1 -81.5 -34.5t-49 -79.5t-14.5 -97z" />
<glyph unicode="&#xbb;" horiz-adv-x="909" d="M170 109q49 56 118.5 123.5t117.5 99.5q-54 88 -125 237l65 6q68 -109 207 -245q-75 -40 -169 -110.5t-153 -125.5zM412 109q50 57 118.5 124t116.5 99q-54 88 -125 237l66 6q68 -109 207 -245q-75 -40 -169 -110.5t-153 -125.5z" />
<glyph unicode="&#xbf;" horiz-adv-x="1064" d="M143 369q0 -184 108.5 -276.5t291.5 -92.5q80 0 162 19.5t157.5 59.5t134.5 95.5t94 133.5t35 167q0 71 -25.5 123.5t-71.5 82t-101.5 43t-122.5 13.5q-25 0 -32 -12q-5 -7 9 -10q7 -2 17 -2q106 0 163.5 -74t57.5 -170q0 -83 -44 -164t-111.5 -139t-150.5 -94t-159 -37 q-129 -1 -211 86t-82 225q0 252 217 432q51 42 125.5 83t143 73.5t137.5 71t129.5 92t99.5 119.5q3 4 -12 12q-37 19 -58 5q-5 -4 -8 -9q-19 -39 -60 -78.5t-83.5 -69t-108 -65t-107.5 -56t-108 -50.5q-25 -11 -37 -17q-170 -78 -279.5 -228t-109.5 -292zM1096 1415 q0 31 22 53.5t53 22.5t53.5 -22.5t22.5 -53.5t-22.5 -53.5t-53.5 -22.5t-53 22.5t-22 53.5z" />
<glyph unicode="&#xc0;" horiz-adv-x="1775" d="M-10 375q1 86 26.5 154t63.5 107.5t87 65t90.5 34.5t80.5 9q162 0 192 -92q6 -19 -25.5 -38.5t-43.5 -2.5q0 1 -3 7.5t-5 9.5t-6.5 10.5t-9 11.5t-12 11t-15 11.5t-19 9.5t-24 8t-29 5t-35.5 2q-34 0 -71.5 -17.5t-74 -52t-59 -98t-18.5 -143.5q3 -73 42.5 -151t118 -145 t177.5 -89q103 -24 204.5 0.5t178.5 95.5q99 92 210 230t268 353t232 312q159 206 300 319t249 146q14 4 14 -4t-12 -27q-30 -52 -147 -333q-23 -56 -117 -308.5t-187 -506t-98 -267.5q-5 -22 -70 -28q-60 -6 -70 11q-2 4 1 9q29 46 256 645q-80 -5 -262 -8 q-52 -79 -123 -178q-63 -91 -116 -157.5t-126.5 -138t-146 -116t-166.5 -73.5t-196 -29q-110 0 -198.5 22.5t-159 71t-109 133t-37.5 199.5zM489.5 1086q4.5 72 25 131.5t57 109.5t75 84t78.5 55q140 72 307 72q190 0 410 -78q249 -87 336 -90q9 -1 60 8q11 2 11 0 q1 -3 -28 -21q-1 0 -2 -1q-46 -23 -144 -23q-154 4 -293 53q-83 29 -136 46t-138.5 35t-153.5 18q-178 3 -286 -119q-58 -66 -81.5 -145t-13 -150t40.5 -135t75.5 -108.5t94.5 -61.5q101 -33 142 -16q16 7 17 -1q2 -10 -32 -21l-2 -1q-70 -22 -156 2t-154 81t-89 126 q-25 78 -20.5 150zM1384 664h76q30 1 91 4t89 4q184 506 218 577q7 15 21.5 43t18.5 37q-149 -133 -514 -665zM1625 1669.5q4 31.5 21.5 46.5t43.5 15q25 1 42 -12t24 -35t10 -42.5t3 -44.5q0 -34 10 -56t22.5 -29t21.5 -14t8 -15q-6 -23 -62 -6q-27 8 -63 36.5t-59 75.5 q-26 49 -22 80.5z" />
<glyph unicode="&#xc1;" horiz-adv-x="1775" d="M-10 375q1 86 26.5 154t63.5 107.5t87 65t90.5 34.5t80.5 9q162 0 192 -92q6 -19 -25.5 -38.5t-43.5 -2.5q0 1 -3 7.5t-5 9.5t-6.5 10.5t-9 11.5t-12 11t-15 11.5t-19 9.5t-24 8t-29 5t-35.5 2q-34 0 -71.5 -17.5t-74 -52t-59 -98t-18.5 -143.5q3 -73 42.5 -151t118 -145 t177.5 -89q103 -24 204.5 0.5t178.5 95.5q99 92 210 230t268 353t232 312q159 206 300 319t249 146q14 4 14 -4t-12 -27q-30 -52 -147 -333q-23 -56 -117 -308.5t-187 -506t-98 -267.5q-5 -22 -70 -28q-60 -6 -70 11q-2 4 1 9q29 46 256 645q-80 -5 -262 -8 q-52 -79 -123 -178q-63 -91 -116 -157.5t-126.5 -138t-146 -116t-166.5 -73.5t-196 -29q-110 0 -198.5 22.5t-159 71t-109 133t-37.5 199.5zM489.5 1086q4.5 72 25 131.5t57 109.5t75 84t78.5 55q140 72 307 72q190 0 410 -78q249 -87 336 -90q9 -1 60 8q11 2 11 0 q1 -3 -28 -21q-1 0 -2 -1q-46 -23 -144 -23q-154 4 -293 53q-83 29 -136 46t-138.5 35t-153.5 18q-178 3 -286 -119q-58 -66 -81.5 -145t-13 -150t40.5 -135t75.5 -108.5t94.5 -61.5q101 -33 142 -16q16 7 17 -1q2 -10 -32 -21l-2 -1q-70 -22 -156 2t-154 81t-89 126 q-25 78 -20.5 150zM1384 664h76q30 1 91 4t89 4q184 506 218 577q7 15 21.5 43t18.5 37q-149 -133 -514 -665zM1788 1489q-1 10 8 17.5t21 14t22 28t10 55.5q0 54 15 88q15 37 60 44q48 8 70 -25q26 -40 -12 -116q-31 -60 -104 -102q-62 -35 -84 -17q-5 4 -6 13z" />
<glyph unicode="&#xc2;" horiz-adv-x="1775" d="M-10 375q1 86 26.5 154t63.5 107.5t87 65t90.5 34.5t80.5 9q162 0 192 -92q6 -19 -25.5 -38.5t-43.5 -2.5q0 1 -3 7.5t-5 9.5t-6.5 10.5t-9 11.5t-12 11t-15 11.5t-19 9.5t-24 8t-29 5t-35.5 2q-34 0 -71.5 -17.5t-74 -52t-59 -98t-18.5 -143.5q3 -73 42.5 -151t118 -145 t177.5 -89q103 -24 204.5 0.5t178.5 95.5q99 92 210 230t268 353t232 312q159 206 300 319t249 146q14 4 14 -4t-12 -27q-30 -52 -147 -333q-23 -56 -117 -308.5t-187 -506t-98 -267.5q-5 -22 -70 -28q-60 -6 -70 11q-2 4 1 9q29 46 256 645q-80 -5 -262 -8 q-52 -79 -123 -178q-63 -91 -116 -157.5t-126.5 -138t-146 -116t-166.5 -73.5t-196 -29q-110 0 -198.5 22.5t-159 71t-109 133t-37.5 199.5zM489.5 1086q4.5 72 25 131.5t57 109.5t75 84t78.5 55q140 72 307 72q190 0 410 -78q249 -87 336 -90q9 -1 60 8q11 2 11 0 q1 -3 -28 -21q-1 0 -2 -1q-46 -23 -144 -23q-154 4 -293 53q-83 29 -136 46t-138.5 35t-153.5 18q-178 3 -286 -119q-58 -66 -81.5 -145t-13 -150t40.5 -135t75.5 -108.5t94.5 -61.5q101 -33 142 -16q16 7 17 -1q2 -10 -32 -21l-2 -1q-70 -22 -156 2t-154 81t-89 126 q-25 78 -20.5 150zM1384 664h76q30 1 91 4t89 4q184 506 218 577q7 15 21.5 43t18.5 37q-149 -133 -514 -665zM1675 1522q80 76 124.5 128.5t80.5 116.5q35 -3 84 0q7 -153 64 -260l-68 -10q-66 71 -88 117q-4 -4 -16 -15.5t-15 -14.5t-12.5 -11.5t-14 -11.5t-13.5 -10.5 t-18 -13t-21 -13.5t-27 -17z" />
<glyph unicode="&#xc3;" horiz-adv-x="1775" d="M-10 375q1 86 26.5 154t63.5 107.5t87 65t90.5 34.5t80.5 9q162 0 192 -92q6 -19 -25.5 -38.5t-43.5 -2.5q0 1 -3 7.5t-5 9.5t-6.5 10.5t-9 11.5t-12 11t-15 11.5t-19 9.5t-24 8t-29 5t-35.5 2q-34 0 -71.5 -17.5t-74 -52t-59 -98t-18.5 -143.5q3 -73 42.5 -151t118 -145 t177.5 -89q103 -24 204.5 0.5t178.5 95.5q99 92 210 230t268 353t232 312q159 206 300 319t249 146q14 4 14 -4t-12 -27q-30 -52 -147 -333q-23 -56 -117 -308.5t-187 -506t-98 -267.5q-5 -22 -70 -28q-60 -6 -70 11q-2 4 1 9q29 46 256 645q-80 -5 -262 -8 q-52 -79 -123 -178q-63 -91 -116 -157.5t-126.5 -138t-146 -116t-166.5 -73.5t-196 -29q-110 0 -198.5 22.5t-159 71t-109 133t-37.5 199.5zM489.5 1086q4.5 72 25 131.5t57 109.5t75 84t78.5 55q140 72 307 72q190 0 410 -78q249 -87 336 -90q9 -1 60 8q11 2 11 0 q1 -3 -28 -21q-1 0 -2 -1q-46 -23 -144 -23q-154 4 -293 53q-83 29 -136 46t-138.5 35t-153.5 18q-178 3 -286 -119q-58 -66 -81.5 -145t-13 -150t40.5 -135t75.5 -108.5t94.5 -61.5q101 -33 142 -16q16 7 17 -1q2 -10 -32 -21l-2 -1q-70 -22 -156 2t-154 81t-89 126 q-25 78 -20.5 150zM1384 664h76q30 1 91 4t89 4q184 506 218 577q7 15 21.5 43t18.5 37q-149 -133 -514 -665zM1559 1532q6 67 54.5 107.5t117.5 37.5q52 -3 145.5 -38t132.5 -35q32 0 61.5 26t36.5 51t33.5 22t26.5 -24q-4 -72 -55 -110.5t-127 -40.5q-63 -1 -162 36 t-117 35q-62 -6 -92 -69q-9 -17 -23 -18t-23.5 6.5t-8.5 13.5z" />
<glyph unicode="&#xc4;" horiz-adv-x="1775" d="M-10 375q-1 -115 37.5 -199.5t109 -133t159 -71t198.5 -22.5q102 0 196 29t166.5 73.5t146 116t126.5 138t116 157.5q71 99 123 178q182 3 262 8q-227 -599 -256 -645q-8 -14 19 -19q45 -8 93 7q24 9 27 20q5 14 98 267.5t187 506t117 308.5q117 281 147 333q20 33 6 33 q-3 -1 -8 -2q-108 -33 -249 -146t-300 -319q-75 -97 -232 -312t-268 -353t-210 -230q-77 -71 -178.5 -95.5t-204.5 -0.5q-99 22 -177.5 89t-118 145t-42.5 151q-4 80 18.5 143.5t59 98t74 52t71.5 17.5q19 0 35.5 -2t29 -5t24 -8t19 -9.5t15 -11.5t12 -11t9 -11.5t6.5 -10.5 t5 -9.5t3 -7.5q12 -17 43.5 2.5t25.5 38.5q-30 92 -192 92q-39 0 -80.5 -9t-90.5 -34.5t-87 -65t-63.5 -107.5t-26.5 -154zM489.5 1086q-4.5 -72 20.5 -150q21 -69 89 -126t154 -81t156 -2q32 10 34 21q1 4 -4 5t-13 -3q-41 -17 -142 16q-49 17 -94.5 61.5t-75.5 108.5 t-40.5 135t13 150t81.5 145q108 122 286 119q68 0 153.5 -18t138.5 -35t136 -46q139 -49 293 -53q98 0 144 23q30 18 30 22q1 2 -37 -5q-23 -4 -34 -3q-87 3 -336 90q-220 78 -410 78q-167 0 -307 -72q-40 -21 -78.5 -55t-75 -84t-57 -109.5t-25 -131.5zM1384 664 q365 532 514 665q-4 -9 -18.5 -37t-21.5 -43q-34 -71 -218 -577q-28 -1 -89 -4t-91 -4h-76zM1642 1550q0 31 21.5 51.5t54.5 20.5q21 0 34 -21.5t13 -44.5q0 -30 -20.5 -50.5t-50.5 -20.5q-23 0 -37.5 20t-14.5 45zM1851 1550q0 31 20.5 51.5t53.5 20.5q21 0 34 -21.5 t13 -44.5q0 -30 -20.5 -50.5t-50.5 -20.5q-23 0 -36.5 20t-13.5 45z" />
<glyph unicode="&#xc5;" horiz-adv-x="1775" d="M-10 375q-1 -115 37.5 -199.5t109 -133t159 -71t198.5 -22.5q102 0 196 29t166.5 73.5t146 116t126.5 138t116 157.5q71 99 123 178q182 3 262 8q-227 -599 -256 -645q-8 -14 19 -19q45 -8 93 7q24 9 27 20q5 14 98 267.5t187 506t117 308.5q117 281 147 333q20 33 6 33 q-3 -1 -8 -2q-108 -33 -249 -146t-300 -319q-75 -97 -232 -312t-268 -353t-210 -230q-77 -71 -178.5 -95.5t-204.5 -0.5q-99 22 -177.5 89t-118 145t-42.5 151q-4 80 18.5 143.5t59 98t74 52t71.5 17.5q19 0 35.5 -2t29 -5t24 -8t19 -9.5t15 -11.5t12 -11t9 -11.5t6.5 -10.5 t5 -9.5t3 -7.5q12 -17 43.5 2.5t25.5 38.5q-30 92 -192 92q-39 0 -80.5 -9t-90.5 -34.5t-87 -65t-63.5 -107.5t-26.5 -154zM489.5 1086q-4.5 -72 20.5 -150q21 -69 89 -126t154 -81t156 -2q32 10 34 21q1 4 -4 5t-13 -3q-41 -17 -142 16q-49 17 -94.5 61.5t-75.5 108.5 t-40.5 135t13 150t81.5 145q108 122 286 119q68 0 153.5 -18t138.5 -35t136 -46q139 -49 293 -53q98 0 144 23q30 18 30 22q1 2 -37 -5q-23 -4 -34 -3q-87 3 -336 90q-220 78 -410 78q-167 0 -307 -72q-40 -21 -78.5 -55t-75 -84t-57 -109.5t-25 -131.5zM1384 664 q365 532 514 665q-4 -9 -18.5 -37t-21.5 -43q-34 -71 -218 -577q-28 -1 -89 -4t-91 -4h-76zM1712 1550q-4 52 33 89.5t90 37.5q32 0 56.5 -21.5t27.5 -58.5q4 -52 -33 -89.5t-90 -37.5q-32 0 -56.5 21.5t-27.5 58.5zM1767 1542q3 -26 29 -26t48.5 29.5t19.5 58.5 q-3 28 -29 28t-48.5 -30t-19.5 -60z" />
<glyph unicode="&#xc6;" horiz-adv-x="2353" d="M-14 375q2 104 49.5 190.5t135 136t194.5 41.5q60 -3 100 -21.5t67 -68.5q7 -13 -8 -28.5t-33 -19t-26 4.5l-3 8q-4 8 -6.5 11.5t-7.5 12t-11 13.5l-15 12.5t-20 12t-25 9.5t-32 7t-38 2q-34 0 -72.5 -17.5t-75.5 -52t-60.5 -98t-22.5 -143.5q2 -104 65 -197.5 t161.5 -148t201.5 -51.5q173 3 287 108q79 72 179.5 188t168 202.5t200 261.5t185.5 243q67 86 270.5 262t290.5 203q13 4 13 -3t-13 -28q-12 -17 -17 -30q72 42 197 45q44 1 81.5 -4.5t72.5 -20t60 -37t40 -58.5t16 -83q0 -51 -17.5 -94t-41.5 -68q-17 -17 -48 -14 q-30 3 -22 27q8 23 12 61t-2 84.5t-22 86.5t-54 67.5t-93 27.5q-55 1 -107 -34.5t-98.5 -101.5t-84 -137.5t-77.5 -166.5q-50 -116 -115 -291q21 2 44 4t35.5 3t15.5 1q28 1 71 35t58 55q9 9 23 9t27.5 -6t12.5 -11q-5 -16 -39.5 -58.5t-58.5 -45.5q-2 0 -74 -5.5t-127 -9.5 q-154 -398 -237 -616q256 -56 331 -59q84 -3 152 18t108.5 55.5t68 79.5t38 86.5t10.5 81.5q0 70 -36.5 123.5t-100.5 52.5q-30 -1 -50 -22.5t-26.5 -56.5t-8 -50.5t-1.5 -30.5q0 -7 -22 -8t-44.5 10.5t-23.5 34.5q-3 72 58.5 108t148.5 38q89 0 154.5 -40.5t68.5 -125.5 q2 -71 -47.5 -152.5t-132.5 -144t-170 -80.5q-79 -16 -211 -16q-199 0 -400 41q-25 6 -16 20q5 8 13.5 24.5t21 44t24.5 54.5t30.5 71.5t32 77.5t36.5 89t37 90.5t40 98.5t39 97q-188 -10 -268 -10q-29 -42 -127 -178q-46 -64 -84.5 -113t-89 -105t-97 -96.5t-104.5 -80 t-116.5 -64.5t-128.5 -40t-144 -15q-110 0 -197.5 22.5t-156.5 71t-105.5 133t-33.5 199.5zM484.5 1121q10.5 84 52 154.5t90 117t100.5 73.5q141 74 322 72q197 0 417 -78q12 -4 39.5 -15t50.5 -19.5t54 -19.5t58.5 -18t55 -11.5t51.5 -4t42 7.5q55 20 59 6q3 -9 -21 -21 q-58 -31 -169 -30q-158 0 -302 51q-85 31 -133.5 47t-132.5 34t-151 18q-172 0 -279 -119q-76 -84 -95.5 -184.5t10.5 -184t82 -149.5t120.5 -93.5t124.5 -4.5q17 6 16 -1q-2 -12 -42 -19q-23 -3 -52 -3q-295 0 -354 209q-24 101 -13.5 185zM1389 668q183 4 260 10 q117 303 118 305q95 244 109 266q32 57 43 80q-62 -56 -164.5 -181.5t-179 -227t-186.5 -252.5z" />
<glyph unicode="&#xc7;" horiz-adv-x="1386" d="M-34 575.5q-5 98.5 7.5 179.5t38 159.5t52.5 133.5t57 101q115 174 292.5 258t399.5 84q293 0 467 -169q134 -131 156 -318q21 -181 -74 -329q-104 -163 -307 -209q-69 -15 -146 -15q-254 0 -360 149q-75 106 -51 249q20 121 100 193q47 42 102 52q53 9 68 -5q5 -4 -2 -6 q-30 -7 -56.5 -32t-44.5 -61t-30 -81t-11.5 -93t9 -95t33.5 -89.5t60 -75.5t89.5 -52.5t122.5 -20.5q72 -1 132.5 31t100.5 82.5t68.5 115t42 126t16.5 118.5q3 65 -11.5 132.5t-51 136t-91.5 121.5t-142.5 86.5t-194.5 33.5q-146 -1 -267 -52t-201 -134.5t-135 -194 t-79.5 -226.5t-24.5 -236q0 -129 50 -244.5t135.5 -198.5t206.5 -132t258 -50q86 -1 163 15.5t120 35t100 49.5q31 18 44 -2q9 -14 -4 -25q-1 0 -2 -1q-172 -107 -464 -111l-45 -72q70 -3 103.5 -23t33.5 -50q0 -35 -30.5 -58.5t-73.5 -31t-87.5 -5t-72.5 14.5q-11 4 -15 16 q-1 7 3 7q2 0 5 -1q46 -19 83 -15.5t60 20t23 36.5q2 24 -30.5 41.5t-98.5 18.5l62 102q-224 3 -398 124.5t-229 299.5q-29 94 -34 192.5z" />
<glyph unicode="&#xc8;" horiz-adv-x="1220" d="M-21.5 381q1.5 49 13.5 106q24 95 69.5 178.5t95.5 138.5t110.5 104t105 74.5t89.5 50t54 30.5q21 15 33.5 34.5t18.5 46.5t8 50t4.5 61t5.5 64q13 103 96 162t178 61q56 0 101 -16t72 -58t11 -104q-19 -74 -71 -104q-24 -14 -62 -8q-15 5 -14 10q18 23 29 61.5 t11.5 78.5t-25 71.5t-74.5 35.5q-40 3 -76.5 -37t-50.5 -98q-12 -48 -14 -115.5t-3 -72.5q-20 -88 -119 -150q-177 -111 -279.5 -229.5t-139.5 -267.5q-19 -65 -14.5 -132t22 -129t54.5 -116t84.5 -93.5t112 -60.5t136.5 -18q160 6 288.5 118.5t180.5 315.5q9 37 10.5 80 t-4.5 88t-23.5 85.5t-43.5 71.5t-66.5 47t-89.5 11q-91 -7 -165.5 -76t-111.5 -178q-26 -77 8.5 -153t86.5 -91q36 -11 -44 -25h-2q-5 -1 -6 -1q-60 -5 -107 36.5t-63 111t4 157.5q15 57 54 103t91 73.5t114 45.5t122 18.5t115 -7.5q96 -18 164.5 -84t93.5 -156t2 -180 q-34 -134 -131 -238.5t-223 -157t-256 -48.5q-96 5 -115 8q-17 3 -39 8.5t-54.5 16t-64 24.5t-68.5 33.5t-68.5 43t-62.5 54t-51 66t-34.5 78.5t-13 92zM733.5 1788q4.5 31 22 46t43.5 15q24 1 40.5 -11.5t24 -35t10.5 -42.5t3 -44q0 -34 10 -56.5t22 -29.5t21 -14t8 -14 q-6 -23 -61 -7q-27 9 -63.5 38t-59.5 75q-25 49 -20.5 80z" />
<glyph unicode="&#xc9;" horiz-adv-x="1220" d="M-21.5 381q1.5 49 13.5 106q24 95 69.5 178.5t95.5 138.5t110.5 104t105 74.5t89.5 50t54 30.5q21 15 33.5 34.5t18.5 46.5t8 50t4.5 61t5.5 64q13 103 96 162t178 61q56 0 101 -16t72 -58t11 -104q-19 -74 -71 -104q-24 -14 -62 -8q-15 5 -14 10q18 23 29 61.5 t11.5 78.5t-25 71.5t-74.5 35.5q-40 3 -76.5 -37t-50.5 -98q-12 -48 -14 -115.5t-3 -72.5q-20 -88 -119 -150q-177 -111 -279.5 -229.5t-139.5 -267.5q-19 -65 -14.5 -132t22 -129t54.5 -116t84.5 -93.5t112 -60.5t136.5 -18q160 6 288.5 118.5t180.5 315.5q9 37 10.5 80 t-4.5 88t-23.5 85.5t-43.5 71.5t-66.5 47t-89.5 11q-91 -7 -165.5 -76t-111.5 -178q-26 -77 8.5 -153t86.5 -91q36 -11 -44 -25h-2q-5 -1 -6 -1q-60 -5 -107 36.5t-63 111t4 157.5q15 57 54 103t91 73.5t114 45.5t122 18.5t115 -7.5q96 -18 164.5 -84t93.5 -156t2 -180 q-34 -134 -131 -238.5t-223 -157t-256 -48.5q-96 5 -115 8q-17 3 -39 8.5t-54.5 16t-64 24.5t-68.5 33.5t-68.5 43t-62.5 54t-51 66t-34.5 78.5t-13 92zM920 1608q-1 8 5 13.5t15 11.5t18.5 14.5t16 27.5t6.5 47q0 56 14 88q16 37 62 45q48 7 70 -27q25 -40 -13 -114 q-31 -60 -104 -101q-62 -35 -84 -18q-5 5 -6 13z" />
<glyph unicode="&#xca;" horiz-adv-x="1220" d="M-21.5 381q1.5 49 13.5 106q24 95 69.5 178.5t95.5 138.5t110.5 104t105 74.5t89.5 50t54 30.5q21 15 33.5 34.5t18.5 46.5t8 50t4.5 61t5.5 64q13 103 96 162t178 61q56 0 101 -16t72 -58t11 -104q-19 -74 -71 -104q-24 -14 -62 -8q-15 5 -14 10q18 23 29 61.5 t11.5 78.5t-25 71.5t-74.5 35.5q-40 3 -76.5 -37t-50.5 -98q-12 -48 -14 -115.5t-3 -72.5q-20 -88 -119 -150q-177 -111 -279.5 -229.5t-139.5 -267.5q-19 -65 -14.5 -132t22 -129t54.5 -116t84.5 -93.5t112 -60.5t136.5 -18q160 6 288.5 118.5t180.5 315.5q9 37 10.5 80 t-4.5 88t-23.5 85.5t-43.5 71.5t-66.5 47t-89.5 11q-91 -7 -165.5 -76t-111.5 -178q-26 -77 8.5 -153t86.5 -91q36 -11 -44 -25h-2q-5 -1 -6 -1q-60 -5 -107 36.5t-63 111t4 157.5q15 57 54 103t91 73.5t114 45.5t122 18.5t115 -7.5q96 -18 164.5 -84t93.5 -156t2 -180 q-34 -134 -131 -238.5t-223 -157t-256 -48.5q-96 5 -115 8q-17 3 -39 8.5t-54.5 16t-64 24.5t-68.5 33.5t-68.5 43t-62.5 54t-51 66t-34.5 78.5t-13 92zM735 1608q80 76 124.5 128.5t80.5 116.5q35 -3 84 0q7 -155 63 -260l-67 -10q-65 73 -88 117q-30 -29 -41.5 -39 t-33.5 -26.5t-62 -41.5z" />
<glyph unicode="&#xcb;" horiz-adv-x="1220" d="M-21.5 381q-1.5 -49 13 -92t34.5 -78.5t51 -66t62.5 -54t68.5 -43t68.5 -33.5t64 -24.5t54.5 -16t39 -8.5q19 -3 115 -8q130 -4 256 48.5t223 157t131 238.5q23 90 -2 180t-93.5 156t-164.5 84q-55 8 -115 7.5t-122 -18.5t-114 -45.5t-91 -73.5t-54 -103 q-20 -88 -4 -157.5t63 -111t107 -36.5q58 12 63 17q3 5 -11 9q-52 15 -86.5 91t-8.5 153q37 109 111.5 178t165.5 76q49 5 89.5 -11t66.5 -47t43.5 -71.5t23.5 -85.5t4.5 -88t-10.5 -80q-52 -203 -180.5 -315.5t-288.5 -118.5q-72 -3 -136.5 18t-112 60.5t-84.5 93.5 t-54.5 116t-22 129t14.5 132q37 149 139.5 267.5t279.5 229.5q99 62 119 150q1 5 3 72.5t14 115.5q14 58 50.5 98t76.5 37q49 -4 74.5 -35.5t25 -71.5t-11.5 -78.5t-29 -61.5q-5 -5 8 -9q32 -7 62 4q3 2 6 3q52 30 71 104q16 62 -11 104t-72 58t-101 16q-95 -2 -178 -61 t-96 -162q-3 -26 -5.5 -64t-4.5 -61t-8 -50t-18.5 -46.5t-33.5 -34.5q-9 -6 -54 -30.5t-89.5 -50t-105 -74.5t-110.5 -104t-95.5 -138.5t-69.5 -178.5q-12 -57 -13.5 -106zM750 1655q0 31 20 51t53 20q21 0 34 -21t13 -44q0 -30 -20.5 -51t-50.5 -21q-23 0 -36 20t-13 46z M956 1655q0 31 21 51t53 20q21 0 34 -21t13 -44q0 -30 -20 -51t-51 -21q-23 0 -36.5 20t-13.5 46z" />
<glyph unicode="&#xcc;" horiz-adv-x="915" d="M-174 -289q-1 4 6 2q33 -10 94.5 -17t98.5 -5q107 0 200 49q96 49 183.5 150t146 209t104.5 231q21 55 203 513t215 546q-152 -63 -405 -52q-66 6 -136 2t-136 -13t-125 -36t-103 -66t-70 -104.5t-26 -150.5q0 -49 13 -101t39 -101t72.5 -82.5t104.5 -37.5q29 -3 53 7.5 t33 23.5q8 11 48 9q21 -2 20 -7q-7 -21 -47 -46.5t-103 -25.5q-110 0 -189 37t-121 116t-32 191q9 95 47 171t97.5 126t132 84.5t158 51t166 22t165.5 0.5q326 -21 426 88q14 16 49 16q27 -1 25 -16q-7 -21 -101.5 -269t-210.5 -546.5t-159 -398.5q-35 -80 -80.5 -159 t-105.5 -159t-135.5 -146t-155.5 -102q-99 -47 -248 -47q-119 0 -195 29q-16 6 -16 14zM777 1690q4 31 21.5 46t43.5 15q25 1 42 -11.5t24.5 -35t10.5 -42.5t3 -44q0 -34 10 -56.5t22 -29.5t21 -14t8 -15q-6 -22 -61 -6q-27 8 -63.5 37t-59.5 76q-26 49 -22 80z" />
<glyph unicode="&#xcd;" horiz-adv-x="915" d="M-174 -289q-1 4 6 2q33 -10 94.5 -17t98.5 -5q107 0 200 49q96 49 183.5 150t146 209t104.5 231q21 55 203 513t215 546q-152 -63 -405 -52q-66 6 -136 2t-136 -13t-125 -36t-103 -66t-70 -104.5t-26 -150.5q0 -49 13 -101t39 -101t72.5 -82.5t104.5 -37.5q29 -3 53 7.5 t33 23.5q8 11 48 9q21 -2 20 -7q-7 -21 -47 -46.5t-103 -25.5q-110 0 -189 37t-121 116t-32 191q9 95 47 171t97.5 126t132 84.5t158 51t166 22t165.5 0.5q326 -21 426 88q14 16 49 16q27 -1 25 -16q-7 -21 -101.5 -269t-210.5 -546.5t-159 -398.5q-35 -80 -80.5 -159 t-105.5 -159t-135.5 -146t-155.5 -102q-99 -47 -248 -47q-119 0 -195 29q-16 6 -16 14zM850 1489q-1 10 8.5 17.5t21 14t21.5 28t10 55.5q0 54 15 88q16 37 61 44q48 8 70 -25q26 -40 -13 -116q-30 -60 -101 -101q-63 -36 -86 -19q-6 5 -7 14z" />
<glyph unicode="&#xce;" horiz-adv-x="915" d="M-174 -289q-1 4 6 2q33 -10 94.5 -17t98.5 -5q107 0 200 49q96 49 183.5 150t146 209t104.5 231q21 55 203 513t215 546q-152 -63 -405 -52q-66 6 -136 2t-136 -13t-125 -36t-103 -66t-70 -104.5t-26 -150.5q0 -49 13 -101t39 -101t72.5 -82.5t104.5 -37.5q29 -3 53 7.5 t33 23.5q8 11 48 9q21 -2 20 -7q-7 -21 -47 -46.5t-103 -25.5q-110 0 -189 37t-121 116t-32 191q9 95 47 171t97.5 126t132 84.5t158 51t166 22t165.5 0.5q326 -21 426 88q14 16 49 16q27 -1 25 -16q-7 -21 -101.5 -269t-210.5 -546.5t-159 -398.5q-35 -80 -80.5 -159 t-105.5 -159t-135.5 -146t-155.5 -102q-99 -47 -248 -47q-119 0 -195 29q-16 6 -16 14zM719 1522q80 76 124.5 128.5t80.5 116.5q37 -3 84 0q7 -155 63 -260l-67 -10q-65 73 -89 117q-28 -28 -40 -39t-34.5 -27.5t-62.5 -40.5z" />
<glyph unicode="&#xcf;" horiz-adv-x="915" d="M-174 -289q0 -8 16 -14q76 -29 195 -29q149 0 248 47q80 36 155.5 102t135.5 146t105.5 159t80.5 159q43 100 159 398.5t210.5 546.5t101.5 269q3 12 -14 15q-29 5 -53 -10l-7 -5q-100 -109 -426 -88q-85 5 -165.5 -0.5t-166 -22t-158 -51t-132 -84.5t-97.5 -126 t-47 -171q-10 -112 32 -191t121 -116t189 -37q63 0 103 25.5t47 46.5q1 3 -5 5q-23 7 -52 -1q-8 -3 -11 -6q-9 -13 -33 -23.5t-53 -7.5q-58 4 -104.5 37.5t-72.5 82.5t-39 101t-13 101q0 85 26 150.5t70 104.5t103 66t125 36t136 13t136 -2q253 -11 405 52 q-33 -88 -215 -546t-203 -513q-46 -123 -104.5 -231t-146 -209t-183.5 -150q-93 -49 -200 -49q-37 -2 -98.5 5t-94.5 17q-7 2 -6 -2zM682 1550q0 31 21.5 51.5t54.5 20.5q21 0 34 -21.5t13 -44.5q0 -30 -20.5 -50.5t-51.5 -20.5q-23 0 -37 20t-14 45zM891 1550 q0 31 20.5 51.5t53.5 20.5q21 0 34 -21.5t13 -44.5q0 -30 -21 -50.5t-51 -20.5q-23 0 -36 19.5t-13 45.5z" />
<glyph unicode="&#xd0;" horiz-adv-x="1024" />
<glyph unicode="&#xd1;" horiz-adv-x="1763" d="M-13 209q-3 94 42 122q25 15 61 3q7 -8 2 -15.5t-13.5 -37t-6.5 -60.5q2 -33 15 -68t38 -68t69 -54t99 -21q72 1 133.5 26t111 72.5t85.5 97t75 118.5q63 109 156 331q125 296 260 664q-65 -37 -163.5 -49.5t-230.5 -15.5t-204 -13q-157 -22 -245.5 -120t-73.5 -253 q5 -51 30.5 -105t64.5 -97.5t93.5 -67.5t110.5 -14q32 5 33 -6q0 -7 -19 -13q-50 -16 -127 -16q-69 -1 -125.5 28.5t-91 78t-52.5 105t-18 113.5q0 54 17.5 111t59.5 117t101.5 108t153 81t205.5 38q346 18 367 20q77 8 112 34q11 8 31 26q23 21 51.5 7.5t22.5 -46.5 q-5 -47 -6 -129t10 -208.5t32 -225.5q21 -101 90.5 -353t83.5 -313q40 109 177.5 433t216.5 481q154 309 331 469q90 78 195 121t203 43q153 0 239 -86q11 -16 -16 -19q-28 -3 -47 8q-25 15 -75 28t-103 13q-84 -2 -189.5 -49t-208.5 -156q-80 -85 -174 -252t-177 -354.5 t-157 -366t-136 -324t-91 -191.5q-11 -18 -42 -4.5t-36 34.5q-11 50 -141 512q-32 116 -60.5 277t-41.5 315q-11 -33 -37 -111.5t-44.5 -134t-51 -142t-60 -150.5t-68 -144.5t-79.5 -138t-89.5 -116.5t-102 -96t-114.5 -60t-129 -23q-208 0 -284 100q-44 59 -48 152z M1352 1532q6 67 54.5 107.5t119.5 37.5q51 -3 144.5 -38t131.5 -35q33 0 62.5 26t36.5 51t33 22t26 -24q-4 -72 -55 -110.5t-127 -40.5q-49 -1 -108 17.5t-105 37t-64 16.5q-64 -6 -94 -69q-9 -17 -23 -18t-23.5 6.5t-8.5 13.5z" />
<glyph unicode="&#xd2;" horiz-adv-x="1327" d="M-20 666q16 228 130.5 409.5t292.5 280t383 98.5q268 0 426 -162.5t154 -435.5q-2 -130 -41.5 -260t-112.5 -243.5t-169.5 -201.5t-222 -139t-261.5 -51q-157 0 -275 56t-186.5 153.5t-98 223t-19.5 272.5zM121 641q-3 -80 9.5 -164t45.5 -172t83.5 -156.5t133 -112.5 t185.5 -44q104 1 203 49.5t176 131.5t136.5 188.5t91.5 225.5t34 236q4 292 -107 439t-330 147q-129 -1 -245.5 -54.5t-207 -150t-146.5 -242.5t-62 -321zM642 1719.5q4 31.5 22 47t43 15.5q79 0 79 -133q0 -34 10 -56.5t22.5 -30t21.5 -14.5t8 -14q-5 -23 -62 -6 q-27 8 -63 36.5t-59 75.5q-26 48 -22 79.5z" />
<glyph unicode="&#xd3;" horiz-adv-x="1327" d="M-20 666q16 228 130.5 409.5t292.5 280t383 98.5q268 0 426 -162.5t154 -435.5q-2 -130 -41.5 -260t-112.5 -243.5t-169.5 -201.5t-222 -139t-261.5 -51q-157 0 -275 56t-186.5 153.5t-98 223t-19.5 272.5zM121 641q-3 -80 9.5 -164t45.5 -172t83.5 -156.5t133 -112.5 t185.5 -44q104 1 203 49.5t176 131.5t136.5 188.5t91.5 225.5t34 236q4 292 -107 439t-330 147q-129 -1 -245.5 -54.5t-207 -150t-146.5 -242.5t-62 -321zM827 1528q-1 10 8.5 17.5t21.5 13.5t22 27.5t10 55.5q0 58 14 89q16 37 62 44q48 8 69 -26q26 -40 -12 -115 q-32 -60 -105 -101q-62 -35 -84 -18q-5 5 -6 13z" />
<glyph unicode="&#xd4;" horiz-adv-x="1327" d="M-20 666q16 228 130.5 409.5t292.5 280t383 98.5q268 0 426 -162.5t154 -435.5q-2 -130 -41.5 -260t-112.5 -243.5t-169.5 -201.5t-222 -139t-261.5 -51q-157 0 -275 56t-186.5 153.5t-98 223t-19.5 272.5zM121 641q-3 -80 9.5 -164t45.5 -172t83.5 -156.5t133 -112.5 t185.5 -44q104 1 203 49.5t176 131.5t136.5 188.5t91.5 225.5t34 236q4 292 -107 439t-330 147q-129 -1 -245.5 -54.5t-207 -150t-146.5 -242.5t-62 -321zM637 1522q80 76 124.5 128.5t80.5 116.5q37 -3 84 0q7 -155 63 -260l-67 -10q-62 70 -88 117q-38 -38 -59.5 -55 t-78.5 -52z" />
<glyph unicode="&#xd5;" horiz-adv-x="1327" d="M-20 666q16 228 130.5 409.5t292.5 280t383 98.5q268 0 426 -162.5t154 -435.5q-2 -130 -41.5 -260t-112.5 -243.5t-169.5 -201.5t-222 -139t-261.5 -51q-157 0 -275 56t-186.5 153.5t-98 223t-19.5 272.5zM121 641q-3 -80 9.5 -164t45.5 -172t83.5 -156.5t133 -112.5 t185.5 -44q104 1 203 49.5t176 131.5t136.5 188.5t91.5 225.5t34 236q4 292 -107 439t-330 147q-129 -1 -245.5 -54.5t-207 -150t-146.5 -242.5t-62 -321zM530 1532q7 67 56.5 107.5t118.5 37.5q52 -3 145.5 -38t132.5 -35q31 0 61 26t37 51q5 16 19.5 21t27 -2.5 t11.5 -20.5q-3 -71 -54.5 -110t-126.5 -41q-64 -1 -162 36t-116 35q-62 -6 -92 -69q-9 -17 -23.5 -18t-24.5 6.5t-10 13.5z" />
<glyph unicode="&#xd6;" horiz-adv-x="1327" d="M-20 666q-10 -147 19.5 -272.5t98 -223t186.5 -153.5t275 -56q136 0 261.5 51t222 139t169.5 201.5t112.5 243.5t41.5 260q4 273 -154 435.5t-426 162.5q-205 0 -383 -98.5t-292.5 -280t-130.5 -409.5zM121 641q6 175 62 321t146.5 242.5t207 150t245.5 54.5 q219 0 330 -147t107 -439q-2 -116 -34 -236t-91.5 -225.5t-136.5 -188.5t-176 -131.5t-203 -49.5q-103 0 -185.5 44t-133 112.5t-83.5 156.5t-45.5 172t-9.5 164zM676 1581q0 32 21 53t53 21q21 0 35 -22.5t14 -45.5q0 -30 -21 -50.5t-53 -20.5q-23 0 -36 19.5t-13 45.5z M883 1581q0 32 20.5 53t52.5 21q22 0 36 -22.5t14 -45.5q0 -30 -21 -50.5t-53 -20.5q-23 0 -36 19.5t-13 45.5z" />
<glyph unicode="&#xd7;" horiz-adv-x="1228" d="M426 68l285 284l-285 285l76 76l284 -285l285 285l76 -76l-285 -285l285 -284l-76 -76l-285 284l-284 -284z" />
<glyph unicode="&#xd8;" horiz-adv-x="1327" d="M-23 -86l168 203q-47 52 -81 119.5t-48.5 129.5t-24 125t-7.5 105t2 70q12 171 79 317t175 249t256 162t319 60q102 0 182.5 -25t159.5 -86l135 162l64 -12l-154 -186q175 -168 170 -451q-2 -130 -41.5 -260t-112.5 -243.5t-169.5 -201.5t-222 -139t-261.5 -51 q-117 0 -207.5 24.5t-169.5 90.5l-143 -178zM127 641q-3 -106 20.5 -220t77.5 -206l879 1063q-118 134 -316 131q-129 -2 -245.5 -56t-207 -150t-146.5 -241.5t-62 -320.5zM262 162q129 -173 320 -170q130 3 250 78.5t204 193.5t135 265.5t54 293.5q6 259 -86 408z" />
<glyph unicode="&#xd9;" horiz-adv-x="1923" d="M24 1090q41 150 168 237q131 89 314 80q109 -5 235.5 5.5t194.5 37.5q12 6 63 4q46 -1 42 -15q-1 -2 -3 -5q-133 -151 -259 -462.5t-126 -529.5q0 -178 63.5 -275t205.5 -106q60 4 115.5 28.5t98.5 58t92.5 93t85.5 111t89 133.5q222 346 504 967q2 3 27 5t42 -1 q12 1 21.5 1.5t20.5 0t16.5 -3.5t3.5 -8q-36 -81 -98 -231.5t-143 -356.5t-138.5 -391.5t-59.5 -265.5q-1 -70 38.5 -117t101.5 -55q45 -6 86 14q10 5 39 4q16 -3 12 -10q-26 -31 -87 -44.5t-116 -6.5q-26 4 -44.5 7.5t-51.5 18t-53.5 35t-37 60.5t-16.5 92q0 136 113 456 q-34 -61 -54 -97t-58.5 -99t-66.5 -103.5t-72 -96t-81.5 -91.5t-87.5 -75.5t-98 -62.5t-106 -38t-117 -15q-103 0 -179 65.5t-111.5 168t-35.5 225.5q0 121 38.5 268t95.5 274.5t115.5 230.5t106.5 161q6 6 9 12q-137 -48 -396 -53q-74 -2 -137 -21t-116 -56.5t-83 -102.5 t-30 -150q0 -114 64.5 -199t148.5 -93q16 -1 44 4t34 10q6 6 33 2q19 -2 14 -10q-18 -31 -87.5 -46.5t-117.5 -4.5q-146 35 -209 164q-59 121 -19 264zM1276 1669.5q4 31.5 21.5 46.5t43.5 15q32 1 51.5 -23t24 -51t4.5 -60q0 -34 10 -56t22.5 -29t21.5 -14t8 -15 q-6 -23 -62 -6q-27 8 -63.5 36.5t-59.5 75.5q-26 49 -22 80.5z" />
<glyph unicode="&#xda;" horiz-adv-x="1923" d="M24 1090q41 150 168 237q131 89 314 80q109 -5 235.5 5.5t194.5 37.5q12 6 63 4q46 -1 42 -15q-1 -2 -3 -5q-133 -151 -259 -462.5t-126 -529.5q0 -178 63.5 -275t205.5 -106q60 4 115.5 28.5t98.5 58t92.5 93t85.5 111t89 133.5q222 346 504 967q2 3 27 5t42 -1 q12 1 21.5 1.5t20.5 0t16.5 -3.5t3.5 -8q-36 -81 -98 -231.5t-143 -356.5t-138.5 -391.5t-59.5 -265.5q-1 -70 38.5 -117t101.5 -55q45 -6 86 14q10 5 39 4q16 -3 12 -10q-26 -31 -87 -44.5t-116 -6.5q-26 4 -44.5 7.5t-51.5 18t-53.5 35t-37 60.5t-16.5 92q0 136 113 456 q-34 -61 -54 -97t-58.5 -99t-66.5 -103.5t-72 -96t-81.5 -91.5t-87.5 -75.5t-98 -62.5t-106 -38t-117 -15q-103 0 -179 65.5t-111.5 168t-35.5 225.5q0 121 38.5 268t95.5 274.5t115.5 230.5t106.5 161q6 6 9 12q-137 -48 -396 -53q-74 -2 -137 -21t-116 -56.5t-83 -102.5 t-30 -150q0 -114 64.5 -199t148.5 -93q16 -1 44 4t34 10q6 6 33 2q19 -2 14 -10q-18 -31 -87.5 -46.5t-117.5 -4.5q-146 35 -209 164q-59 121 -19 264zM1427 1489q-1 10 8.5 17.5t21.5 14t22 28t10 55.5q0 56 14 88q16 37 63 44q48 8 69 -26q26 -40 -13 -115 q-30 -60 -102 -101q-62 -35 -86 -18q-6 4 -7 13z" />
<glyph unicode="&#xdb;" horiz-adv-x="1923" d="M24 1090q41 150 168 237q131 89 314 80q109 -5 235.5 5.5t194.5 37.5q12 6 63 4q46 -1 42 -15q-1 -2 -3 -5q-133 -151 -259 -462.5t-126 -529.5q0 -178 63.5 -275t205.5 -106q60 4 115.5 28.5t98.5 58t92.5 93t85.5 111t89 133.5q222 346 504 967q2 3 27 5t42 -1 q12 1 21.5 1.5t20.5 0t16.5 -3.5t3.5 -8q-36 -81 -98 -231.5t-143 -356.5t-138.5 -391.5t-59.5 -265.5q-1 -70 38.5 -117t101.5 -55q45 -6 86 14q10 5 39 4q16 -3 12 -10q-26 -31 -87 -44.5t-116 -6.5q-26 4 -44.5 7.5t-51.5 18t-53.5 35t-37 60.5t-16.5 92q0 136 113 456 q-34 -61 -54 -97t-58.5 -99t-66.5 -103.5t-72 -96t-81.5 -91.5t-87.5 -75.5t-98 -62.5t-106 -38t-117 -15q-103 0 -179 65.5t-111.5 168t-35.5 225.5q0 121 38.5 268t95.5 274.5t115.5 230.5t106.5 161q6 6 9 12q-137 -48 -396 -53q-74 -2 -137 -21t-116 -56.5t-83 -102.5 t-30 -150q0 -114 64.5 -199t148.5 -93q16 -1 44 4t34 10q6 6 33 2q19 -2 14 -10q-18 -31 -87.5 -46.5t-117.5 -4.5q-146 35 -209 164q-59 121 -19 264zM1278 1522q80 76 124.5 128.5t80.5 116.5q35 -3 84 0q7 -155 63 -260l-67 -10q-66 71 -88 117q-54 -52 -85 -73 q-19 -13 -53 -34z" />
<glyph unicode="&#xdc;" horiz-adv-x="1923" d="M11 1022q-15 -146 65 -250q65 -83 176 -110q48 -11 117.5 4.5t87.5 46.5q5 9 -18 11q-25 1 -29 -3q-6 -5 -34 -10t-44 -4q-84 8 -148.5 93t-64.5 199q0 85 30 150t83 102.5t116 56.5t137 21q259 5 396 53q-3 -6 -9 -12q-48 -58 -106.5 -161t-115.5 -230.5t-95.5 -274.5 t-38.5 -268q0 -123 35.5 -225.5t111.5 -168t179 -65.5q59 0 117 15t106 38t98 62.5t87.5 75.5t81.5 91.5t72 96t66.5 103.5t58.5 99t54 97q-113 -320 -113 -456q0 -52 16.5 -92t37 -60.5t53.5 -35t51.5 -18t44.5 -7.5q55 -7 116 6.5t87 44.5q7 8 -9 9q-27 3 -42 -3 q-41 -20 -86 -14q-62 8 -101.5 55t-38.5 117q2 80 59.5 265.5t138.5 391.5t143 356.5t98 231.5q2 5 -3.5 8t-16.5 3.5t-20.5 0t-21.5 -1.5q-17 3 -42 1t-27 -5q-282 -621 -504 -967q-53 -82 -89 -133.5t-85.5 -111t-92.5 -93t-98.5 -58t-115.5 -28.5q-142 9 -205.5 106 t-63.5 275q0 218 126 529.5t259 462.5q12 14 -17 19q-41 6 -81 -2l-4 -1q-68 -27 -194.5 -37.5t-235.5 -5.5q-231 11 -372 -128q-107 -106 -123 -257zM1294 1550q0 31 21.5 51.5t54.5 20.5q21 0 34 -21.5t13 -44.5q0 -30 -20.5 -50.5t-50.5 -20.5q-23 0 -37.5 20t-14.5 45z M1503 1550q0 31 21 51.5t53 20.5q21 0 34 -21.5t13 -44.5q0 -30 -21 -50.5t-51 -20.5q-23 0 -36 19.5t-13 45.5z" />
<glyph unicode="&#xdd;" horiz-adv-x="1484" d="M-14 -201q0 53 18.5 101.5t43 80t57 59t53.5 40t39 20.5q38 16 70 8q23 -7 -4 -20q-6 -3 -13 -6q-23 -8 -43.5 -23t-43.5 -42.5t-36.5 -74.5t-13.5 -108q0 -59 21 -110.5t56.5 -88.5t81 -63.5t95.5 -39.5t100 -13q70 1 137.5 32.5t122.5 85.5t100.5 120.5t79.5 142.5 q61 137 79 316.5t-4.5 358t-69.5 347t-113 305.5q-73 151 -164 232t-176 81q-71 0 -114.5 -67t-43.5 -158q0 -39 8.5 -71.5t20.5 -50.5t24 -31t19 -18.5t6 -6.5q-8 -8 -33 -12t-47 1q-50 14 -81.5 50t-31.5 120q0 62 24 113.5t61 83.5t83 54t87.5 31t76.5 9q105 0 193 -45 t149 -122.5t108.5 -180t73.5 -220t41 -239.5t15 -241t-8.5 -222.5t-26.5 -185.5q19 40 59.5 128.5t77.5 169t91 191t103.5 206.5t111.5 203t119 192.5t122.5 163.5t125.5 127t123.5 72.5t121.5 10.5q66 -15 72 -58q3 -22 -7 -27q-4 -3 -6 3q-8 12 -30 21t-56 4 q-78 -12 -176 -110t-189 -237t-192.5 -320t-181 -340t-162 -318t-127.5 -233q-82 -137 -109 -175q-232 -337 -522 -337q-84 0 -159 17t-141.5 53.5t-106 103.5t-39.5 157zM1233 1561q-1 8 5 13.5t15 11.5t18.5 14.5t16 27.5t6.5 47q0 54 15 88q16 38 63 45t68 -27 q24 -40 -13 -114q-31 -60 -104 -102q-62 -35 -84 -17q-5 4 -6 13z" />
<glyph unicode="&#xdf;" horiz-adv-x="978" d="M-602 -129q-2 14 16.5 21t38.5 3.5t23 -16.5q6 -25 17 -50t31 -54.5t54.5 -47t77.5 -16.5q42 2 83 21.5t75.5 48t71.5 76.5t65.5 93t61 112t55.5 118.5t53 128t48 125t45.5 125t41.5 113.5q64 171 92 243.5t83 189.5t99 177q64 86 163.5 130t201.5 44q114 0 189.5 -54 t82.5 -171q6 -107 -75 -214t-226 -177q-124 -60 -165.5 -115t-20.5 -141q10 -42 37.5 -86t55 -76.5t55.5 -77t40 -86.5q17 -60 6 -107t-39.5 -81.5t-71 -57.5t-88 -34.5t-91.5 -12.5q-92 -3 -150 37t-80 109q-20 65 25 131.5t131 83.5q65 11 113 -13q24 -13 12 -20 q-5 -4 -21 -4q-72 0 -124 -61.5t-31 -129.5q12 -43 46 -76t81 -30q95 3 145 76.5t21 167.5q-15 49 -54.5 103.5t-78 112.5t-54.5 117q-18 65 6 114t59 74t132 80l7.5 4.5t6.5 4t8 4.5q130 73 209 189t70 216q-8 76 -52 124t-108 48q-65 0 -132.5 -48.5t-125.5 -137.5 q-29 -45 -62.5 -109t-59 -118.5t-60.5 -139t-52 -129t-51 -131.5t-41 -106q-109 -284 -193 -437q-228 -412 -493 -405q-39 1 -74.5 11.5t-69 33.5t-58 64t-33.5 96z" />
<glyph unicode="&#xe0;" horiz-adv-x="761" d="M-22.5 227q4.5 66 35.5 143.5t85 149.5q48 64 139 115.5t189.5 67.5t179.5 -25q6 15 36.5 20.5t57.5 2t25 -10.5q-5 -14 -31.5 -85.5t-61.5 -175.5t-48 -155q-28 -93 -25 -169t47 -80q12 -1 24.5 3.5t23.5 13t18.5 16t14.5 16.5l7 8q6 6 42 2q28 -3 27 -13q-1 -4 -5 -8 l-10 -11q-10 -10 -23.5 -21t-34 -23t-50 -20t-62.5 -8q-75 0 -107 25.5t-33 98.5q0 23 2 35q-64 -90 -137 -127t-178 -30q-51 4 -87 37t-50.5 87.5t-10 120.5zM102 186q7 -66 34.5 -104t66.5 -41q51 -4 112 61.5t111.5 163.5t84.5 176t52 131q9 29 -28.5 58.5t-96.5 30.5 q-77 2 -145.5 -46.5t-111.5 -121.5t-65 -156t-14 -152zM369 975q4 31 21.5 46t43.5 15q25 1 42 -11.5t24.5 -35t10.5 -42.5t3 -44q0 -34 10 -56.5t22 -29.5t21 -14t8 -15q-6 -22 -61 -6q-27 8 -63.5 37t-59.5 76q-26 49 -22 80z" />
<glyph unicode="&#xe1;" horiz-adv-x="761" d="M-22.5 227q4.5 66 35.5 143.5t85 149.5q48 64 139 115.5t189.5 67.5t179.5 -25q6 15 36.5 20.5t57.5 2t25 -10.5q-5 -14 -31.5 -85.5t-61.5 -175.5t-48 -155q-28 -93 -25 -169t47 -80q12 -1 24.5 3.5t23.5 13t18.5 16t14.5 16.5l7 8q6 6 42 2q28 -3 27 -13q-1 -4 -5 -8 l-10 -11q-10 -10 -23.5 -21t-34 -23t-50 -20t-62.5 -8q-75 0 -107 25.5t-33 98.5q0 23 2 35q-64 -90 -137 -127t-178 -30q-51 4 -87 37t-50.5 87.5t-10 120.5zM102 186q7 -66 34.5 -104t66.5 -41q51 -4 112 61.5t111.5 163.5t84.5 176t52 131q9 29 -28.5 58.5t-96.5 30.5 q-77 2 -145.5 -46.5t-111.5 -121.5t-65 -156t-14 -152zM508 793q-1 8 5 13.5t15 11.5t18.5 14.5t16 27.5t6.5 47q0 54 15 88q16 38 63 45t68 -27q24 -40 -13 -114q-31 -60 -104 -101q-62 -35 -84 -18q-5 5 -6 13z" />
<glyph unicode="&#xe2;" horiz-adv-x="761" d="M-22.5 227q4.5 66 35.5 143.5t85 149.5q48 64 139 115.5t189.5 67.5t179.5 -25q6 15 36.5 20.5t57.5 2t25 -10.5q-5 -14 -31.5 -85.5t-61.5 -175.5t-48 -155q-28 -93 -25 -169t47 -80q12 -1 24.5 3.5t23.5 13t18.5 16t14.5 16.5l7 8q6 6 42 2q28 -3 27 -13q-1 -4 -5 -8 l-10 -11q-10 -10 -23.5 -21t-34 -23t-50 -20t-62.5 -8q-75 0 -107 25.5t-33 98.5q0 23 2 35q-64 -90 -137 -127t-178 -30q-51 4 -87 37t-50.5 87.5t-10 120.5zM102 186q7 -66 34.5 -104t66.5 -41q51 -4 112 61.5t111.5 163.5t84.5 176t52 131q9 29 -28.5 58.5t-96.5 30.5 q-77 2 -145.5 -46.5t-111.5 -121.5t-65 -156t-14 -152zM393 791q80 76 124.5 128.5t80.5 116.5q49 -4 84 0q7 -155 63 -260l-67 -10q-60 67 -88 115q-30 -28 -40.5 -38t-34 -27t-62.5 -42z" />
<glyph unicode="&#xe3;" horiz-adv-x="761" d="M-22.5 227q4.5 66 35.5 143.5t85 149.5q48 64 139 115.5t189.5 67.5t179.5 -25q6 15 36.5 20.5t57.5 2t25 -10.5q-5 -14 -31.5 -85.5t-61.5 -175.5t-48 -155q-28 -93 -25 -169t47 -80q12 -1 24.5 3.5t23.5 13t18.5 16t14.5 16.5l7 8q6 6 42 2q28 -3 27 -13q-1 -4 -5 -8 l-10 -11q-10 -10 -23.5 -21t-34 -23t-50 -20t-62.5 -8q-75 0 -107 25.5t-33 98.5q0 23 2 35q-64 -90 -137 -127t-178 -30q-51 4 -87 37t-50.5 87.5t-10 120.5zM102 186q7 -66 34.5 -104t66.5 -41q51 -4 112 61.5t111.5 163.5t84.5 176t52 131q9 29 -28.5 58.5t-96.5 30.5 q-77 2 -145.5 -46.5t-111.5 -121.5t-65 -156t-14 -152zM184 838q7 67 56 107.5t118 37.5q51 -3 145.5 -38.5t133.5 -35.5q31 0 61 26.5t37 51.5q5 16 19.5 21t27 -2.5t11.5 -20.5q-3 -71 -54.5 -110t-126.5 -41q-64 -1 -162 36t-116 35q-28 -3 -48.5 -16t-27.5 -24t-16 -29 q-9 -17 -23.5 -18t-24.5 6.5t-10 13.5z" />
<glyph unicode="&#xe4;" horiz-adv-x="761" d="M-22.5 227q-4.5 -66 10 -120.5t50.5 -87.5t87 -37q105 -7 178 30t137 127q-2 -12 -2 -35q1 -73 33 -98.5t107 -25.5q33 0 62.5 8t50 20t34 23t23.5 21l10 11q16 16 -20 21q-36 4 -44 -2l-7 -8q-7 -9 -14.5 -16.5t-18.5 -16t-23.5 -13t-24.5 -3.5q-44 4 -47 80t25 169 q13 51 48 155t61.5 175.5t31.5 85.5q2 7 -25 10.5t-57.5 -2t-36.5 -20.5q-81 41 -179.5 25t-189.5 -67.5t-139 -115.5q-54 -72 -85 -149.5t-35.5 -143.5zM102 186q-8 69 14 152t65 156t111.5 121.5t145.5 46.5q59 -1 96.5 -30.5t28.5 -58.5q-18 -53 -52 -131t-84.5 -176 t-111.5 -163.5t-112 -61.5q-39 3 -66.5 41t-34.5 104zM387 856q0 31 21.5 51.5t54.5 20.5q22 0 34.5 -21.5t12.5 -46.5q0 -28 -21 -48.5t-53 -20.5q-22 0 -35.5 20t-13.5 45zM594 856q0 31 21.5 51.5t54.5 20.5q22 0 34.5 -21.5t12.5 -46.5q0 -28 -21 -48.5t-51 -20.5 q-23 0 -37 20t-14 45z" />
<glyph unicode="&#xe5;" horiz-adv-x="761" d="M-22.5 227q-4.5 -66 10 -120.5t50.5 -87.5t87 -37q105 -7 178 30t137 127q-2 -12 -2 -35q1 -73 33 -98.5t107 -25.5q33 0 62.5 8t50 20t34 23t23.5 21l10 11q16 16 -20 21q-36 4 -44 -2l-7 -8q-7 -9 -14.5 -16.5t-18.5 -16t-23.5 -13t-24.5 -3.5q-44 4 -47 80t25 169 q13 51 48 155t61.5 175.5t31.5 85.5q2 7 -25 10.5t-57.5 -2t-36.5 -20.5q-81 41 -179.5 25t-189.5 -67.5t-139 -115.5q-54 -72 -85 -149.5t-35.5 -143.5zM102 186q-8 69 14 152t65 156t111.5 121.5t145.5 46.5q59 -1 96.5 -30.5t28.5 -58.5q-18 -53 -52 -131t-84.5 -176 t-111.5 -163.5t-112 -61.5q-39 3 -66.5 41t-34.5 104zM455 856q-4 51 33 88t90 37q32 0 56.5 -21.5t27.5 -58.5q4 -51 -33 -89t-90 -38q-32 0 -56.5 22t-27.5 60zM510 848q3 -29 29 -29t48 30t19 58q-3 29 -28 29q-26 0 -48.5 -30t-19.5 -58z" />
<glyph unicode="&#xe6;" horiz-adv-x="1107" d="M11.5 126q-6.5 64 8 139t44 142.5t63.5 112.5q66 89 163.5 135t172.5 50q121 4 174 -29q0 1 1 3t1 3q11 29 84 22q35 -3 33 -8q0 -2 -15 -32q34 15 83 26t103 13.5t90.5 -22t35.5 -75.5q-1 -63 -53.5 -130t-131 -121t-142 -89.5t-116.5 -58.5q14 -81 74 -135t121 -54 q61 -1 110.5 23.5t100.5 67.5q23 20 66 16q22 -2 21 -11q0 -1 -1 -3q-42 -59 -142 -93t-188 -36q-72 0 -128.5 16t-101 59t-57.5 111q-52 -76 -128 -127.5t-164 -54.5q-83 -4 -129 36t-52.5 104zM131 186q7 -66 34 -104t66 -41q7 -1 14.5 0.5t15.5 5.5t13.5 7t15 9.5 t13.5 8.5q82 54 157 197t130 304q9 29 -27 56t-96 33q-74 -6 -148 -54q-86 -55 -145 -167.5t-43 -254.5zM608 254q51 27 97 57.5t94 70.5t78 86.5t34 92.5q5 56 -18.5 76.5t-69.5 -8.5q-96 -63 -151.5 -161t-63.5 -214z" />
<glyph unicode="&#xe7;" horiz-adv-x="626" d="M-20 231q0 78 30.5 157t83.5 144t132.5 105.5t168.5 40.5q59 0 108.5 -19t79 -64t13.5 -108q-3 -13 -9.5 -21t-14 -4t-11.5 23q-4 18 -12 35q0 -9 -4 -33q-3 -13 -9.5 -21t-14 -4t-11.5 23q-10 55 -58 102t-114 44q-68 -2 -122.5 -59t-82 -139.5t-27.5 -170.5 q0 -105 58 -169.5t160 -63.5q87 0 135 51q14 15 45 1q23 -12 16 -22q-51 -43 -120 -64t-138 -15q-15 -3 -26 -3l-37 -59q71 -3 105 -24.5t32 -51.5q-1 -34 -32 -56.5t-74 -29.5t-85.5 -7t-72.5 7q-10 2 -14 14q-2 8 5 7h3q44 -10 104.5 2.5t60.5 52.5q2 22 -30.5 38 t-98.5 17l60 101q-82 20 -132 80.5t-50 162.5z" />
<glyph unicode="&#xe8;" horiz-adv-x="620" d="M-14 215q3 82 40 169.5t96 157.5t141 114.5t167 43.5q55 0 93 -27.5t34 -86.5q-4 -50 -42 -103t-86.5 -92.5t-114.5 -80t-108.5 -61.5t-86.5 -40q14 -80 73 -135.5t119 -55.5q62 -1 111 24.5t102 70.5q21 17 63 16q26 0 25 -11q0 -2 -2 -5q-8 -9 -29 -26t-59.5 -43 t-96.5 -44t-118 -18q-55 0 -97.5 4.5t-87.5 19t-73.5 39.5t-46.5 68t-16 102zM115 256q52 27 98 57t94 69.5t77.5 86t33.5 92.5q3 37 -8 61t-33 27q-52 7 -115.5 -70.5t-104.5 -171.5t-42 -145v-6zM297 975q4 31 21.5 46t43.5 15q25 1 42 -11.5t24.5 -35t10.5 -42.5t3 -44 q0 -34 10 -56.5t22.5 -29.5t21.5 -14t8 -15q-6 -23 -62 -6q-27 8 -63.5 37t-59.5 76q-26 49 -22 80z" />
<glyph unicode="&#xe9;" horiz-adv-x="620" d="M-14 215q3 82 40 169.5t96 157.5t141 114.5t167 43.5q55 0 93 -27.5t34 -86.5q-4 -50 -42 -103t-86.5 -92.5t-114.5 -80t-108.5 -61.5t-86.5 -40q14 -80 73 -135.5t119 -55.5q62 -1 111 24.5t102 70.5q21 17 63 16q26 0 25 -11q0 -2 -2 -5q-8 -9 -29 -26t-59.5 -43 t-96.5 -44t-118 -18q-55 0 -97.5 4.5t-87.5 19t-73.5 39.5t-46.5 68t-16 102zM115 256q52 27 98 57t94 69.5t77.5 86t33.5 92.5q3 37 -8 61t-33 27q-52 7 -115.5 -70.5t-104.5 -171.5t-42 -145v-6zM477 793q-1 8 5 13.5t15.5 11.5t18.5 14.5t16 27.5t7 47q0 56 14 88 q16 37 62 45q48 7 70 -27q25 -40 -13 -114q-32 -60 -105 -101q-62 -35 -84 -18q-5 5 -6 13z" />
<glyph unicode="&#xea;" horiz-adv-x="620" d="M-14 215q3 82 40 169.5t96 157.5t141 114.5t167 43.5q55 0 93 -27.5t34 -86.5q-4 -50 -42 -103t-86.5 -92.5t-114.5 -80t-108.5 -61.5t-86.5 -40q14 -80 73 -135.5t119 -55.5q62 -1 111 24.5t102 70.5q21 17 63 16q26 0 25 -11q0 -2 -2 -5q-8 -9 -29 -26t-59.5 -43 t-96.5 -44t-118 -18q-55 0 -97.5 4.5t-87.5 19t-73.5 39.5t-46.5 68t-16 102zM115 256q52 27 98 57t94 69.5t77.5 86t33.5 92.5q3 37 -8 61t-33 27q-52 7 -115.5 -71t-104.5 -172t-42 -144v-6zM311 791q80 76 124.5 128.5t80.5 116.5q49 -4 84 0q7 -153 64 -260l-68 -10 q-60 67 -88 115q-30 -28 -40.5 -38t-34 -27t-62.5 -42z" />
<glyph unicode="&#xeb;" horiz-adv-x="620" d="M-14 215q-2 -59 16 -102t46.5 -68t73.5 -39.5t87.5 -19t97.5 -4.5q60 0 118 18t96.5 44t59.5 43t29 26q9 13 -15 16q-36 4 -65 -12l-6 -4q-53 -45 -102 -70.5t-111 -24.5q-60 0 -119 55.5t-73 135.5q44 19 86.5 40t108.5 61.5t114.5 80t86.5 92.5t42 103q4 59 -34 86.5 t-93 27.5q-85 1 -167 -43.5t-141 -114.5t-96 -157.5t-40 -169.5zM115 256v6q1 51 42 145t104.5 171.5t115.5 70.5q22 -3 33 -27t8 -61q-4 -46 -33.5 -92.5t-77.5 -86t-94 -69.5t-98 -57zM336 856q0 31 21.5 51.5t54.5 20.5q22 0 34.5 -21.5t12.5 -46.5q0 -28 -21 -48.5 t-53 -20.5q-22 0 -35.5 20t-13.5 45zM543 856q0 31 21 51.5t54 20.5q22 0 35 -21.5t13 -46.5q0 -28 -21 -48.5t-51 -20.5q-23 0 -37 20t-14 45z" />
<glyph unicode="&#xec;" horiz-adv-x="354" d="M31 84q0 87 147 424q27 63 25.5 113t-29.5 53q-20 3 -36.5 -18.5t-18.5 -39.5q-1 -19 -34 -21q-32 -2 -36 14q-1 3 0 7q32 96 174 91q45 -2 78.5 -27.5t34.5 -69.5q0 -19 -6 -41t-20 -58.5t-19 -51.5q-10 -27 -30.5 -82.5t-35 -94t-30 -83t-23.5 -75.5t-8 -46 q0 -67 35 -70q5 -1 10 0.5t11.5 6.5t9 7.5l10 10l8.5 8.5q16 16 60 8q18 -4 16 -8q-17 -29 -56 -45q-29 -12 -68.5 -14.5t-77.5 5.5t-64.5 33t-26.5 64zM134 975q4 31 21.5 46t43.5 15q25 1 42 -11.5t24.5 -35t10.5 -42.5t3 -44q0 -34 10 -56.5t22 -29.5t21 -14t8 -15 q-6 -22 -61 -6q-27 8 -63.5 37t-59.5 76q-26 49 -22 80z" />
<glyph unicode="&#xed;" horiz-adv-x="354" d="M31 84q0 87 147 424q27 63 25.5 113t-29.5 53q-20 3 -36.5 -18.5t-18.5 -39.5q-1 -19 -34 -21q-32 -2 -36 14q-1 3 0 7q32 96 174 91q45 -2 78.5 -27.5t34.5 -69.5q0 -19 -6 -41t-20 -58.5t-19 -51.5q-10 -27 -30.5 -82.5t-35 -94t-30 -83t-23.5 -75.5t-8 -46 q0 -67 35 -70q5 -1 10 0.5t11.5 6.5t9 7.5l10 10l8.5 8.5q16 16 60 8q18 -4 16 -8q-17 -29 -56 -45q-29 -12 -68.5 -14.5t-77.5 5.5t-64.5 33t-26.5 64zM242 793q-1 8 5 13.5t15 11.5t18.5 14.5t16 27.5t6.5 47q0 56 14 88q16 37 62 45q48 7 70 -27q25 -40 -13 -114 q-31 -60 -104 -101q-62 -35 -84 -18q-5 5 -6 13z" />
<glyph unicode="&#xee;" horiz-adv-x="354" d="M31 84q0 87 147 424q27 63 25.5 113t-29.5 53q-20 3 -36.5 -18.5t-18.5 -39.5q-1 -19 -34 -21q-32 -2 -36 14q-1 3 0 7q32 96 174 91q45 -2 78.5 -27.5t34.5 -69.5q0 -19 -6 -41t-20 -58.5t-19 -51.5q-10 -27 -30.5 -82.5t-35 -94t-30 -83t-23.5 -75.5t-8 -46 q0 -67 35 -70q5 -1 10 0.5t11.5 6.5t9 7.5l10 10l8.5 8.5q16 16 60 8q18 -4 16 -8q-17 -29 -56 -45q-29 -12 -68.5 -14.5t-77.5 5.5t-64.5 33t-26.5 64zM86 791q80 76 124.5 128.5t80.5 116.5q49 -4 84 0q7 -155 63 -260l-67 -10q-60 67 -88 115q-39 -37 -60.5 -54 t-77.5 -53z" />
<glyph unicode="&#xef;" horiz-adv-x="354" d="M31 84q0 -39 26.5 -64t64.5 -33t77.5 -5.5t68.5 14.5q39 16 56 45q2 3 -5 5q-27 11 -57 2q-9 -3 -14 -7l-8.5 -8.5l-10 -10t-9 -7.5t-11.5 -6.5t-10 -0.5q-35 3 -35 70q0 15 8 46t23.5 75.5t30 83t35 94t30.5 82.5q5 15 19 51.5t20 58.5t6 41q-1 44 -34.5 69.5 t-78.5 27.5q-142 5 -174 -91q-4 -15 19 -20q31 -6 46 9q4 6 5 11q2 18 18.5 39.5t36.5 18.5q28 -3 29.5 -53t-25.5 -113q-147 -337 -147 -424zM121 856q0 31 21.5 51.5t54.5 20.5q22 0 34.5 -21.5t12.5 -46.5q0 -28 -21 -48.5t-53 -20.5q-22 0 -35.5 20t-13.5 45zM328 856 q0 31 21 51.5t54 20.5q22 0 35 -21.5t13 -46.5q0 -28 -21 -48.5t-51 -20.5q-23 0 -37 20t-14 45z" />
<glyph unicode="&#xf1;" horiz-adv-x="774" d="M-33 -6q1 1 6 14.5t16.5 43.5t22.5 59q98 253 123 327q62 183 28 229q-17 22 -43 -2q-32 -30 -31 -79q1 -4 1 -8q1 -14 -20 -19.5t-43.5 0t-24.5 19.5q-11 67 68 109t161 21t78 -104q-2 -48 -84 -248q164 252 303 322q40 19 92.5 25t96 -16.5t41.5 -76.5q-1 -22 -9 -54.5 t-17.5 -59t-26.5 -72.5t-25 -70q-58 -172 -70 -251t17 -87q14 -6 39.5 5t35.5 24q9 11 40 5q12 -4 12 -9q-26 -41 -91 -57.5t-122.5 5t-61.5 79.5q-2 34 20 108t48.5 150.5t48 150t17.5 121t-42 49.5q-27 1 -60 -20.5t-71 -66t-69.5 -87t-73 -109t-63.5 -104.5t-58 -100 q-18 -31 -45.5 -89t-32.5 -67q-12 -25 -86 -22q-48 3 -45 12zM184 838q7 67 56 107.5t118 37.5q51 -3 145.5 -38.5t133.5 -35.5q31 0 61 26.5t37 51.5q5 16 19.5 21t27 -2.5t11.5 -20.5q-3 -71 -54.5 -110t-126.5 -41q-64 -1 -162 36t-116 35q-28 -3 -48.5 -16t-27.5 -24 t-16 -29q-9 -17 -23.5 -18t-24.5 6.5t-10 13.5z" />
<glyph unicode="&#xf2;" d="M-20 221q1 86 29.5 170.5t78.5 153.5t127 112t166 43q72 0 126 -13t97.5 -42.5t66 -82.5t23.5 -128q1 -202 -135 -328t-338 -124q-241 0 -241 239zM98 293q0 -113 54.5 -194t138.5 -81q101 0 172.5 88t89.5 222q17 129 -39 227.5t-152 97.5q-65 0 -117 -32.5t-83 -85.5 t-47.5 -115.5t-16.5 -126.5zM236 975q4 31 21.5 46t43.5 15q25 1 42 -11.5t24.5 -35t10.5 -42.5t3 -44q0 -34 10 -56.5t22 -29.5t21 -14t8 -15q-6 -22 -61 -6q-27 8 -63.5 37t-59.5 76q-26 49 -22 80z" />
<glyph unicode="&#xf3;" d="M-20 221q1 86 29.5 170.5t78.5 153.5t127 112t166 43q72 0 126 -13t97.5 -42.5t66 -82.5t23.5 -128q1 -202 -135 -328t-338 -124q-241 0 -241 239zM98 293q0 -113 54.5 -194t138.5 -81q101 0 172.5 88t89.5 222q17 129 -39 227.5t-152 97.5q-65 0 -117 -32.5t-83 -85.5 t-47.5 -115.5t-16.5 -126.5zM406 793q-1 8 5 13.5t15 11.5t18.5 14.5t16 27.5t6.5 47q0 56 14 88q16 37 62 45q48 7 70 -27q25 -40 -13 -114q-31 -60 -104 -101q-62 -35 -84 -18q-5 6 -6 13z" />
<glyph unicode="&#xf4;" d="M-20 221q1 86 29.5 170.5t78.5 153.5t127 112t166 43q72 0 126 -13t97.5 -42.5t66 -82.5t23.5 -128q1 -202 -135 -328t-338 -124q-241 0 -241 239zM98 293q0 -113 54.5 -194t138.5 -81q101 0 172.5 88t89.5 222q17 129 -39 227.5t-152 97.5q-65 0 -117 -32.5t-83 -85.5 t-47.5 -115.5t-16.5 -126.5zM240 791q79 75 123 127.5t81 117.5q49 -4 84 0q7 -153 64 -260l-68 -10q-60 67 -88 115q-30 -28 -40.5 -38t-34 -27t-62.5 -42z" />
<glyph unicode="&#xf5;" d="M-20 221q1 86 29.5 170.5t78.5 153.5t127 112t166 43q72 0 126 -13t97.5 -42.5t66 -82.5t23.5 -128q1 -202 -135 -328t-338 -124q-241 0 -241 239zM98 293q0 -113 54.5 -194t138.5 -81q101 0 172.5 88t89.5 222q17 129 -39 227.5t-152 97.5q-65 0 -117 -32.5t-83 -85.5 t-47.5 -115.5t-16.5 -126.5zM133 838q7 67 56 107.5t118 37.5q51 -3 145.5 -38.5t133.5 -35.5q31 0 61 26.5t37 51.5q5 16 19.5 21t26.5 -2.5t11 -20.5q-3 -71 -54 -110t-126 -41q-64 -1 -162 36t-116 35q-63 -6 -93 -69q-9 -17 -23 -18t-24 6.5t-10 13.5z" />
<glyph unicode="&#xf6;" d="M-20 221q0 -239 241 -239q202 -2 338 124t135 328q-1 75 -23.5 128t-66 82.5t-97.5 42.5t-126 13q-89 0 -166 -43t-127 -112t-78.5 -153.5t-29.5 -170.5zM98 293q0 64 16.5 126.5t47.5 115.5t83 85.5t117 32.5q96 1 152 -97.5t39 -227.5q-18 -134 -89.5 -222t-172.5 -88 q-84 0 -138.5 81t-54.5 194zM305 856q0 31 21.5 51.5t54.5 20.5q22 0 34.5 -21.5t12.5 -46.5q0 -28 -21 -48.5t-53 -20.5q-22 0 -35.5 20t-13.5 45zM512 856q0 31 21.5 51.5t54.5 20.5q22 0 34.5 -21.5t12.5 -46.5q0 -28 -21 -48.5t-51 -20.5q-23 0 -37 20t-14 45z" />
<glyph unicode="&#xf7;" horiz-adv-x="1228" d="M414 317v70h755v-70h-755zM688 61q0 42 30.5 72.5t72.5 30.5t72 -30.5t30 -72.5q0 -43 -29.5 -73.5t-72.5 -30.5t-73 30.5t-30 73.5zM688 647q0 43 30 73t73 30t72.5 -30t29.5 -73t-29.5 -72.5t-72.5 -29.5t-73 29.5t-30 72.5z" />
<glyph unicode="&#xf8;" d="M-20 -113q69 84 129 154q-62 59 -62 180q0 89 30.5 176t84 156t136 110t177.5 37q8 -1 31 -2t34.5 -2.5t30 -4t33.5 -7.5t29 -12l141 172l68 -17l-160 -190q80 -77 80 -203q1 -119 -58.5 -224.5t-163.5 -168.5t-225 -59q-109 4 -155 24q-24 -28 -39.5 -46t-29 -34 t-46.5 -55zM166 293q0 -82 31 -146l360 435q-64 76 -127 71q-65 -3 -116.5 -36t-82.5 -85t-47.5 -113.5t-17.5 -125.5zM229 92q62 -77 129 -74q101 3 173 90t90 220q15 111 -29 200z" />
<glyph unicode="&#xf9;" horiz-adv-x="727" d="M-22.5 86.5q3.5 39.5 14.5 87.5q13 50 57 159.5t55 141.5q18 51 27.5 80t16.5 57.5t5 41.5t-12 14q-26 4 -45.5 -23.5t-17.5 -52.5q1 -14 -16.5 -19.5t-36.5 -1t-21 16.5q-12 62 61.5 94.5t133.5 19.5q39 -9 56.5 -26t16.5 -62q-1 -19 -10.5 -53t-27.5 -82.5t-34 -90 t-41 -104t-38 -96.5q-9 -23 -14.5 -50.5t-5.5 -55t12.5 -47t36.5 -21.5q19 -1 38 6t38.5 24.5t35 33.5t36 44.5t31.5 45t30.5 48t25.5 40.5q30 47 87.5 151.5t96 177t47.5 91.5q8 16 46 21.5t71 2t31 -9.5q-11 -18 -195 -534q-25 -71 0 -118q24 -42 67 -21q16 9 32 24 q7 7 42 6q13 -2 13 -6q-44 -63 -132.5 -74t-133.5 55t14 246q-24 -40 -39.5 -64t-42 -60t-47.5 -57.5t-51.5 -46t-60 -36.5t-67 -18.5t-77.5 -1.5q-59 7 -85.5 35t-23 67.5zM267 975q4 31 21.5 46t43.5 15q25 1 42 -11.5t24.5 -35t10.5 -42.5t3 -44q0 -34 10 -56.5t22 -29.5 t21 -14t8 -15q-6 -22 -61 -6q-27 8 -63.5 37t-59.5 76q-26 49 -22 80z" />
<glyph unicode="&#xfa;" horiz-adv-x="727" d="M-22.5 86.5q3.5 39.5 14.5 87.5q13 50 57 159.5t55 141.5q18 51 27.5 80t16.5 57.5t5 41.5t-12 14q-26 4 -45.5 -23.5t-17.5 -52.5q1 -14 -16.5 -19.5t-36.5 -1t-21 16.5q-12 62 61.5 94.5t133.5 19.5q39 -9 56.5 -26t16.5 -62q-1 -19 -10.5 -53t-27.5 -82.5t-34 -90 t-41 -104t-38 -96.5q-9 -23 -14.5 -50.5t-5.5 -55t12.5 -47t36.5 -21.5q19 -1 38 6t38.5 24.5t35 33.5t36 44.5t31.5 45t30.5 48t25.5 40.5q30 47 87.5 151.5t96 177t47.5 91.5q8 16 46 21.5t71 2t31 -9.5q-11 -18 -195 -534q-25 -71 0 -118q24 -42 67 -21q16 9 32 24 q7 7 42 6q13 -2 13 -6q-44 -63 -132.5 -74t-133.5 55t14 246q-24 -40 -39.5 -64t-42 -60t-47.5 -57.5t-51.5 -46t-60 -36.5t-67 -18.5t-77.5 -1.5q-59 7 -85.5 35t-23 67.5zM385 793q-1 8 5 13.5t15 11.5t18.5 14.5t16 27.5t6.5 47q0 54 15 88q16 37 62 45q48 7 70 -27 q25 -40 -13 -114q-32 -60 -105 -101q-62 -35 -84 -18q-5 5 -6 13z" />
<glyph unicode="&#xfb;" horiz-adv-x="727" d="M-22.5 86.5q3.5 39.5 14.5 87.5q13 50 57 159.5t55 141.5q18 51 27.5 80t16.5 57.5t5 41.5t-12 14q-26 4 -45.5 -23.5t-17.5 -52.5q1 -14 -16.5 -19.5t-36.5 -1t-21 16.5q-12 62 61.5 94.5t133.5 19.5q39 -9 56.5 -26t16.5 -62q-1 -19 -10.5 -53t-27.5 -82.5t-34 -90 t-41 -104t-38 -96.5q-9 -23 -14.5 -50.5t-5.5 -55t12.5 -47t36.5 -21.5q19 -1 38 6t38.5 24.5t35 33.5t36 44.5t31.5 45t30.5 48t25.5 40.5q30 47 87.5 151.5t96 177t47.5 91.5q8 16 46 21.5t71 2t31 -9.5q-11 -18 -195 -534q-25 -71 0 -118q24 -42 67 -21q16 9 32 24 q7 7 42 6q13 -2 13 -6q-44 -63 -132.5 -74t-133.5 55t14 246q-24 -40 -39.5 -64t-42 -60t-47.5 -57.5t-51.5 -46t-60 -36.5t-67 -18.5t-77.5 -1.5q-59 7 -85.5 35t-23 67.5zM281 791q79 75 123 127.5t81 117.5q49 -4 84 0q7 -153 64 -260l-68 -10q-60 67 -88 115 q-30 -28 -40.5 -38t-34 -27t-62.5 -42z" />
<glyph unicode="&#xfc;" horiz-adv-x="727" d="M-22.5 86.5q-3.5 -39.5 23 -67.5t85.5 -35q40 -5 77.5 1.5t67 18.5t60 36.5t51.5 46t47.5 57.5t42 60t39.5 64q-59 -180 -14 -246t133.5 -55t132.5 74q5 6 -16 6q-31 0 -39 -6q-50 -50 -85 -20q-33 27 -24 93q3 21 10 42q184 516 195 534q2 6 -31 9.5t-71 -2t-46 -21.5 q-9 -19 -47.5 -91.5t-96 -177t-87.5 -151.5q-6 -9 -25.5 -40.5t-30.5 -48t-31.5 -45t-36 -44.5t-35 -33.5t-38.5 -24.5t-38 -6q-24 2 -36.5 21.5t-12.5 47t5.5 55t14.5 50.5q13 34 38 96.5t41 104t34 90t27.5 82.5t10.5 53q1 45 -16.5 62t-56.5 26q-60 13 -133.5 -19.5 t-61.5 -94.5q2 -12 21 -16.5t36.5 1t16.5 19.5q-2 25 17.5 52.5t45.5 23.5q10 -1 12 -14t-5 -41.5t-16.5 -57.5t-27.5 -80q-11 -32 -55 -141.5t-57 -159.5q-11 -48 -14.5 -87.5zM315 856q0 31 21.5 51.5t54.5 20.5q22 0 34.5 -21.5t12.5 -46.5q0 -28 -20.5 -48.5 t-52.5 -20.5q-22 0 -36 20t-14 45zM522 856q0 31 21.5 51.5t54.5 20.5q22 0 34.5 -21.5t12.5 -46.5q0 -28 -21 -48.5t-51 -20.5q-23 0 -37 20t-14 45z" />
<glyph unicode="&#xfd;" horiz-adv-x="612" d="M-1260 -481q-3 131 61 229t140 123q41 13 80 5q27 -5 2 -18l-14 -5q-21 -7 -46 -26.5t-52 -52t-44.5 -83.5t-17.5 -109q0 -53 15 -106.5t50 -106.5t86 -93.5t128.5 -66t171.5 -24.5q120 1 241 39t224.5 102t195 149.5t156.5 180t105 196t44 195.5q6 126 -16 256.5 t-67 217t-99 81.5q-40 -4 -16 -84q4 -13 -17 -18q-33 -8 -57 6q-9 5 -10 12q-14 80 34.5 116.5t124.5 29.5q63 -5 113 -66.5t78 -153t39 -198t2 -205.5q99 153 119 344q13 126 -25 207t-109 84q-15 0 -21 11q-3 7 7 9q117 27 183.5 -41t66.5 -192q0 -63 -21.5 -151t-62 -193 t-104.5 -217t-143 -220.5t-183.5 -205.5t-220 -170.5t-259 -116.5t-294.5 -43h-25h-26q-235 0 -373.5 102t-143.5 271zM262 793q-1 8 5 13.5t15.5 11.5t18.5 14.5t16 27.5t7 47q0 56 14 88q16 37 62 45q48 7 70 -27q25 -40 -13 -114q-32 -60 -105 -101q-62 -35 -84 -18 q-5 5 -6 13z" />
<glyph unicode="&#xff;" horiz-adv-x="612" d="M-1260 -481q5 -169 143.5 -271t373.5 -102h26h25q151 0 294.5 43t259 116.5t220 170.5t183.5 205.5t143 220.5t104.5 217t62 193t21.5 151q0 124 -66.5 192t-183.5 41q-14 -3 -4 -13q9 -6 18 -7q71 -3 109 -84t25 -207q-20 -191 -119 -344q9 99 -2 205.5t-39 198t-78 153 t-113 66.5q-76 7 -124.5 -29.5t-34.5 -116.5q3 -18 42 -20q38 -2 42 14q1 3 0 6q-24 80 16 84q54 5 99 -81.5t67 -217t16 -256.5q-4 -94 -44 -195.5t-105 -196t-156.5 -180t-195 -149.5t-224.5 -102t-241 -39q-94 -1 -171.5 24.5t-128.5 66t-86 93.5t-50 106.5t-15 106.5 q0 58 17.5 109t44.5 83.5t52 52t46 26.5q41 14 17 22q-29 10 -76 -1q-5 -2 -9 -3q-76 -25 -140 -123t-61 -229zM111 856q0 31 21 51.5t54 20.5q22 0 34.5 -21.5t12.5 -46.5q0 -28 -20.5 -48.5t-52.5 -20.5q-22 0 -35.5 20t-13.5 45zM317 856q0 31 21.5 51.5t54.5 20.5 q22 0 34.5 -21.5t12.5 -46.5q0 -28 -20.5 -48.5t-50.5 -20.5q-23 0 -37.5 20t-14.5 45z" />
<glyph unicode="&#x152;" horiz-adv-x="2115" d="M-20 666q11 168 78.5 314t176 250.5t257 164t317.5 59.5q186 0 327 -97.5t199 -273.5q8 28 -9 93.5t-21 97.5q-13 102 71.5 184.5t190.5 79.5q78 -2 135 -43.5t57 -112.5q0 -63 -45 -112q-13 -14 -55 -11q-22 4 -21 11q11 23 13.5 56t-5 67.5t-34.5 62t-70 33.5 q-49 -8 -82 -50t-33 -104q0 -45 15.5 -108t15.5 -70q0 -66 -82 -139l-20 -19q10 -56 10 -143q-3 -143 -63.5 -307.5t-165.5 -298.5q56 -114 156 -188t241 -74q120 1 218.5 62t159 180.5t60.5 277.5q0 160 -75.5 248t-190.5 86q-101 0 -164 -86t-72 -217q-6 -81 48 -150.5 t110 -71.5q5 -1 7.5 -3t1 -4.5t-8.5 -4.5q-123 -34 -206 44.5t-83 209.5q0 94 54.5 167t142.5 110.5t193 37.5q156 0 272.5 -109.5t116.5 -262.5q0 -146 -83 -272.5t-217 -199.5t-282 -73q-157 0 -286.5 48.5t-213.5 137.5q-105 -96 -219 -139t-258 -43q-157 0 -275 56 t-186.5 153.5t-98 223t-19.5 272.5zM121 641q-2 -66 6.5 -135t28.5 -142.5t56.5 -138t85.5 -117t121.5 -83.5t158.5 -33q212 -3 407 221q-47 83 -47 184q0 312 276 561q-47 454 -432 451q-129 -1 -245.5 -54.5t-207 -150t-146.5 -242.5t-62 -321zM1087 463q0 -43 9 -90 q120 216 123 450v19q-132 -186 -132 -379z" />
<glyph unicode="&#x153;" horiz-adv-x="1161" d="M-20 221q1 88 31.5 174t83.5 155t134.5 110.5t176.5 39.5q215 -7 270 -157q57 67 141 114t164 41q29 -2 48 -5.5t40 -12.5t31.5 -27.5t9.5 -46.5q-1 -50 -37.5 -105t-87.5 -98t-117 -85t-113 -66.5t-87 -42.5q14 -80 73 -133t121 -53q103 -2 211 90q17 16 65 12 q26 -2 25 -10q0 -2 -2 -4q-54 -65 -144 -94t-190 -31q-47 0 -80.5 3.5t-73 14.5t-69 36.5t-47.5 65.5q-121 -121 -309 -124q-268 -3 -268 239zM98 293q0 -113 54.5 -194t138.5 -81q101 0 172.5 88t89.5 222q17 129 -39 227.5t-152 97.5q-65 0 -117 -32.5t-83 -85.5 t-47.5 -115.5t-16.5 -126.5zM668 256q52 27 98 57t94 69.5t77.5 86t33.5 92.5q5 59 -17 78t-69 -10q-88 -58 -151 -156t-66 -211v-6z" />
<glyph unicode="&#x178;" horiz-adv-x="1484" d="M-14 -201q0 53 18.5 101.5t43 80t57 59t53.5 40t39 20.5q38 16 70 8q23 -7 -4 -20q-6 -3 -13 -6q-23 -8 -43.5 -23t-43.5 -42.5t-36.5 -74.5t-13.5 -108q0 -59 21 -110.5t56.5 -88.5t81 -63.5t95.5 -39.5t100 -13q70 1 137.5 32.5t122.5 85.5t100.5 120.5t79.5 142.5 q61 137 79 316.5t-4.5 358t-69.5 347t-113 305.5q-73 151 -164 232t-176 81q-71 0 -114.5 -67t-43.5 -158q0 -39 8.5 -71.5t20.5 -50.5t24 -31t19 -18.5t6 -6.5q-8 -8 -33 -12t-47 1q-50 14 -81.5 50t-31.5 120q0 62 24 113.5t61 83.5t83 54t87.5 31t76.5 9q105 0 193 -45 t149 -122.5t108.5 -180t73.5 -220t41 -239.5t15 -241t-8.5 -222.5t-26.5 -185.5q19 40 59.5 128.5t77.5 169t91 191t103.5 206.5t111.5 203t119 192.5t122.5 163.5t125.5 127t123.5 72.5t121.5 10.5q66 -15 72 -58q3 -22 -7 -27q-4 -3 -6 3q-8 12 -30 21t-56 4 q-78 -12 -176 -110t-189 -237t-192.5 -320t-181 -340t-162 -318t-127.5 -233q-82 -137 -109 -175q-232 -337 -522 -337q-84 0 -159 17t-141.5 53.5t-106 103.5t-39.5 157zM1169 1585q0 32 21 53t53 21q21 0 35 -22.5t14 -45.5q0 -28 -20.5 -48.5t-52.5 -20.5 q-23 0 -36.5 19.5t-13.5 43.5zM1376 1585q0 32 21 53t55 21q20 0 33.5 -22.5t13.5 -45.5q0 -28 -21 -48.5t-53 -20.5q-22 0 -35.5 19.5t-13.5 43.5z" />
<glyph unicode="&#x2c6;" horiz-adv-x="454" d="M254 907q80 75 124 128t81 118q35 -3 84 0q7 -155 63 -260l-67 -10q-64 72 -88 116q-37 -37 -58.5 -54t-79.5 -52z" />
<glyph unicode="&#x2dc;" horiz-adv-x="454" d="M147 938q6 67 55.5 107.5t119.5 37.5q51 -3 144.5 -38t131.5 -35q32 0 61.5 26t36.5 51q5 16 20 21t28 -2.5t12 -20.5q-4 -72 -55.5 -110.5t-127.5 -40.5q-62 -1 -159.5 36.5t-116.5 35.5q-63 -6 -94 -70q-9 -17 -23 -18t-23.5 6.5t-9.5 13.5z" />
<glyph unicode="&#x2000;" horiz-adv-x="1063" />
<glyph unicode="&#x2001;" horiz-adv-x="2126" />
<glyph unicode="&#x2002;" horiz-adv-x="1063" />
<glyph unicode="&#x2003;" horiz-adv-x="2126" />
<glyph unicode="&#x2004;" horiz-adv-x="708" />
<glyph unicode="&#x2005;" horiz-adv-x="531" />
<glyph unicode="&#x2006;" horiz-adv-x="354" />
<glyph unicode="&#x2007;" horiz-adv-x="354" />
<glyph unicode="&#x2008;" horiz-adv-x="265" />
<glyph unicode="&#x2009;" horiz-adv-x="425" />
<glyph unicode="&#x200a;" horiz-adv-x="118" />
<glyph unicode="&#x2010;" d="M141 324l37 57h479l-39 -57h-477z" />
<glyph unicode="&#x2011;" d="M141 324l37 57h479l-39 -57h-477z" />
<glyph unicode="&#x2012;" d="M141 324l37 57h479l-39 -57h-477z" />
<glyph unicode="&#x2013;" horiz-adv-x="1024" d="M12 324l25 57h983l-25 -57h-983z" />
<glyph unicode="&#x2014;" horiz-adv-x="2048" d="M12 324l25 57h2007l-25 -57h-2007z" />
<glyph unicode="&#x2018;" horiz-adv-x="454" d="M313 932q3 68 44.5 124t103.5 93q61 36 33 -33l-13 -22q-44 -35 -69 -95q32 0 49.5 -23t17.5 -56q0 -38 -24.5 -68t-65.5 -27q-38 3 -58 36t-18 71z" />
<glyph unicode="&#x2019;" horiz-adv-x="245" d="M139.5 871q-6.5 12 5.5 40l13 25q18 13 37.5 38.5t31.5 53.5q-32 0 -49.5 24t-17.5 56q0 38 24.5 68.5t65.5 27.5q38 -3 58 -36.5t18 -71.5q-3 -67 -44 -122.5t-104 -94.5q-32 -20 -38.5 -8z" />
<glyph unicode="&#x201a;" horiz-adv-x="454" d="M98 29q-19 40 7 86q30 55 94 53q48 -1 77 -33t29 -78q0 -71 -42 -132.5t-113 -104.5q-24 -16 -46 -9.5t-6 35.5q25 23 57.5 73.5t24.5 82.5q-61 -19 -82 27z" />
<glyph unicode="&#x201c;" horiz-adv-x="796" d="M297 934q4 67 50.5 122t119.5 93q36 20 43.5 7.5t-6.5 -40.5l-15 -24q-21 -13 -43.5 -39.5t-33.5 -53.5q35 0 55 -23t20 -56q0 -38 -27.5 -68t-74.5 -27q-44 3 -67.5 36t-20.5 73zM614 934q4 67 50.5 122t117.5 93q36 19 44 7t-7 -40l-12 -22q-59 -44 -80 -95 q35 0 55.5 -23t20.5 -56q0 -38 -28 -68t-75 -27q-46 3 -67.5 36t-18.5 73z" />
<glyph unicode="&#x201d;" horiz-adv-x="796" d="M294.5 871q-7.5 12 6.5 40l14 25q21 13 44 38.5t36 53.5q-36 0 -56 24t-20 56q0 38 27 68.5t76 27.5q44 -3 66.5 -36t19.5 -72q-4 -67 -50 -123.5t-118 -93.5q-38 -20 -45.5 -8zM611 871.5q-8 11.5 5 39.5l15 25q58 39 80 92q-35 0 -55.5 24t-20.5 56q0 38 27.5 68.5 t74.5 27.5q44 -3 67.5 -36t20.5 -72q-4 -68 -51.5 -123.5t-120.5 -93.5q-34 -19 -42 -7.5z" />
<glyph unicode="&#x2022;" horiz-adv-x="1024" d="M537 717q0 98 68.5 167.5t166.5 69.5t168 -69.5t70 -167.5t-70 -167t-168 -69t-166.5 69t-68.5 167z" />
<glyph unicode="&#x2026;" horiz-adv-x="2048" d="M268 86q0 40 28.5 68t68.5 28t68 -28t28 -68q0 -39 -28.5 -67.5t-67.5 -28.5t-68 29t-29 67zM911 86q0 40 28.5 68t68.5 28t68 -28t28 -68q0 -39 -28.5 -67.5t-67.5 -28.5q-40 0 -68.5 29t-28.5 67zM1587 86q0 40 28 68t68 28t68.5 -28t28.5 -68q0 -38 -29 -67t-68 -29 t-67.5 28.5t-28.5 67.5z" />
<glyph unicode="&#x202f;" horiz-adv-x="425" />
<glyph unicode="&#x2039;" horiz-adv-x="659" d="M119 338q74 40 167.5 110.5t153.5 126.5l60 -16q-46 -55 -115.5 -122.5t-118.5 -100.5q51 -80 125 -236l-67 -4q-72 115 -205 242z" />
<glyph unicode="&#x203a;" d="M170 109q49 56 118.5 123.5t117.5 99.5q-54 88 -125 237l65 6q68 -109 207 -245q-75 -40 -169 -110.5t-153 -125.5z" />
<glyph unicode="&#x205f;" horiz-adv-x="531" />
<glyph unicode="&#x20ac;" horiz-adv-x="1554" d="M-102 598l24 37h209q4 33 19 90h-177l21 37h168q97 313 337.5 484t573.5 179q49 1 102 -6t112 -24.5t97.5 -56t40.5 -91.5q0 -9 -16 -15.5t-30 -6t-17 5.5q-5 40 -47.5 75t-105.5 55t-128 19q-144 -4 -273.5 -57t-225.5 -140.5t-165 -194.5t-108 -226h504l-20 -37h-496 q-13 -49 -18 -90h450l-22 -37h-435q-11 -93 0 -179.5t47 -163t93.5 -133t146 -90t197.5 -34.5q87 -1 167.5 15.5t127.5 35t110 49.5q18 9 35 -6q16 -13 -2 -22q-118 -61 -244.5 -84.5t-287.5 -26.5q-192 -3 -322 80t-183.5 227.5t-31.5 331.5h-227z" />
<glyph unicode="&#x25fc;" horiz-adv-x="706" d="M0 0v707h707v-707h-707z" />
</font>
</defs>
</svg>
